<?xml version="1.0" encoding="utf-8"?>
<!-- Generator: Adobe Illustrator 22.0.1, SVG Export Plug-In . SVG Version: 6.00 Build 0)  -->
<svg version="1.1" xmlns="http://www.w3.org/2000/svg" xmlns:xlink="http://www.w3.org/1999/xlink" x="0px" y="0px"
	 viewBox="0 0 1060 330" style="enable-background:new 0 0 1060 330;" xml:space="preserve">
<style type="text/css">
	.st0{fill:#F0F0F0;}
	.st1{fill:none;stroke:#B4B4B5;stroke-width:0.25;}
	.st2{fill:none;stroke:#000000;stroke-width:0.5;stroke-linecap:square;stroke-miterlimit:10;}
	.st3{fill:#999999;stroke:#231815;stroke-width:0.5;stroke-miterlimit:10;}
	.st4{fill:none;stroke:#000000;stroke-width:0.5;stroke-miterlimit:10;}
	.st5{fill:none;stroke:#000000;stroke-width:2;stroke-linecap:round;stroke-miterlimit:10;}
	.st6{fill:#221F1F;}
	.st7{fill:#1A1A1A;}
	.st8{fill:#FFFFFF;}
	.st9{fill:#737373;}
	.st10{fill:#999999;}
	.st11{fill:#D9D9D9;}
	.st12{opacity:0.4;fill:url(#);}
	.st13{fill:url(#);}
	.st14{fill:#BAB9B6;}
	.st15{fill:#C4C3C0;}
	.st16{fill:#CECDCB;}
	.st17{fill:#D8D7D5;}
	.st18{fill:#E1E1E0;}
	.st19{fill:#EBEBEA;}
	.st20{fill:#F5F5F5;}
	.st21{opacity:0.1;fill-rule:evenodd;clip-rule:evenodd;fill:#1A1A1A;}
	.st22{opacity:0.1778;fill-rule:evenodd;clip-rule:evenodd;fill:#1A1A1A;}
	.st23{opacity:0.2556;fill-rule:evenodd;clip-rule:evenodd;fill:#1A1A1A;}
	.st24{opacity:0.3333;fill-rule:evenodd;clip-rule:evenodd;fill:#1A1A1A;}
	.st25{opacity:0.4111;fill-rule:evenodd;clip-rule:evenodd;fill:#1A1A1A;}
	.st26{opacity:0.4889;fill-rule:evenodd;clip-rule:evenodd;fill:#1A1A1A;}
	.st27{opacity:0.5667;fill-rule:evenodd;clip-rule:evenodd;fill:#1A1A1A;}
	.st28{opacity:0.6444;fill-rule:evenodd;clip-rule:evenodd;fill:#1A1A1A;}
	.st29{opacity:0.7222;fill-rule:evenodd;clip-rule:evenodd;fill:#1A1A1A;}
	.st30{opacity:0.8;fill-rule:evenodd;clip-rule:evenodd;fill:#1A1A1A;}
	.st31{fill-rule:evenodd;clip-rule:evenodd;fill:#FFFFFF;}
	.st32{fill:#040000;}
	.st33{fill:none;stroke:#FFFFFF;stroke-width:1.4173;}
	.st34{opacity:0.9;clip-path:url(#SVGID_2_);fill:url(#);}
	.st35{fill:#FFFFFF;stroke:#666666;stroke-width:0.5;}
	.st36{opacity:0.17;fill:#333333;}
	.st37{fill:#231815;}
	.st38{fill:#999999;stroke:#231815;stroke-width:0.5;}
	.st39{fill:none;stroke:#666666;stroke-width:0.5;stroke-miterlimit:10;}
	.st40{fill:#666666;}
	.st41{fill:none;}
	.st42{fill:none;stroke:#231815;stroke-width:0.5;}
	.st43{fill:none;stroke:#231815;stroke-width:0.5;stroke-linecap:square;}
	.st44{fill:#FFFFFF;stroke:#666666;stroke-width:0.5;stroke-linecap:square;}
	.st45{fill:#FFFFFF;stroke:#231815;stroke-width:0.25;stroke-miterlimit:10;}
	.st46{fill:none;stroke:#231815;stroke-width:0.75;stroke-dasharray:2,2;}
	.st47{fill:#FFFFFF;stroke:#231815;stroke-miterlimit:10;}
	.st48{fill:#B4B4B5;}
	.st49{fill:none;stroke:#B4B4B5;stroke-width:1.5;}
	.st50{fill:none;stroke:#231815;}
	.st51{fill:none;stroke:#231815;stroke-width:0.75;stroke-dasharray:2.5;}
	.st52{fill:none;stroke:#B4B4B5;stroke-width:1.5;stroke-miterlimit:10;}
	.st53{fill:#9E9E9F;}
	.st54{fill:none;stroke:#231815;stroke-miterlimit:10;}
	.st55{opacity:0.25;fill:#333333;}
	.st56{fill:none;stroke:#000000;stroke-miterlimit:10;}
	.st57{fill:#FFFFFF;stroke:#666666;stroke-width:0.5;stroke-miterlimit:10;}
	.st58{fill:#FFFFFF;stroke:#000000;stroke-width:0.5;stroke-miterlimit:10;}
	.st59{fill:#FFFFFF;stroke:#231815;stroke-width:0.5;}
</style>
<g id="레이어_3">
</g>
<g id="_x33_3">
</g>
<g id="_x33_2">
</g>
<g id="_x33_1">
</g>
<g id="_x33_0">
</g>
<g id="_x32_9">
	<rect class="st0" width="1060" height="330"/>
	<g>
		<path d="M396.8,22h-1.5v-5.7h-1.4c-0.1,1-0.5,1.8-1.1,2.4c-0.6,0.6-1.5,0.9-2.5,0.9c-1.1,0-2-0.4-2.7-1.1c-0.7-0.8-1-1.7-1-2.8
			c0-1.1,0.3-2,1-2.8s1.5-1.1,2.6-1.1c1,0,1.8,0.3,2.4,0.9c0.6,0.6,1,1.4,1.2,2.3h1.4v-4h1.5V22z M391.8,17.6
			c0.4-0.5,0.6-1.1,0.6-1.8c0-0.7-0.2-1.3-0.6-1.8c-0.4-0.5-0.9-0.7-1.5-0.7c-0.6,0-1.1,0.2-1.5,0.7c-0.4,0.5-0.6,1.1-0.6,1.8
			c0,0.7,0.2,1.3,0.6,1.8s0.9,0.7,1.5,0.7C390.9,18.3,391.4,18.1,391.8,17.6z M400.2,26h-10.8v-5h1.6v3.7h9.2V26z M399.8,22.4h-1.5
			V10.7h1.5V22.4z"/>
		<path d="M411.8,21.5l-0.9,1.2c-0.8-0.5-1.6-1.1-2.4-2c-0.8-0.9-1.3-1.7-1.5-2.6c-0.2,0.9-0.7,1.8-1.4,2.8
			c-0.7,0.9-1.6,1.7-2.5,2.2l-1-1.2c1.2-0.7,2.2-1.7,3-3s1.1-2.6,1.1-4.1v-1.3h-3.6v-1.3h8.7v1.3h-3.5v1.3c0,1.5,0.4,2.8,1.1,4
			C409.6,20,410.6,20.9,411.8,21.5z M413.5,10.7h1.6v15.7h-1.6V10.7z"/>
		<path d="M427.5,20.5l0.2,1.3c-0.9,0.2-2,0.4-3.5,0.5c-1.5,0.1-2.9,0.2-4.1,0.2h-1.5V12.4h1.6v8.8c1.1,0,2.4-0.1,3.8-0.2
			C425.5,20.9,426.6,20.7,427.5,20.5z M430.5,10.7v15.7H429V10.7H430.5z"/>
		<path d="M434.3,21.4c-0.7-1-1-2.4-1-4s0.3-3,1-4c0.7-1,1.7-1.5,3-1.5c1.2,0,2.2,0.4,2.8,1.3c0.7,0.9,1.1,2.1,1.2,3.5h3.2v-6h1.6
			v15.7h-1.6V18h-3.2c-0.1,1.5-0.5,2.7-1.1,3.6c-0.7,0.9-1.6,1.4-2.9,1.4C436,23,435,22.5,434.3,21.4z M439.8,17.4
			c0-1.3-0.2-2.3-0.6-3.1c-0.4-0.8-1-1.2-1.8-1.2c-0.8,0-1.4,0.4-1.8,1.2c-0.4,0.8-0.6,1.8-0.6,3.1c0,1.2,0.2,2.3,0.6,3
			c0.4,0.8,1,1.2,1.8,1.2c0.8,0,1.4-0.4,1.8-1.2C439.6,19.7,439.8,18.7,439.8,17.4z"/>
		<path d="M458.3,17.8l0.2,1.3c-1.5,0.3-3.6,0.5-6.4,0.5c-0.5,0-1.3,0-2.5,0v-4.7h5.7V13h-5.7v-1.3h7.3v4.4h-5.7v2.1
			c1.1,0,2.3,0,3.8-0.1C456.5,18.1,457.6,17.9,458.3,17.8z M460.4,21.3c0.9,0.5,1.4,1.3,1.4,2.2c0,0.9-0.5,1.7-1.4,2.2
			c-0.9,0.5-2.3,0.8-3.9,0.8c-1.7,0-3-0.3-4-0.8c-0.9-0.5-1.4-1.3-1.4-2.2c0-0.9,0.5-1.6,1.4-2.2c0.9-0.5,2.3-0.8,4-0.8
			C458.2,20.5,459.5,20.8,460.4,21.3z M459.2,22.2c-0.7-0.3-1.6-0.5-2.7-0.5c-1.2,0-2.1,0.2-2.7,0.5s-1,0.7-1,1.3
			c0,0.5,0.3,0.9,1,1.3c0.7,0.3,1.6,0.5,2.7,0.5c1.2,0,2.1-0.2,2.7-0.5c0.7-0.3,1-0.7,1-1.3C460.2,23,459.9,22.5,459.2,22.2z
			 M461.7,20.5h-1.6v-9.8h1.6V20.5z"/>
		<path d="M478.1,18.4l-0.9,1.3c-0.8-0.3-1.5-0.8-2.2-1.5c-0.7-0.7-1.2-1.4-1.5-2.1c-0.2,0.8-0.7,1.6-1.4,2.4
			c-0.7,0.8-1.5,1.4-2.3,1.7l-1-1.3c1.1-0.5,2-1.2,2.8-2.2c0.8-1,1.1-2.1,1.1-3.3v-1.8h1.6v1.7c0,1.2,0.4,2.3,1.2,3.2
			C476.1,17.4,477,18,478.1,18.4z M481.9,26h-10.5V21h1.6v3.7h8.9V26z M483.6,16.8h-2.4v5.4h-1.6V10.7h1.6v4.7h2.4V16.8z"/>
		<path d="M486,12.5c0.8-0.7,1.7-1,2.9-1c1.1,0,2.1,0.3,2.9,1s1.1,1.6,1.1,2.6s-0.4,1.9-1.1,2.6c-0.8,0.7-1.7,1-2.9,1
			c-1.1,0-2.1-0.3-2.9-1c-0.8-0.7-1.1-1.5-1.1-2.6C484.8,14.1,485.2,13.2,486,12.5z M488.8,12.8c-0.7,0-1.3,0.2-1.7,0.6
			s-0.7,1-0.7,1.7c0,0.7,0.2,1.2,0.7,1.6c0.5,0.4,1,0.6,1.7,0.6c0.7,0,1.3-0.2,1.7-0.6c0.4-0.4,0.7-0.9,0.7-1.6
			c0-0.7-0.2-1.3-0.7-1.7S489.5,12.8,488.8,12.8z M497.6,26.3h-10.1V20h1.6v1.9h6.9V20h1.6V26.3z M496,25v-1.9H489V25H496z
			 M496,15.7h-2.5v-1.3h2.5v-3.7h1.6v8.4H496V15.7z"/>
		<path d="M514.7,21.5l-0.9,1.2c-0.8-0.5-1.6-1.1-2.4-2c-0.8-0.9-1.3-1.7-1.5-2.6c-0.2,0.9-0.7,1.8-1.4,2.8
			c-0.7,0.9-1.6,1.7-2.5,2.2l-1-1.2c1.2-0.7,2.2-1.7,3-3s1.1-2.6,1.1-4.1v-1.3h-3.6v-1.3h8.7v1.3h-3.5v1.3c0,1.5,0.4,2.8,1.1,4
			S513.5,20.9,514.7,21.5z M516.4,10.7h1.6v15.7h-1.6V10.7z"/>
		<path d="M521.9,12.6c0.8-0.7,1.7-1.1,2.8-1.1s2.1,0.4,2.8,1.1c0.8,0.7,1.2,1.6,1.2,2.7s-0.4,2-1.2,2.7c-0.8,0.7-1.7,1-2.8,1
			c-1.1,0-2.1-0.3-2.8-1c-0.8-0.7-1.2-1.6-1.2-2.7C520.7,14.3,521.1,13.4,521.9,12.6z M524.7,12.9c-0.7,0-1.3,0.2-1.7,0.7
			c-0.4,0.5-0.7,1-0.7,1.7c0,0.7,0.2,1.3,0.7,1.7c0.5,0.5,1,0.7,1.7,0.7c0.7,0,1.3-0.2,1.7-0.7c0.4-0.4,0.7-1,0.7-1.7
			c0-0.7-0.2-1.3-0.7-1.7C526,13.1,525.4,12.9,524.7,12.9z M522.8,20.7h10.7v5.8h-1.6V22h-9.1V20.7z M529.2,14.1l0-1.3h2.7v-2.1h1.6
			v9.2h-1.6v-2.1h-2.7l0-1.3h2.7v-2.4H529.2z"/>
		<path d="M543.9,18.6h-7.1v-7.1h1.6v2.3h4v-2.3h1.6V18.6z M542.3,17.3V15h-4v2.3H542.3z M549.6,26.4h-10.8v-4h8.6v-1.4h-8.7v-1.3
			H549v3.9h-8.7V25h9.2V26.4z M549,10.7v8.2h-1.6V17h-2.7v-1.3h2.7v-1.7h-2.7v-1.3h2.7v-2.1H549z"/>
		<path d="M564.3,15.9h-7.8v-1.3h7.8V15.9z M563.9,19.7c0,0.9-0.3,1.7-1,2.3s-1.5,0.8-2.5,0.8c-1,0-1.9-0.3-2.5-0.9
			c-0.6-0.6-1-1.3-1-2.2c0-0.9,0.3-1.7,1-2.2c0.6-0.6,1.5-0.8,2.5-0.8s1.9,0.3,2.5,0.8S563.9,18.8,563.9,19.7z M562.4,13.2h-4.2
			v-1.3h4.2V13.2z M561.8,21c0.4-0.3,0.5-0.8,0.5-1.3s-0.2-0.9-0.5-1.3c-0.4-0.3-0.8-0.5-1.4-0.5c-0.6,0-1,0.2-1.4,0.5
			c-0.4,0.3-0.5,0.8-0.5,1.3c0,0.5,0.2,1,0.5,1.3c0.4,0.3,0.8,0.5,1.4,0.5C561,21.5,561.5,21.4,561.8,21z M569.7,26.5h-1.5v-7.9
			h-1.6v7.1H565V11.1h1.5v6.2h1.6v-6.5h1.5V26.5z"/>
		<path d="M582.6,22.7c-1.5,0.2-3.3,0.3-5.2,0.4c-1.8,0.1-3.6,0.1-5.1,0.1l-0.2-1.4c1.8,0,3.3,0,4.3,0v-2.5c-1-0.1-1.9-0.5-2.5-1.2
			c-0.7-0.7-1-1.5-1-2.5c0-1.1,0.4-2,1.2-2.8s1.8-1.1,3.1-1.1c1.2,0,2.3,0.4,3.1,1.1c0.8,0.7,1.2,1.6,1.2,2.8c0,1-0.3,1.8-1,2.4
			c-0.6,0.7-1.5,1.1-2.5,1.2v2.4c2.1-0.1,3.6-0.2,4.5-0.3L582.6,22.7z M579.7,15.7c0-0.7-0.3-1.3-0.8-1.8s-1.1-0.7-1.9-0.7
			c-0.7,0-1.4,0.2-1.9,0.7s-0.8,1-0.8,1.8c0,0.7,0.3,1.3,0.8,1.7c0.5,0.4,1.1,0.7,1.9,0.7c0.7,0,1.4-0.2,1.9-0.7
			C579.5,16.9,579.7,16.4,579.7,15.7z M585,26.5h-1.6V10.7h1.6V26.5z"/>
		<path d="M600.2,26.5h-1.6v-5.7h-6.3v-1.3h14.2v1.3h-6.3V26.5z M606,16.7l-0.8,1.3c-1.2-0.2-2.4-0.7-3.5-1.4
			c-1.1-0.7-1.9-1.5-2.3-2.3c-0.3,0.8-1.1,1.6-2.2,2.3c-1.1,0.7-2.3,1.2-3.6,1.4l-0.7-1.3c1.5-0.2,2.8-0.7,4-1.6s1.7-1.8,1.7-2.9v-1
			h1.7v1c0,0.7,0.3,1.4,0.9,2.1c0.6,0.7,1.3,1.2,2.2,1.7C604.2,16.3,605.1,16.6,606,16.7z"/>
		<path d="M615.7,26.5h-1.6v-5.5h-6.3v-1.3h14.2v1.3h-6.3V26.5z M621.4,16.9l-0.7,1.3c-1.2-0.2-2.3-0.6-3.5-1.3
			c-1.1-0.6-1.9-1.3-2.3-2.1c-0.3,0.7-1.1,1.4-2.2,2.1c-1.1,0.7-2.3,1.1-3.5,1.3l-0.8-1.3c1.3-0.1,2.6-0.6,3.7-1.3
			c1.2-0.7,1.8-1.6,1.9-2.5h-5v-1.3h11.6v1.3h-5c0.1,0.9,0.8,1.8,1.9,2.5C618.9,16.3,620.2,16.8,621.4,16.9z"/>
		<path d="M631,15.4c0,1.1-0.3,2-1,2.7c-0.7,0.7-1.5,1.1-2.7,1.1c-1.1,0-2-0.4-2.7-1.1s-1-1.6-1-2.7c0-1.1,0.3-2,1-2.7
			c0.7-0.7,1.6-1.1,2.7-1.1s2,0.3,2.7,1S631,14.3,631,15.4z M629.4,15.4c0-0.7-0.2-1.3-0.6-1.7c-0.4-0.4-0.9-0.7-1.5-0.7
			c-0.6,0-1.1,0.2-1.5,0.7c-0.4,0.4-0.6,1-0.6,1.7c0,0.7,0.2,1.2,0.6,1.7c0.4,0.4,0.9,0.7,1.5,0.7c0.6,0,1.1-0.2,1.5-0.7
			C629.2,16.6,629.4,16.1,629.4,15.4z M636.7,26.5h-1.6v-4.4H626v-1.3h10.7V26.5z M636.7,20h-1.5v-4h-1.7v3.9H632V11h1.5v3.7h1.7
			v-3.9h1.5V20z"/>
		<path d="M651.6,26.5H650v-4.9h-6.3v-1.3h14.2v1.3h-6.3V26.5z M657.2,17.9l-0.7,1.3c-1.2-0.2-2.3-0.6-3.4-1.1s-1.8-1.2-2.3-2
			c-0.4,0.7-1.1,1.4-2.1,2s-2.2,1-3.5,1.2l-0.7-1.3c0.8-0.1,1.6-0.3,2.4-0.5c0.8-0.3,1.4-0.6,2-1.1c0.6-0.5,0.9-1,1.1-1.5h-4.8v-1.3
			h11.3v1.3h-4.8c0.2,0.8,0.9,1.5,2,2.1C654.8,17.4,656,17.8,657.2,17.9z M653.4,12.2h-5.1v-1.3h5.1V12.2z"/>
		<path d="M659.9,17.5c0-1.6,0.3-3,1-4c0.7-1,1.7-1.5,3-1.5s2.3,0.5,3,1.5c0.7,1,1,2.4,1,4c0,1.7-0.3,3-1,4c-0.7,1-1.7,1.5-3,1.5
			s-2.3-0.5-3-1.5C660.2,20.5,659.9,19.1,659.9,17.5z M665.7,20.5c0.4-0.8,0.6-1.8,0.6-3c0-1.3-0.2-2.3-0.6-3
			c-0.4-0.8-1-1.2-1.8-1.2c-0.8,0-1.4,0.4-1.8,1.2c-0.4,0.8-0.6,1.8-0.6,3c0,1.3,0.2,2.3,0.6,3c0.4,0.8,1,1.1,1.8,1.1
			C664.7,21.7,665.3,21.3,665.7,20.5z M672.3,26.5h-1.6V10.7h1.6V26.5z"/>
	</g>
	<rect x="251.2" y="62" class="st8" width="557.6" height="258"/>
	<rect x="251.2" y="62" class="st36" width="557.6" height="34.4"/>
	<g>
		<g>
			<path d="M254.8,48.2c-1.8-1.9-2.6-4-2.6-6.5v-0.3c0-2.5,0.9-4.7,2.6-6.5h0.9c-0.7,0.9-1.3,1.8-1.8,2.9s-0.7,2.3-0.7,3.5v0.4
				c0,1.2,0.2,2.4,0.7,3.5c0.5,1.1,1.1,2.1,1.8,3H254.8z"/>
			<path d="M265,41.6c-1.6,0.3-4.1,0.5-7.5,0.5v-6.4h6.2v0.9h-5.2v4.6c1.1,0,2.3,0,3.5-0.1c1.2-0.1,2.2-0.2,2.9-0.4L265,41.6z
				 M268.2,47.9h-9.2v-4.2h1V47h8.1V47.9z M269.8,39.4h-2.2v5.2h-1V34.4h1v4.1h2.2V39.4z"/>
			<path d="M275.8,47.9h-1v-5c-0.4,0-1.8,0.1-4,0.1l-0.2-0.9c1.8,0,3.4,0,4.7-0.1c1.9-0.1,3.5-0.2,4.7-0.3l0.1,0.8
				c-0.9,0.1-2.3,0.2-4.4,0.3V47.9z M278.8,38c0,0.8-0.3,1.5-1,2c-0.7,0.5-1.5,0.8-2.6,0.8s-1.9-0.3-2.6-0.8c-0.7-0.5-1-1.2-1-2
				c0-0.9,0.3-1.6,1-2.1c0.7-0.5,1.5-0.8,2.6-0.8c1,0,1.9,0.3,2.6,0.8C278.5,36.4,278.8,37.1,278.8,38z M277.8,38
				c0-0.6-0.2-1.1-0.7-1.5S276,36,275.3,36s-1.4,0.2-1.8,0.5s-0.7,0.8-0.7,1.5c0,0.6,0.2,1.1,0.7,1.4s1.1,0.5,1.8,0.5
				c0.7,0,1.3-0.2,1.8-0.5S277.8,38.6,277.8,38z M282.1,48.4h-1v-14h1V48.4z"/>
			<path d="M289.9,39.5v-1.3h1.3v1.3H289.9z M289.9,45.7v-1.3h1.3v1.3H289.9z"/>
			<path d="M301.3,35.2c1,0,1.8,0.3,2.5,0.9c0.7,0.6,1,1.4,1,2.4c0,1-0.3,1.8-1,2.4s-1.5,0.9-2.5,0.9c-1,0-1.8-0.3-2.5-0.9
				c-0.7-0.6-1-1.4-1-2.4c0-1,0.3-1.8,1-2.4S300.3,35.2,301.3,35.2z M301.3,36.1c-0.7,0-1.3,0.2-1.8,0.7c-0.5,0.4-0.7,1-0.7,1.7
				c0,0.7,0.2,1.3,0.7,1.7c0.5,0.4,1,0.7,1.8,0.7c0.7,0,1.3-0.2,1.8-0.7c0.4-0.4,0.7-1,0.7-1.7s-0.2-1.3-0.7-1.7
				C302.6,36.3,302,36.1,301.3,36.1z M309,48.4h-1v-4.1h-8.2v-0.9h9.3V48.4z M307.9,38.9h-2.6V38h2.6v-3.6h1v8.3h-1V38.9z"/>
			<path d="M320.5,44.4h-1v-2.5c-0.5,0-1.8,0.1-3.8,0.1l-0.2-0.9c1.1,0,2.6,0,4.7-0.1c2-0.1,3.5-0.2,4.4-0.3l0.1,0.8
				c-0.5,0.1-1.8,0.2-4.2,0.3V44.4z M322.5,35.8c0.7,0.5,1,1.1,1,1.9c0,0.8-0.3,1.4-1,1.8s-1.5,0.7-2.6,0.7s-1.9-0.2-2.6-0.7
				s-1-1.1-1-1.8c0-0.8,0.3-1.4,1-1.9c0.7-0.5,1.5-0.7,2.6-0.7C321,35.1,321.9,35.3,322.5,35.8z M322.5,37.6c0-0.5-0.2-0.9-0.7-1.2
				c-0.5-0.3-1.1-0.5-1.8-0.5s-1.4,0.1-1.8,0.4c-0.5,0.3-0.7,0.7-0.7,1.2c0,0.5,0.2,0.9,0.7,1.2c0.5,0.3,1.1,0.4,1.8,0.4
				s1.4-0.1,1.8-0.4C322.3,38.5,322.5,38.1,322.5,37.6z M327.3,48h-9.8v-4h1v3.1h8.8V48z M327,45.1h-1v-1.6h-2.8v-0.9h2.8v-8.3h1
				V45.1z"/>
			<path d="M329.2,48.2c0.7-0.9,1.3-1.8,1.8-2.9c0.5-1.1,0.7-2.3,0.7-3.5v-0.4c0-1.2-0.2-2.4-0.7-3.5c-0.5-1.1-1.1-2.1-1.8-3h0.9
				c1.8,1.9,2.6,4,2.6,6.5v0.3c0,2.5-0.9,4.6-2.6,6.5H329.2z"/>
		</g>
	</g>
	<g>
		<path d="M285,82.6l-0.8,1.1c-0.7-0.4-1.4-1-2.1-1.8c-0.7-0.8-1.1-1.5-1.3-2.3c-0.2,0.8-0.6,1.6-1.3,2.5c-0.7,0.8-1.4,1.5-2.2,2
			l-0.9-1c1.1-0.7,2-1.5,2.7-2.6s1-2.3,1-3.6v-1.1h-3.2v-1.2h7.8v1.2h-3.1v1.1c0,1.3,0.3,2.5,1,3.5C283.1,81.2,284,82,285,82.6z
			 M286.5,73h1.4v14h-1.4V73z"/>
		<path d="M291.4,74.7c0.7-0.6,1.5-1,2.5-1s1.8,0.3,2.5,0.9s1,1.4,1,2.4s-0.3,1.8-1,2.4c-0.7,0.6-1.5,0.9-2.5,0.9
			c-1,0-1.8-0.3-2.5-0.9c-0.7-0.6-1-1.4-1-2.4C290.4,76.1,290.7,75.3,291.4,74.7z M293.9,74.9c-0.6,0-1.1,0.2-1.5,0.6
			c-0.4,0.4-0.6,0.9-0.6,1.5c0,0.6,0.2,1.1,0.6,1.5c0.4,0.4,0.9,0.6,1.5,0.6c0.6,0,1.2-0.2,1.6-0.6s0.6-0.9,0.6-1.5
			s-0.2-1.1-0.6-1.5C295.1,75.1,294.6,74.9,293.9,74.9z M292.2,81.9h9.5V87h-1.4v-4h-8.1V81.9z M297.9,76l0-1.2h2.4V73h1.4v8.1h-1.4
			v-1.9h-2.4l0-1.2h2.4V76H297.9z"/>
	</g>
	<g>
		<path d="M380.2,118.2v-9.6l-2,0.5v-0.7l2.5-1.2h0.6v11H380.2z"/>
		<path d="M383.2,120.2l0.6-3.1h1.3l-1.2,3.1H383.2z"/>
		<path d="M391,118.3c-1.1,0-2-0.3-2.7-0.8c-0.7-0.5-1-1.3-1-2.1c0-0.7,0.2-1.2,0.7-1.7c0.5-0.5,1.1-0.9,1.7-1.1
			c-1.4-0.5-2.1-1.4-2.1-2.6c0-0.8,0.3-1.4,0.9-1.9c0.6-0.5,1.4-0.8,2.4-0.8s1.8,0.2,2.4,0.7c0.6,0.5,0.9,1.1,0.9,1.9
			c0,0.6-0.2,1.1-0.6,1.5c-0.4,0.4-0.9,0.8-1.6,1.1c1.8,0.6,2.6,1.5,2.6,2.8c0,0.9-0.3,1.6-1,2.2C393,118.1,392.1,118.3,391,118.3z
			 M391,117.4c0.7,0,1.3-0.2,1.8-0.5s0.7-0.8,0.7-1.4c0-0.6-0.2-1.1-0.6-1.4s-1.1-0.7-2.2-1c-0.6,0.2-1.1,0.5-1.5,0.9
			c-0.4,0.4-0.6,0.9-0.6,1.4c0,0.6,0.2,1.1,0.7,1.4C389.6,117.2,390.2,117.4,391,117.4z M391.1,112.1c1.2-0.6,1.8-1.3,1.8-2.2
			c0-0.5-0.2-0.9-0.5-1.2c-0.4-0.3-0.9-0.5-1.5-0.5c-0.6,0-1.1,0.1-1.5,0.4c-0.4,0.3-0.6,0.7-0.6,1.2
			C388.8,110.9,389.6,111.6,391.1,112.1z"/>
		<path d="M400.6,118.3c-1.2,0-2.1-0.4-2.8-1.3c-0.7-0.8-1.1-2.1-1.1-3.8v-0.9c0-1.8,0.4-3,1.1-3.8c0.7-0.8,1.6-1.2,2.8-1.2
			c1.1,0,2.1,0.4,2.7,1.2c0.7,0.8,1,2,1,3.8v1c0,1.7-0.3,3-1,3.8S401.7,118.3,400.6,118.3z M400.6,117.4c0.9,0,1.5-0.3,2-0.9
			c0.4-0.6,0.7-1.6,0.7-3v-1.2c0-2.6-0.9-4-2.6-4c-1.8,0-2.7,1.3-2.7,3.9v1.2C397.9,116,398.8,117.4,400.6,117.4z"/>
		<path d="M406.6,118.1v-0.7l2.6-2.7c0.9-0.9,1.5-1.7,1.9-2.3c0.4-0.6,0.6-1.3,0.6-2c0-0.7-0.2-1.3-0.5-1.6
			c-0.4-0.4-0.9-0.5-1.7-0.5c-0.8,0-1.6,0.3-2.4,0.9l-0.4-0.9c1-0.7,2-1,2.9-1c1,0,1.9,0.3,2.4,0.8c0.6,0.6,0.9,1.3,0.9,2.3
			c0,0.8-0.2,1.6-0.7,2.3c-0.4,0.7-1.2,1.6-2.3,2.7l-1.8,1.8h5v1H406.6z"/>
	</g>
	<g>
		<path d="M385,150.3v-2.6h-5v-0.9l5.1-7.7h0.9v7.6h1.9v1h-1.9v2.6H385z M381.1,146.8h3.9V141L381.1,146.8z"/>
		<path d="M388.5,152.1l0.6-3.1h1.3l-1.2,3.1H388.5z"/>
		<path d="M394.5,150.1v-9.6l-2,0.5v-0.7l2.5-1.2h0.6v11H394.5z"/>
		<path d="M400.8,150.2c-1.2,0-2.2-0.3-3-0.8l0.2-0.9c0.3,0.2,0.7,0.4,1.2,0.5c0.5,0.2,0.9,0.2,1.4,0.2c0.9,0,1.5-0.2,2-0.7
			c0.5-0.5,0.7-1.1,0.7-1.9c0-1.6-0.9-2.4-2.7-2.4c-0.7,0-1.5,0.2-2.2,0.5l0.4-5.6h5.4v1h-4.4l-0.2,3.4c0.5-0.1,1.1-0.2,1.6-0.2
			c2.3,0,3.5,1.1,3.5,3.2c0,1-0.3,1.8-1,2.5C402.9,149.9,402,150.2,400.8,150.2z"/>
		<path d="M409.9,150.2c-1.2,0-2.1-0.4-2.7-1.2s-0.9-2-0.9-3.6v-0.8c0-1.8,0.4-3.2,1.1-4.1c0.7-0.9,1.7-1.3,3-1.3
			c1,0,1.8,0.2,2.5,0.6l-0.4,0.8c-0.2-0.1-0.5-0.2-0.9-0.3c-0.4-0.1-0.8-0.2-1.1-0.2c-1,0-1.7,0.3-2.2,1c-0.5,0.6-0.8,1.8-0.8,3.5
			c0.7-0.8,1.6-1.2,2.7-1.2c0.9,0,1.7,0.3,2.3,0.9c0.6,0.6,0.9,1.4,0.9,2.4c0,1-0.3,1.9-0.9,2.6S410.9,150.2,409.9,150.2z
			 M409.9,149.2c0.7,0,1.3-0.2,1.7-0.7c0.4-0.4,0.6-1.1,0.6-1.8c0-0.8-0.2-1.4-0.6-1.8c-0.4-0.4-1-0.6-1.7-0.6c-0.5,0-1,0.1-1.4,0.4
			c-0.4,0.3-0.8,0.6-1.1,1v0.1C407.4,148.1,408.2,149.2,409.9,149.2z"/>
	</g>
	<g>
		<path d="M402.7,182v-9.6l-2,0.5v-0.7l2.5-1.2h0.6v11H402.7z"/>
		<path d="M409.2,182c-1.2,0-2.2-0.3-2.9-0.8l0.3-0.9c0.3,0.2,0.7,0.4,1.2,0.5s0.9,0.2,1.3,0.2c0.9,0,1.6-0.2,2.1-0.6
			c0.5-0.4,0.7-0.9,0.7-1.6s-0.2-1.2-0.7-1.6c-0.5-0.4-1.2-0.5-2-0.5h-1v-1h1c0.7,0,1.3-0.2,1.7-0.5c0.4-0.4,0.7-0.8,0.7-1.5
			c0-1.2-0.7-1.8-2.2-1.8c-0.7,0-1.5,0.3-2.4,0.8l-0.2-0.9c0.3-0.2,0.7-0.4,1.3-0.6c0.6-0.2,1.1-0.3,1.5-0.3c1,0,1.7,0.2,2.3,0.7
			c0.6,0.5,0.9,1.1,0.9,1.9c0,1.2-0.7,2.1-2,2.5c1.6,0.3,2.4,1.2,2.4,2.7c0,0.9-0.4,1.7-1.1,2.3S410.4,182,409.2,182z"/>
	</g>
	<g>
		<path d="M391.7,213.8l4.3-9.8h-5.6v-1h6.8v0.7l-4.3,10H391.7z"/>
		<path d="M401.1,213.9c-1.2,0-2.2-0.3-3-0.8l0.2-0.9c0.3,0.2,0.7,0.4,1.2,0.5c0.5,0.2,0.9,0.2,1.4,0.2c0.9,0,1.5-0.2,2-0.7
			s0.7-1.1,0.7-1.9c0-1.6-0.9-2.4-2.7-2.4c-0.7,0-1.5,0.2-2.2,0.5l0.4-5.6h5.4v1H400l-0.2,3.4c0.5-0.1,1.1-0.2,1.6-0.2
			c2.3,0,3.5,1.1,3.5,3.2c0,1-0.3,1.8-1,2.5C403.1,213.6,402.2,213.9,401.1,213.9z"/>
		<path d="M406.6,213.7V213l2.6-2.7c0.9-0.9,1.5-1.7,1.9-2.3c0.4-0.6,0.6-1.3,0.6-2c0-0.7-0.2-1.3-0.5-1.6c-0.4-0.4-0.9-0.5-1.7-0.5
			c-0.8,0-1.6,0.3-2.4,0.9l-0.4-0.9c1-0.7,2-1,2.9-1c1,0,1.9,0.3,2.4,0.8s0.9,1.3,0.9,2.3c0,0.8-0.2,1.6-0.7,2.3
			c-0.4,0.7-1.2,1.6-2.3,2.7l-1.8,1.8h5v1H406.6z"/>
	</g>
	<g>
		<path d="M393.1,245.9v-2.6h-5v-0.9l5.1-7.7h0.9v7.6h1.9v1h-1.9v2.6H393.1z M389.2,242.3h3.9v-5.8L389.2,242.3z"/>
		<path d="M402,245.9v-2.6h-5v-0.9l5.1-7.7h0.9v7.6h1.9v1H403v2.6H402z M398.1,242.3h3.9v-5.8L398.1,242.3z"/>
		<path d="M410.8,245.9v-2.6h-5v-0.9l5.1-7.7h0.9v7.6h1.9v1h-1.9v2.6H410.8z M407,242.3h3.9v-5.8L407,242.3z"/>
	</g>
	<g>
		<path d="M396.4,277.6c-1.2,0-2.1-0.4-2.7-1.2s-0.9-2-0.9-3.6V272c0-1.8,0.4-3.2,1.1-4.1s1.7-1.3,3-1.3c1,0,1.8,0.2,2.5,0.6
			L399,268c-0.2-0.1-0.5-0.2-0.9-0.3c-0.4-0.1-0.8-0.2-1.1-0.2c-1,0-1.7,0.3-2.2,1s-0.8,1.8-0.8,3.5c0.7-0.8,1.6-1.2,2.7-1.2
			c0.9,0,1.7,0.3,2.3,0.9c0.6,0.6,0.9,1.4,0.9,2.4c0,1-0.3,1.9-0.9,2.6S397.4,277.6,396.4,277.6z M396.4,276.7
			c0.7,0,1.3-0.2,1.7-0.7c0.4-0.4,0.6-1.1,0.6-1.8c0-0.8-0.2-1.4-0.6-1.8c-0.4-0.4-1-0.6-1.7-0.6c-0.5,0-1,0.1-1.4,0.4
			c-0.4,0.3-0.8,0.6-1.1,1v0.1C393.9,275.5,394.8,276.7,396.4,276.7z"/>
		<path d="M403.5,277.5v-9.6l-2,0.5v-0.7l2.5-1.2h0.6v11H403.5z"/>
		<path d="M408.2,277.5l4.3-9.8h-5.6v-1h6.8v0.7l-4.3,10H408.2z"/>
	</g>
	<g>
		<path d="M379,309.4l4.3-9.8h-5.6v-1h6.8v0.7l-4.3,10H379z"/>
		<path d="M385.2,311.4l0.6-3.1h1.3l-1.2,3.1H385.2z"/>
		<path d="M390.1,309.4l4.3-9.8h-5.6v-1h6.8v0.7l-4.3,10H390.1z"/>
		<path d="M400.6,309.5c-1.1,0-2-0.3-2.7-0.8c-0.7-0.5-1-1.3-1-2.1c0-0.7,0.2-1.2,0.7-1.7s1.1-0.9,1.7-1.1c-1.4-0.5-2.1-1.4-2.1-2.6
			c0-0.8,0.3-1.4,0.9-1.9c0.6-0.5,1.4-0.8,2.4-0.8s1.8,0.2,2.4,0.7c0.6,0.5,0.9,1.1,0.9,1.9c0,0.6-0.2,1.1-0.6,1.5
			c-0.4,0.4-0.9,0.8-1.6,1.1c1.8,0.6,2.6,1.5,2.6,2.8c0,0.9-0.3,1.6-1,2.2C402.6,309.2,401.8,309.5,400.6,309.5z M400.6,308.5
			c0.7,0,1.3-0.2,1.8-0.5s0.7-0.8,0.7-1.4c0-0.6-0.2-1.1-0.6-1.4c-0.4-0.3-1.1-0.7-2.2-1c-0.6,0.2-1.1,0.5-1.5,0.9
			c-0.4,0.4-0.6,0.9-0.6,1.4c0,0.6,0.2,1.1,0.7,1.4C399.3,308.4,399.9,308.5,400.6,308.5z M400.8,303.2c1.2-0.6,1.8-1.3,1.8-2.2
			c0-0.5-0.2-0.9-0.5-1.2c-0.4-0.3-0.9-0.5-1.5-0.5c-0.6,0-1.1,0.1-1.5,0.4c-0.4,0.3-0.6,0.7-0.6,1.2
			C398.5,302.1,399.3,302.8,400.8,303.2z"/>
		<path d="M410.8,309.6V307h-5v-0.9l5.1-7.7h0.9v7.6h1.9v1h-1.9v2.6H410.8z M407,306.1h3.9v-5.8L407,306.1z"/>
	</g>
	<g>
		<path d="M474.9,118.3c-1.2,0-2.2-0.3-3-0.8l0.2-0.9c0.3,0.2,0.7,0.4,1.2,0.5s0.9,0.2,1.4,0.2c0.9,0,1.5-0.2,2-0.7
			c0.5-0.5,0.7-1.1,0.7-1.9c0-1.6-0.9-2.4-2.7-2.4c-0.7,0-1.5,0.2-2.2,0.5l0.4-5.6h5.4v1h-4.4l-0.2,3.4c0.5-0.1,1.1-0.2,1.6-0.2
			c2.3,0,3.5,1.1,3.5,3.2c0,1-0.3,1.8-1,2.5C476.9,118,476,118.3,474.9,118.3z"/>
		<path d="M479.6,120.2l0.6-3.1h1.3l-1.2,3.1H479.6z"/>
		<path d="M483.8,118.1v-0.7l2.6-2.7c0.9-0.9,1.5-1.7,1.9-2.3c0.4-0.6,0.6-1.3,0.6-2c0-0.7-0.2-1.3-0.5-1.6
			c-0.4-0.4-0.9-0.5-1.7-0.5c-0.8,0-1.6,0.3-2.4,0.9l-0.4-0.9c1-0.7,2-1,2.9-1c1,0,1.9,0.3,2.4,0.8c0.6,0.6,0.9,1.3,0.9,2.3
			c0,0.8-0.2,1.6-0.7,2.3c-0.4,0.7-1.2,1.6-2.3,2.7l-1.8,1.8h5v1H483.8z"/>
		<path d="M495.8,118.3c-1.1,0-2-0.3-2.7-0.8c-0.7-0.5-1-1.3-1-2.1c0-0.7,0.2-1.2,0.7-1.7c0.5-0.5,1.1-0.9,1.7-1.1
			c-1.4-0.5-2.1-1.4-2.1-2.6c0-0.8,0.3-1.4,0.9-1.9c0.6-0.5,1.4-0.8,2.4-0.8s1.8,0.2,2.4,0.7s0.9,1.1,0.9,1.9c0,0.6-0.2,1.1-0.6,1.5
			c-0.4,0.4-0.9,0.8-1.6,1.1c1.7,0.6,2.6,1.5,2.6,2.8c0,0.9-0.3,1.6-1,2.2C497.9,118.1,497,118.3,495.8,118.3z M495.8,117.4
			c0.7,0,1.3-0.2,1.8-0.5s0.7-0.8,0.7-1.4c0-0.6-0.2-1.1-0.6-1.4s-1.1-0.7-2.2-1c-0.6,0.2-1.1,0.5-1.5,0.9c-0.4,0.4-0.6,0.9-0.6,1.4
			c0,0.6,0.2,1.1,0.7,1.4C494.5,117.2,495.1,117.4,495.8,117.4z M496,112.1c1.2-0.6,1.8-1.3,1.8-2.2c0-0.5-0.2-0.9-0.5-1.2
			c-0.4-0.3-0.9-0.5-1.5-0.5c-0.6,0-1.1,0.1-1.5,0.4c-0.4,0.3-0.6,0.7-0.6,1.2C493.7,110.9,494.5,111.6,496,112.1z"/>
		<path d="M505.5,118.3c-1.2,0-2.1-0.4-2.8-1.3c-0.7-0.8-1.1-2.1-1.1-3.8v-0.9c0-1.8,0.4-3,1.1-3.8c0.7-0.8,1.6-1.2,2.8-1.2
			c1.1,0,2.1,0.4,2.7,1.2c0.7,0.8,1,2,1,3.8v1c0,1.7-0.3,3-1,3.8C507.5,117.9,506.6,118.3,505.5,118.3z M505.5,117.4
			c0.9,0,1.5-0.3,2-0.9c0.4-0.6,0.7-1.6,0.7-3v-1.2c0-2.6-0.9-4-2.6-4c-1.8,0-2.7,1.3-2.7,3.9v1.2
			C502.8,116,503.7,117.4,505.5,117.4z"/>
	</g>
	<g>
		<path d="M488.9,150.2c-1.2,0-2.1-0.4-2.7-1.2s-0.9-2-0.9-3.6v-0.8c0-1.8,0.4-3.2,1.1-4.1s1.7-1.3,3-1.3c1,0,1.8,0.2,2.5,0.6
			l-0.4,0.8c-0.2-0.1-0.5-0.2-0.9-0.3c-0.4-0.1-0.8-0.2-1.1-0.2c-1,0-1.7,0.3-2.2,1c-0.5,0.6-0.8,1.8-0.8,3.5
			c0.7-0.8,1.6-1.2,2.7-1.2c0.9,0,1.7,0.3,2.3,0.9c0.6,0.6,0.9,1.4,0.9,2.4c0,1-0.3,1.9-0.9,2.6S489.9,150.2,488.9,150.2z
			 M488.9,149.2c0.7,0,1.3-0.2,1.7-0.7c0.4-0.4,0.6-1.1,0.6-1.8c0-0.8-0.2-1.4-0.6-1.8c-0.4-0.4-1-0.6-1.7-0.6c-0.5,0-1,0.1-1.4,0.4
			c-0.4,0.3-0.8,0.6-1.1,1v0.1C486.4,148.1,487.2,149.2,488.9,149.2z"/>
		<path d="M496.8,150.2c-1.2,0-2.2-0.3-2.9-0.8l0.3-0.9c0.3,0.2,0.7,0.4,1.2,0.5c0.5,0.1,0.9,0.2,1.3,0.2c0.9,0,1.6-0.2,2.1-0.6
			s0.7-0.9,0.7-1.6s-0.2-1.2-0.7-1.6c-0.5-0.4-1.2-0.5-2-0.5h-1v-1h1c0.7,0,1.3-0.2,1.7-0.5c0.4-0.4,0.7-0.8,0.7-1.5
			c0-1.2-0.7-1.8-2.2-1.8c-0.7,0-1.5,0.3-2.4,0.8l-0.2-0.9c0.3-0.2,0.7-0.4,1.3-0.6s1.1-0.3,1.5-0.3c1,0,1.7,0.2,2.3,0.7
			c0.6,0.5,0.9,1.1,0.9,1.9c0,1.2-0.7,2.1-2,2.5c1.6,0.3,2.4,1.2,2.4,2.7c0,0.9-0.4,1.7-1.1,2.3C498.9,149.9,498,150.2,496.8,150.2z
			"/>
		<path d="M506.2,150.2c-1.2,0-2.1-0.4-2.7-1.2s-0.9-2-0.9-3.6v-0.8c0-1.8,0.4-3.2,1.1-4.1c0.7-0.9,1.7-1.3,3-1.3
			c1,0,1.8,0.2,2.5,0.6l-0.4,0.8c-0.2-0.1-0.5-0.2-0.9-0.3c-0.4-0.1-0.8-0.2-1.1-0.2c-1,0-1.7,0.3-2.2,1c-0.5,0.6-0.8,1.8-0.8,3.5
			c0.7-0.8,1.6-1.2,2.7-1.2c0.9,0,1.7,0.3,2.3,0.9c0.6,0.6,0.9,1.4,0.9,2.4c0,1-0.3,1.9-0.9,2.6S507.3,150.2,506.2,150.2z
			 M506.2,149.2c0.7,0,1.3-0.2,1.7-0.7c0.4-0.4,0.6-1.1,0.6-1.8c0-0.8-0.2-1.4-0.6-1.8c-0.4-0.4-1-0.6-1.7-0.6c-0.5,0-1,0.1-1.4,0.4
			c-0.4,0.3-0.8,0.6-1.1,1v0.1C503.8,148.1,504.6,149.2,506.2,149.2z"/>
	</g>
	<g>
		<path d="M498.4,182.2v-2.6h-5v-0.9l5.1-7.7h0.9v7.6h1.9v1h-1.9v2.6H498.4z M494.5,178.6h3.9v-5.8L494.5,178.6z"/>
		<path d="M506.2,182c-1.2,0-2.1-0.4-2.7-1.2s-0.9-2-0.9-3.6v-0.8c0-1.8,0.4-3.2,1.1-4.1c0.7-0.9,1.7-1.3,3-1.3c1,0,1.8,0.2,2.5,0.6
			l-0.4,0.8c-0.2-0.1-0.5-0.2-0.9-0.3c-0.4-0.1-0.8-0.2-1.1-0.2c-1,0-1.7,0.3-2.2,1s-0.8,1.8-0.8,3.5c0.7-0.8,1.6-1.2,2.7-1.2
			c0.9,0,1.7,0.3,2.3,0.9s0.9,1.4,0.9,2.4c0,1-0.3,1.9-0.9,2.6S507.3,182,506.2,182z M506.2,181.1c0.7,0,1.3-0.2,1.7-0.7
			c0.4-0.4,0.6-1.1,0.6-1.8c0-0.8-0.2-1.4-0.6-1.8c-0.4-0.4-1-0.6-1.7-0.6c-0.5,0-1,0.1-1.4,0.4c-0.4,0.3-0.8,0.6-1.1,1v0.1
			C503.8,179.9,504.6,181.1,506.2,181.1z"/>
	</g>
	<g>
		<path d="M486.2,213.8l4.3-9.8h-5.6v-1h6.8v0.7l-4.3,10H486.2z"/>
		<path d="M496.7,213.9c-1.1,0-2-0.3-2.7-0.8c-0.7-0.5-1-1.3-1-2.1c0-0.7,0.2-1.2,0.7-1.7s1.1-0.9,1.7-1.1c-1.4-0.5-2.1-1.4-2.1-2.6
			c0-0.8,0.3-1.4,0.9-1.9c0.6-0.5,1.4-0.8,2.4-0.8s1.8,0.2,2.4,0.7c0.6,0.5,0.9,1.1,0.9,1.9c0,0.6-0.2,1.1-0.6,1.5
			c-0.4,0.4-0.9,0.8-1.6,1.1c1.7,0.6,2.6,1.5,2.6,2.8c0,0.9-0.3,1.6-1,2.2C498.7,213.6,497.8,213.9,496.7,213.9z M496.7,213
			c0.7,0,1.3-0.2,1.8-0.5s0.7-0.8,0.7-1.4c0-0.6-0.2-1.1-0.6-1.4c-0.4-0.3-1.1-0.7-2.2-1c-0.6,0.2-1.1,0.5-1.5,0.9s-0.6,0.9-0.6,1.4
			c0,0.6,0.2,1.1,0.7,1.4C495.4,212.8,496,213,496.7,213z M496.9,207.7c1.2-0.6,1.8-1.3,1.8-2.2c0-0.5-0.2-0.9-0.5-1.2
			c-0.4-0.3-0.9-0.5-1.5-0.5c-0.6,0-1.1,0.1-1.5,0.4c-0.4,0.3-0.6,0.7-0.6,1.2C494.6,206.5,495.4,207.2,496.9,207.7z"/>
		<path d="M505.9,213.9c-1.1,0-2-0.3-2.7-0.8c-0.7-0.5-1-1.3-1-2.1c0-0.7,0.2-1.2,0.7-1.7s1.1-0.9,1.7-1.1c-1.4-0.5-2.1-1.4-2.1-2.6
			c0-0.8,0.3-1.4,0.9-1.9c0.6-0.5,1.4-0.8,2.4-0.8s1.8,0.2,2.4,0.7c0.6,0.5,0.9,1.1,0.9,1.9c0,0.6-0.2,1.1-0.6,1.5
			c-0.4,0.4-0.9,0.8-1.6,1.1c1.8,0.6,2.6,1.5,2.6,2.8c0,0.9-0.3,1.6-1,2.2C507.9,213.6,507,213.9,505.9,213.9z M505.9,213
			c0.7,0,1.3-0.2,1.8-0.5s0.7-0.8,0.7-1.4c0-0.6-0.2-1.1-0.6-1.4c-0.4-0.3-1.1-0.7-2.2-1c-0.6,0.2-1.1,0.5-1.5,0.9
			c-0.4,0.4-0.6,0.9-0.6,1.4c0,0.6,0.2,1.1,0.7,1.4C504.5,212.8,505.1,213,505.9,213z M506.1,207.7c1.2-0.6,1.8-1.3,1.8-2.2
			c0-0.5-0.2-0.9-0.5-1.2c-0.4-0.3-0.9-0.5-1.5-0.5c-0.6,0-1.1,0.1-1.5,0.4c-0.4,0.3-0.6,0.7-0.6,1.2
			C503.7,206.5,504.5,207.2,506.1,207.7z"/>
	</g>
	<g>
		<path d="M491,245.7v-9.6l-2,0.5v-0.7l2.5-1.2h0.6v11H491z"/>
		<path d="M495.6,245.7l4.3-9.8h-5.6v-1h6.8v0.7l-4.3,10H495.6z"/>
		<path d="M507.2,245.9v-2.6h-5v-0.9l5.1-7.7h0.9v7.6h1.9v1h-1.9v2.6H507.2z M503.3,242.3h3.9v-5.8L503.3,242.3z"/>
	</g>
	<g>
		<path d="M490.5,277.5v-9.6l-2,0.5v-0.7l2.5-1.2h0.6v11H490.5z"/>
		<path d="M497,277.6c-1.2,0-2.2-0.3-2.9-0.8l0.3-0.9c0.3,0.2,0.7,0.4,1.2,0.5s0.9,0.2,1.3,0.2c0.9,0,1.6-0.2,2.1-0.6
			c0.5-0.4,0.7-0.9,0.7-1.6c0-0.7-0.2-1.2-0.7-1.6c-0.5-0.4-1.2-0.5-2-0.5h-1v-1h1c0.7,0,1.3-0.2,1.7-0.5s0.7-0.8,0.7-1.5
			c0-1.2-0.7-1.8-2.2-1.8c-0.7,0-1.5,0.3-2.4,0.8l-0.2-0.9c0.3-0.2,0.7-0.4,1.3-0.6c0.6-0.2,1.1-0.3,1.5-0.3c1,0,1.7,0.2,2.3,0.7
			s0.9,1.1,0.9,1.9c0,1.2-0.7,2.1-2,2.5c1.6,0.3,2.4,1.2,2.4,2.7c0,0.9-0.4,1.7-1.1,2.3S498.2,277.6,497,277.6z"/>
		<path d="M505.6,277.6c-1.2,0-2.2-0.3-2.9-0.8l0.3-0.9c0.3,0.2,0.7,0.4,1.2,0.5s0.9,0.2,1.3,0.2c0.9,0,1.6-0.2,2.1-0.6
			c0.5-0.4,0.7-0.9,0.7-1.6c0-0.7-0.2-1.2-0.7-1.6c-0.5-0.4-1.2-0.5-2-0.5h-1v-1h1c0.7,0,1.3-0.2,1.7-0.5s0.7-0.8,0.7-1.5
			c0-1.2-0.7-1.8-2.2-1.8c-0.7,0-1.5,0.3-2.4,0.8l-0.2-0.9c0.3-0.2,0.7-0.4,1.3-0.6c0.6-0.2,1.1-0.3,1.5-0.3c1,0,1.7,0.2,2.3,0.7
			s0.9,1.1,0.9,1.9c0,1.2-0.7,2.1-2,2.5c1.6,0.3,2.4,1.2,2.4,2.7c0,0.9-0.4,1.7-1.1,2.3S506.8,277.6,505.6,277.6z"/>
	</g>
	<g>
		<path d="M475.4,309.4l4.3-9.8h-5.6v-1h6.8v0.7l-4.3,10H475.4z"/>
		<path d="M481.6,311.4l0.6-3.1h1.3l-1.2,3.1H481.6z"/>
		<path d="M489.8,309.5c-1.2,0-2.1-0.4-2.8-1.3c-0.7-0.8-1.1-2.1-1.1-3.8v-0.9c0-1.8,0.4-3,1.1-3.8c0.7-0.8,1.6-1.2,2.8-1.2
			c1.1,0,2.1,0.4,2.7,1.2c0.7,0.8,1,2,1,3.8v1c0,1.7-0.3,3-1,3.8C491.8,309.1,490.9,309.5,489.8,309.5z M489.8,308.5
			c0.9,0,1.5-0.3,2-0.9c0.4-0.6,0.7-1.6,0.7-3v-1.2c0-2.6-0.9-4-2.6-4c-1.8,0-2.7,1.3-2.7,3.9v1.2
			C487.1,307.2,488,308.5,489.8,308.5z"/>
		<path d="M498.2,309.5c-1.2,0-2.2-0.3-3-0.8l0.2-0.9c0.3,0.2,0.7,0.4,1.2,0.5s0.9,0.2,1.4,0.2c0.9,0,1.5-0.2,2-0.7
			c0.5-0.5,0.7-1.1,0.7-1.9c0-1.6-0.9-2.4-2.7-2.4c-0.7,0-1.5,0.2-2.2,0.5l0.4-5.6h5.4v1h-4.4l-0.2,3.4c0.5-0.1,1.1-0.2,1.6-0.2
			c2.3,0,3.5,1.1,3.5,3.2c0,1-0.3,1.8-1,2.5C500.3,309.2,499.4,309.5,498.2,309.5z"/>
		<path d="M504.5,309.4l4.3-9.8h-5.6v-1h6.8v0.7l-4.3,10H504.5z"/>
	</g>
	<g>
		<path d="M573.2,107.3c1.2,0,2.1,0.4,2.7,1.2c0.6,0.8,0.9,2,0.9,3.5v0.7c0,1.8-0.3,3.2-1,4.2c-0.7,1-1.7,1.5-3,1.5
			c-1.1,0-1.9-0.2-2.6-0.7l0.3-0.8c0.6,0.4,1.4,0.5,2.2,0.5c0.9,0,1.6-0.3,2.1-1s0.7-1.8,0.8-3.3c-0.7,0.8-1.6,1.2-2.7,1.2
			c-0.9,0-1.7-0.3-2.3-0.9c-0.6-0.6-1-1.4-1-2.4c0-1,0.3-1.9,0.9-2.6C571.4,107.6,572.2,107.3,573.2,107.3z M573.2,108.2
			c-0.7,0-1.3,0.2-1.7,0.7s-0.6,1.1-0.6,1.9c0,0.8,0.2,1.4,0.6,1.8c0.4,0.4,1,0.6,1.7,0.6c0.5,0,1-0.1,1.4-0.4
			c0.4-0.3,0.8-0.6,1.1-1v-0.3C575.7,109.4,574.9,108.2,573.2,108.2z"/>
		<path d="M578,120.2l0.6-3.1h1.3l-1.2,3.1H578z"/>
		<path d="M585.7,118.3c-1.1,0-2-0.3-2.7-0.8c-0.7-0.5-1-1.3-1-2.1c0-0.7,0.2-1.2,0.7-1.7c0.5-0.5,1.1-0.9,1.7-1.1
			c-1.4-0.5-2.1-1.4-2.1-2.6c0-0.8,0.3-1.4,0.9-1.9c0.6-0.5,1.4-0.8,2.4-0.8c1,0,1.8,0.2,2.4,0.7c0.6,0.5,0.9,1.1,0.9,1.9
			c0,0.6-0.2,1.1-0.6,1.5c-0.4,0.4-0.9,0.8-1.6,1.1c1.7,0.6,2.6,1.5,2.6,2.8c0,0.9-0.3,1.6-1,2.2
			C587.7,118.1,586.8,118.3,585.7,118.3z M585.7,117.4c0.7,0,1.3-0.2,1.8-0.5s0.7-0.8,0.7-1.4c0-0.6-0.2-1.1-0.6-1.4s-1.1-0.7-2.2-1
			c-0.6,0.2-1.1,0.5-1.5,0.9c-0.4,0.4-0.6,0.9-0.6,1.4c0,0.6,0.2,1.1,0.7,1.4C584.4,117.2,585,117.4,585.7,117.4z M585.9,112.1
			c1.2-0.6,1.8-1.3,1.8-2.2c0-0.5-0.2-0.9-0.5-1.2c-0.4-0.3-0.9-0.5-1.5-0.5c-0.6,0-1.1,0.1-1.5,0.4c-0.4,0.3-0.6,0.7-0.6,1.2
			C583.6,110.9,584.4,111.6,585.9,112.1z"/>
		<path d="M594,118.3c-1.2,0-2.2-0.3-2.9-0.8l0.3-0.9c0.3,0.2,0.7,0.4,1.2,0.5c0.5,0.1,0.9,0.2,1.3,0.2c0.9,0,1.6-0.2,2.1-0.6
			c0.5-0.4,0.7-0.9,0.7-1.6c0-0.7-0.2-1.2-0.7-1.6c-0.5-0.4-1.2-0.5-2-0.5h-1v-1h1c0.7,0,1.3-0.2,1.7-0.5s0.7-0.8,0.7-1.5
			c0-1.2-0.7-1.8-2.2-1.8c-0.7,0-1.5,0.3-2.4,0.8l-0.2-0.9c0.3-0.2,0.7-0.4,1.3-0.6c0.6-0.2,1.1-0.3,1.5-0.3c1,0,1.7,0.2,2.3,0.7
			c0.6,0.5,0.9,1.1,0.9,1.9c0,1.2-0.7,2.1-2,2.5c1.6,0.3,2.4,1.2,2.4,2.7c0,0.9-0.4,1.7-1.1,2.3C596.1,118,595.2,118.3,594,118.3z"
			/>
		<path d="M602.3,118.3c-1.2,0-2.2-0.3-3-0.8l0.2-0.9c0.3,0.2,0.7,0.4,1.2,0.5s0.9,0.2,1.4,0.2c0.9,0,1.5-0.2,2-0.7
			c0.5-0.5,0.7-1.1,0.7-1.9c0-1.6-0.9-2.4-2.7-2.4c-0.7,0-1.5,0.2-2.2,0.5l0.4-5.6h5.4v1h-4.4l-0.2,3.4c0.5-0.1,1.1-0.2,1.6-0.2
			c2.3,0,3.5,1.1,3.5,3.2c0,1-0.3,1.8-1,2.5C604.4,118,603.5,118.3,602.3,118.3z"/>
	</g>
	<g>
		<path d="M573.1,150v-0.7l2.6-2.7c0.9-0.9,1.5-1.7,1.9-2.3c0.4-0.6,0.6-1.3,0.6-2c0-0.7-0.2-1.3-0.5-1.6c-0.4-0.4-0.9-0.5-1.7-0.5
			c-0.8,0-1.6,0.3-2.4,0.9l-0.4-0.9c1-0.7,2-1,2.9-1c1,0,1.9,0.3,2.4,0.8s0.9,1.3,0.9,2.3c0,0.8-0.2,1.6-0.7,2.3
			c-0.4,0.7-1.2,1.6-2.3,2.7l-1.8,1.8h5v1H573.1z"/>
		<path d="M580.9,152.1l0.6-3.1h1.3l-1.2,3.1H580.9z"/>
		<path d="M587.7,150.2c-1.2,0-2.2-0.3-2.9-0.8l0.3-0.9c0.3,0.2,0.7,0.4,1.2,0.5c0.5,0.1,0.9,0.2,1.3,0.2c0.9,0,1.6-0.2,2.1-0.6
			s0.7-0.9,0.7-1.6s-0.2-1.2-0.7-1.6c-0.5-0.4-1.2-0.5-2-0.5h-1v-1h1c0.7,0,1.3-0.2,1.7-0.5c0.4-0.4,0.7-0.8,0.7-1.5
			c0-1.2-0.7-1.8-2.2-1.8c-0.7,0-1.5,0.3-2.4,0.8l-0.2-0.9c0.3-0.2,0.7-0.4,1.3-0.6s1.1-0.3,1.5-0.3c1,0,1.7,0.2,2.3,0.7
			c0.6,0.5,0.9,1.1,0.9,1.9c0,1.2-0.7,2.1-2,2.5c1.6,0.3,2.4,1.2,2.4,2.7c0,0.9-0.4,1.7-1.1,2.3
			C589.8,149.9,588.9,150.2,587.7,150.2z"/>
		<path d="M595.4,150.1v-9.6l-2,0.5v-0.7l2.5-1.2h0.6v11H595.4z"/>
		<path d="M599.3,150v-0.7l2.6-2.7c0.9-0.9,1.5-1.7,1.9-2.3c0.4-0.6,0.6-1.3,0.6-2c0-0.7-0.2-1.3-0.5-1.6c-0.4-0.4-0.9-0.5-1.7-0.5
			c-0.8,0-1.6,0.3-2.4,0.9l-0.4-0.9c1-0.7,2-1,2.9-1c1,0,1.9,0.3,2.4,0.8s0.9,1.3,0.9,2.3c0,0.8-0.2,1.6-0.7,2.3
			c-0.4,0.7-1.2,1.6-2.3,2.7l-1.8,1.8h5v1H599.3z"/>
	</g>
	<g>
		<path d="M598.3,182v-9.6l-2,0.5v-0.7l2.5-1.2h0.6v11H598.3z"/>
		<path d="M604,182v-9.6l-2,0.5v-0.7l2.5-1.2h0.6v11H604z"/>
	</g>
	<g>
		<path d="M586.9,213.9c-1.2,0-2.1-0.4-2.7-1.2s-0.9-2-0.9-3.6v-0.8c0-1.8,0.4-3.2,1.1-4.1c0.7-0.9,1.7-1.3,3-1.3
			c1,0,1.8,0.2,2.5,0.6l-0.4,0.8c-0.2-0.1-0.5-0.2-0.9-0.3c-0.4-0.1-0.8-0.2-1.1-0.2c-1,0-1.7,0.3-2.2,1c-0.5,0.6-0.8,1.8-0.8,3.5
			c0.7-0.8,1.6-1.2,2.7-1.2c0.9,0,1.7,0.3,2.3,0.9c0.6,0.6,0.9,1.4,0.9,2.4c0,1-0.3,1.9-0.9,2.6S587.9,213.9,586.9,213.9z
			 M586.9,212.9c0.7,0,1.3-0.2,1.7-0.7c0.4-0.4,0.6-1.1,0.6-1.8c0-0.8-0.2-1.4-0.6-1.8c-0.4-0.4-1-0.6-1.7-0.6c-0.5,0-1,0.1-1.4,0.4
			s-0.8,0.6-1.1,1v0.1C584.4,211.8,585.3,212.9,586.9,212.9z"/>
		<path d="M594.6,213.9c-1.2,0-2.2-0.3-3-0.8l0.2-0.9c0.3,0.2,0.7,0.4,1.2,0.5s0.9,0.2,1.4,0.2c0.9,0,1.5-0.2,2-0.7
			c0.5-0.5,0.7-1.1,0.7-1.9c0-1.6-0.9-2.4-2.7-2.4c-0.7,0-1.5,0.2-2.2,0.5l0.4-5.6h5.4v1h-4.4l-0.2,3.4c0.5-0.1,1.1-0.2,1.6-0.2
			c2.3,0,3.5,1.1,3.5,3.2c0,1-0.3,1.8-1,2.5S595.7,213.9,594.6,213.9z"/>
		<path d="M600.9,213.8l4.3-9.8h-5.6v-1h6.8v0.7l-4.3,10H600.9z"/>
	</g>
	<g>
		<path d="M593.8,245.8c-1.2,0-2.1-0.4-2.7-1.2c-0.6-0.8-0.9-2-0.9-3.6v-0.8c0-1.8,0.4-3.2,1.1-4.1c0.7-0.9,1.7-1.3,3-1.3
			c1,0,1.8,0.2,2.5,0.6l-0.4,0.8c-0.2-0.1-0.5-0.2-0.9-0.3c-0.4-0.1-0.8-0.2-1.1-0.2c-1,0-1.7,0.3-2.2,1c-0.5,0.6-0.8,1.8-0.8,3.5
			c0.7-0.8,1.6-1.2,2.7-1.2c0.9,0,1.7,0.3,2.3,0.9c0.6,0.6,0.9,1.4,0.9,2.4c0,1-0.3,1.9-0.9,2.6
			C595.7,245.4,594.8,245.8,593.8,245.8z M593.8,244.8c0.7,0,1.3-0.2,1.7-0.7c0.4-0.4,0.6-1.1,0.6-1.8c0-0.8-0.2-1.4-0.6-1.8
			c-0.4-0.4-1-0.6-1.7-0.6c-0.5,0-1,0.1-1.4,0.4c-0.4,0.3-0.8,0.6-1.1,1v0.1C591.3,243.7,592.2,244.8,593.8,244.8z"/>
		<path d="M602.6,245.8c-1.2,0-2.1-0.4-2.7-1.2c-0.6-0.8-0.9-2-0.9-3.6v-0.8c0-1.8,0.4-3.2,1.1-4.1s1.7-1.3,3-1.3
			c1,0,1.8,0.2,2.5,0.6l-0.4,0.8c-0.2-0.1-0.5-0.2-0.9-0.3c-0.4-0.1-0.8-0.2-1.1-0.2c-1,0-1.7,0.3-2.2,1c-0.5,0.6-0.8,1.8-0.8,3.5
			c0.7-0.8,1.6-1.2,2.7-1.2c0.9,0,1.7,0.3,2.3,0.9c0.6,0.6,0.9,1.4,0.9,2.4c0,1-0.3,1.9-0.9,2.6
			C604.5,245.4,603.6,245.8,602.6,245.8z M602.6,244.8c0.7,0,1.3-0.2,1.7-0.7c0.4-0.4,0.6-1.1,0.6-1.8c0-0.8-0.2-1.4-0.6-1.8
			c-0.4-0.4-1-0.6-1.7-0.6c-0.5,0-1,0.1-1.4,0.4c-0.4,0.3-0.8,0.6-1.1,1v0.1C600.1,243.7,600.9,244.8,602.6,244.8z"/>
	</g>
	<g>
		<path d="M602.3,266.6c1.2,0,2.1,0.4,2.7,1.2c0.6,0.8,0.9,2,0.9,3.5v0.7c0,1.8-0.3,3.2-1,4.2c-0.7,1-1.7,1.5-3,1.5
			c-1.1,0-1.9-0.2-2.6-0.7l0.3-0.8c0.6,0.4,1.4,0.5,2.2,0.5c0.9,0,1.6-0.3,2.1-1c0.5-0.7,0.7-1.8,0.8-3.3c-0.7,0.8-1.6,1.2-2.7,1.2
			c-0.9,0-1.7-0.3-2.3-0.9s-1-1.4-1-2.4c0-1,0.3-1.9,0.9-2.6C600.4,266.9,601.2,266.6,602.3,266.6z M602.3,267.5
			c-0.7,0-1.3,0.2-1.7,0.7s-0.6,1.1-0.6,1.9c0,0.8,0.2,1.4,0.6,1.8c0.4,0.4,1,0.6,1.7,0.6c0.5,0,1-0.1,1.4-0.4
			c0.4-0.3,0.8-0.6,1.1-1v-0.3C604.8,268.7,603.9,267.5,602.3,267.5z"/>
	</g>
	<g>
		<path d="M564.1,309.4v-9.6l-2,0.5v-0.7l2.5-1.2h0.6v11H564.1z"/>
		<path d="M568,309.3v-0.7l2.6-2.7c0.9-0.9,1.5-1.7,1.9-2.3c0.4-0.6,0.6-1.3,0.6-2c0-0.7-0.2-1.3-0.5-1.6c-0.4-0.4-0.9-0.5-1.7-0.5
			c-0.8,0-1.6,0.3-2.4,0.9l-0.4-0.9c1-0.7,2-1,2.9-1c1,0,1.9,0.3,2.4,0.8c0.6,0.6,0.9,1.3,0.9,2.3c0,0.8-0.2,1.6-0.7,2.3
			c-0.4,0.7-1.2,1.6-2.3,2.7l-1.8,1.8h5v1H568z"/>
		<path d="M575.7,311.4l0.6-3.1h1.3l-1.2,3.1H575.7z"/>
		<path d="M583.4,309.5c-1.1,0-2-0.3-2.7-0.8s-1-1.3-1-2.1c0-0.7,0.2-1.2,0.7-1.7s1.1-0.9,1.7-1.1c-1.4-0.5-2.1-1.4-2.1-2.6
			c0-0.8,0.3-1.4,0.9-1.9s1.4-0.8,2.4-0.8c1,0,1.8,0.2,2.4,0.7c0.6,0.5,0.9,1.1,0.9,1.9c0,0.6-0.2,1.1-0.6,1.5
			c-0.4,0.4-0.9,0.8-1.6,1.1c1.7,0.6,2.6,1.5,2.6,2.8c0,0.9-0.3,1.6-1,2.2C585.4,309.2,584.5,309.5,583.4,309.5z M583.4,308.5
			c0.7,0,1.3-0.2,1.8-0.5s0.7-0.8,0.7-1.4c0-0.6-0.2-1.1-0.6-1.4c-0.4-0.3-1.1-0.7-2.2-1c-0.6,0.2-1.1,0.5-1.5,0.9
			c-0.4,0.4-0.6,0.9-0.6,1.4c0,0.6,0.2,1.1,0.7,1.4C582.1,308.4,582.7,308.5,583.4,308.5z M583.6,303.2c1.2-0.6,1.8-1.3,1.8-2.2
			c0-0.5-0.2-0.9-0.5-1.2c-0.4-0.3-0.9-0.5-1.5-0.5c-0.6,0-1.1,0.1-1.5,0.4c-0.4,0.3-0.6,0.7-0.6,1.2
			C581.3,302.1,582,302.8,583.6,303.2z"/>
		<path d="M592.2,298.4c1.2,0,2.1,0.4,2.7,1.2c0.6,0.8,0.9,2,0.9,3.5v0.7c0,1.8-0.3,3.2-1,4.2c-0.7,1-1.7,1.5-3,1.5
			c-1.1,0-1.9-0.2-2.6-0.7l0.3-0.8c0.6,0.4,1.4,0.5,2.2,0.5c0.9,0,1.6-0.3,2.1-1c0.5-0.7,0.7-1.8,0.8-3.3c-0.7,0.8-1.6,1.2-2.7,1.2
			c-0.9,0-1.7-0.3-2.3-0.9c-0.6-0.6-1-1.4-1-2.4c0-1,0.3-1.9,0.9-2.6C590.4,298.8,591.2,298.4,592.2,298.4z M592.2,299.4
			c-0.7,0-1.3,0.2-1.7,0.7s-0.6,1.1-0.6,1.9c0,0.8,0.2,1.4,0.6,1.8c0.4,0.4,1,0.6,1.7,0.6c0.5,0,1-0.1,1.4-0.4s0.8-0.6,1.1-1v-0.3
			C594.7,300.5,593.9,299.4,592.2,299.4z"/>
		<path d="M601.8,309.5c-1.2,0-2.1-0.4-2.8-1.3c-0.7-0.8-1.1-2.1-1.1-3.8v-0.9c0-1.8,0.4-3,1.1-3.8c0.7-0.8,1.6-1.2,2.8-1.2
			c1.1,0,2.1,0.4,2.7,1.2c0.7,0.8,1,2,1,3.8v1c0,1.7-0.3,3-1,3.8C603.9,309.1,603,309.5,601.8,309.5z M601.8,308.5
			c0.9,0,1.5-0.3,2-0.9c0.4-0.6,0.7-1.6,0.7-3v-1.2c0-2.6-0.9-4-2.6-4c-1.8,0-2.7,1.3-2.7,3.9v1.2
			C599.2,307.2,600.1,308.5,601.8,308.5z"/>
	</g>
	<g>
		<path d="M657.6,118.3c-1.2,0-2.2-0.3-2.9-0.8l0.3-0.9c0.3,0.2,0.7,0.4,1.2,0.5c0.5,0.1,0.9,0.2,1.3,0.2c0.9,0,1.6-0.2,2.1-0.6
			c0.5-0.4,0.7-0.9,0.7-1.6c0-0.7-0.2-1.2-0.7-1.6c-0.5-0.4-1.2-0.5-2-0.5h-1v-1h1c0.7,0,1.3-0.2,1.7-0.5c0.4-0.4,0.7-0.8,0.7-1.5
			c0-1.2-0.7-1.8-2.2-1.8c-0.7,0-1.5,0.3-2.4,0.8l-0.2-0.9c0.3-0.2,0.7-0.4,1.3-0.6c0.6-0.2,1.1-0.3,1.5-0.3c1,0,1.7,0.2,2.3,0.7
			c0.6,0.5,0.9,1.1,0.9,1.9c0,1.2-0.7,2.1-2,2.5c1.6,0.3,2.4,1.2,2.4,2.7c0,0.9-0.4,1.7-1.1,2.3C659.7,118,658.8,118.3,657.6,118.3z
			"/>
		<path d="M668.1,118.4v-2.6h-5V115l5.1-7.7h0.9v7.6h1.9v1h-1.9v2.6H668.1z M664.2,114.9h3.9v-5.8L664.2,114.9z"/>
		<path d="M671.6,120.2l0.6-3.1h1.3l-1.2,3.1H671.6z"/>
		<path d="M679.8,118.3c-1.2,0-2.1-0.4-2.8-1.3s-1.1-2.1-1.1-3.8v-0.9c0-1.8,0.4-3,1.1-3.8c0.7-0.8,1.6-1.2,2.8-1.2
			c1.1,0,2.1,0.4,2.7,1.2c0.7,0.8,1,2,1,3.8v1c0,1.7-0.3,3-1,3.8C681.8,117.9,680.9,118.3,679.8,118.3z M679.8,117.4
			c0.9,0,1.5-0.3,2-0.9c0.4-0.6,0.7-1.6,0.7-3v-1.2c0-2.6-0.9-4-2.6-4c-1.8,0-2.7,1.3-2.7,3.9v1.2C677.1,116,678,117.4,679.8,117.4z
			"/>
		<path d="M690.4,118.4v-2.6h-5V115l5.1-7.7h0.9v7.6h1.9v1h-1.9v2.6H690.4z M686.5,114.9h3.9v-5.8L686.5,114.9z"/>
		<path d="M694.7,118.1v-0.7l2.6-2.7c0.9-0.9,1.5-1.7,1.9-2.3c0.4-0.6,0.6-1.3,0.6-2c0-0.7-0.2-1.3-0.5-1.6s-0.9-0.5-1.7-0.5
			c-0.8,0-1.6,0.3-2.4,0.9l-0.4-0.9c1-0.7,2-1,2.9-1c1,0,1.9,0.3,2.4,0.8c0.6,0.6,0.9,1.3,0.9,2.3c0,0.8-0.2,1.6-0.7,2.3
			c-0.4,0.7-1.2,1.6-2.3,2.7l-1.8,1.8h5v1H694.7z"/>
	</g>
	<g>
		<path d="M661.4,150.1v-9.6l-2,0.5v-0.7l2.5-1.2h0.6v11H661.4z"/>
		<path d="M665.3,150v-0.7l2.6-2.7c0.9-0.9,1.5-1.7,1.9-2.3c0.4-0.6,0.6-1.3,0.6-2c0-0.7-0.2-1.3-0.5-1.6c-0.4-0.4-0.9-0.5-1.7-0.5
			c-0.8,0-1.6,0.3-2.4,0.9l-0.4-0.9c1-0.7,2-1,2.9-1c1,0,1.9,0.3,2.4,0.8c0.6,0.6,0.9,1.3,0.9,2.3c0,0.8-0.2,1.6-0.7,2.3
			c-0.4,0.7-1.2,1.6-2.3,2.7l-1.8,1.8h5v1H665.3z"/>
		<path d="M673,152.1l0.6-3.1h1.3l-1.2,3.1H673z"/>
		<path d="M677.2,150v-0.7l2.6-2.7c0.9-0.9,1.5-1.7,1.9-2.3c0.4-0.6,0.6-1.3,0.6-2c0-0.7-0.2-1.3-0.5-1.6c-0.4-0.4-0.9-0.5-1.7-0.5
			c-0.8,0-1.6,0.3-2.4,0.9l-0.4-0.9c1-0.7,2-1,2.9-1c1,0,1.9,0.3,2.4,0.8s0.9,1.3,0.9,2.3c0,0.8-0.2,1.6-0.7,2.3
			c-0.4,0.7-1.2,1.6-2.3,2.7l-1.8,1.8h5v1H677.2z"/>
		<path d="M690.3,150.3v-2.6h-5v-0.9l5.1-7.7h0.9v7.6h1.9v1h-1.9v2.6H690.3z M686.5,146.8h3.9V141L686.5,146.8z"/>
		<path d="M697.3,150.2c-1.2,0-2.2-0.3-2.9-0.8l0.3-0.9c0.3,0.2,0.7,0.4,1.2,0.5c0.5,0.1,0.9,0.2,1.3,0.2c0.9,0,1.6-0.2,2.1-0.6
			s0.7-0.9,0.7-1.6s-0.2-1.2-0.7-1.6c-0.5-0.4-1.2-0.5-2-0.5h-1v-1h1c0.7,0,1.3-0.2,1.7-0.5c0.4-0.4,0.7-0.8,0.7-1.5
			c0-1.2-0.7-1.8-2.2-1.8c-0.7,0-1.5,0.3-2.4,0.8l-0.2-0.9c0.3-0.2,0.7-0.4,1.3-0.6s1.1-0.3,1.5-0.3c1,0,1.7,0.2,2.3,0.7
			c0.6,0.5,0.9,1.1,0.9,1.9c0,1.2-0.7,2.1-2,2.5c1.6,0.3,2.4,1.2,2.4,2.7c0,0.9-0.4,1.7-1.1,2.3
			C699.4,149.9,698.5,150.2,697.3,150.2z"/>
	</g>
	<g>
		<path d="M668.5,182v-9.6l-2,0.5v-0.7l2.5-1.2h0.6v11H668.5z"/>
		<path d="M671.6,183.9l0.6-3.1h1.3l-1.2,3.1H671.6z"/>
		<path d="M679.8,182c-1.2,0-2.1-0.4-2.8-1.3s-1.1-2.1-1.1-3.8V176c0-1.8,0.4-3,1.1-3.8c0.7-0.8,1.6-1.2,2.8-1.2
			c1.1,0,2.1,0.4,2.7,1.2c0.7,0.8,1,2,1,3.8v1c0,1.7-0.3,3-1,3.8C681.8,181.6,680.9,182,679.8,182z M679.8,181.1
			c0.9,0,1.5-0.3,2-0.9s0.7-1.6,0.7-3v-1.2c0-2.6-0.9-4-2.6-4c-1.8,0-2.7,1.3-2.7,3.9v1.2C677.1,179.8,678,181.1,679.8,181.1z"/>
		<path d="M685.8,181.9v-0.7l2.6-2.7c0.9-0.9,1.5-1.7,1.9-2.3s0.6-1.3,0.6-2c0-0.7-0.2-1.3-0.5-1.6c-0.4-0.4-0.9-0.5-1.7-0.5
			c-0.8,0-1.6,0.3-2.4,0.9l-0.4-0.9c1-0.7,2-1,2.9-1c1,0,1.9,0.3,2.4,0.8c0.6,0.6,0.9,1.3,0.9,2.3c0,0.8-0.2,1.6-0.7,2.3
			c-0.4,0.7-1.2,1.6-2.3,2.7l-1.8,1.8h5v1H685.8z"/>
		<path d="M698.9,182.2v-2.6h-5v-0.9l5.1-7.7h0.9v7.6h1.9v1H700v2.6H698.9z M695,178.6h3.9v-5.8L695,178.6z"/>
	</g>
	<g>
		<path d="M678.5,213.8l4.3-9.8h-5.6v-1h6.8v0.7l-4.3,10H678.5z"/>
		<path d="M688.2,213.9c-1.2,0-2.2-0.3-2.9-0.8l0.3-0.9c0.3,0.2,0.7,0.4,1.2,0.5s0.9,0.2,1.3,0.2c0.9,0,1.6-0.2,2.1-0.6
			s0.7-0.9,0.7-1.6c0-0.7-0.2-1.2-0.7-1.6s-1.2-0.5-2-0.5h-1v-1h1c0.7,0,1.3-0.2,1.7-0.5c0.4-0.4,0.7-0.8,0.7-1.5
			c0-1.2-0.7-1.8-2.2-1.8c-0.7,0-1.5,0.3-2.4,0.8l-0.2-0.9c0.3-0.2,0.7-0.4,1.3-0.6s1.1-0.3,1.5-0.3c1,0,1.7,0.2,2.3,0.7
			c0.6,0.5,0.9,1.1,0.9,1.9c0,1.2-0.7,2.1-2,2.5c1.6,0.3,2.4,1.2,2.4,2.7c0,0.9-0.4,1.7-1.1,2.3S689.3,213.9,688.2,213.9z"/>
		<path d="M697.6,213.9c-1.1,0-2-0.3-2.7-0.8c-0.7-0.5-1-1.3-1-2.1c0-0.7,0.2-1.2,0.7-1.7s1.1-0.9,1.7-1.1c-1.4-0.5-2.1-1.4-2.1-2.6
			c0-0.8,0.3-1.4,0.9-1.9c0.6-0.5,1.4-0.8,2.4-0.8s1.8,0.2,2.4,0.7c0.6,0.5,0.9,1.1,0.9,1.9c0,0.6-0.2,1.1-0.6,1.5
			c-0.4,0.4-0.9,0.8-1.6,1.1c1.8,0.6,2.6,1.5,2.6,2.8c0,0.9-0.3,1.6-1,2.2C699.6,213.6,698.7,213.9,697.6,213.9z M697.6,213
			c0.7,0,1.3-0.2,1.8-0.5s0.7-0.8,0.7-1.4c0-0.6-0.2-1.1-0.6-1.4c-0.4-0.3-1.1-0.7-2.2-1c-0.6,0.2-1.1,0.5-1.5,0.9
			c-0.4,0.4-0.6,0.9-0.6,1.4c0,0.6,0.2,1.1,0.7,1.4C696.3,212.8,696.9,213,697.6,213z M697.8,207.7c1.2-0.6,1.8-1.3,1.8-2.2
			c0-0.5-0.2-0.9-0.5-1.2c-0.4-0.3-0.9-0.5-1.5-0.5c-0.6,0-1.1,0.1-1.5,0.4c-0.4,0.3-0.6,0.7-0.6,1.2
			C695.4,206.5,696.2,207.2,697.8,207.7z"/>
	</g>
	<g>
		<path d="M682.6,245.9v-2.6h-5v-0.9l5.1-7.7h0.9v7.6h1.9v1h-1.9v2.6H682.6z M678.7,242.3h3.9v-5.8L678.7,242.3z"/>
		<path d="M687.7,245.7l4.3-9.8h-5.6v-1h6.8v0.7l-4.3,10H687.7z"/>
		<path d="M697.3,245.7c-1.2,0-2.2-0.3-2.9-0.8l0.3-0.9c0.3,0.2,0.7,0.4,1.2,0.5c0.5,0.1,0.9,0.2,1.3,0.2c0.9,0,1.6-0.2,2.1-0.6
			c0.5-0.4,0.7-0.9,0.7-1.6s-0.2-1.2-0.7-1.6c-0.5-0.4-1.2-0.5-2-0.5h-1v-1h1c0.7,0,1.3-0.2,1.7-0.5c0.4-0.4,0.7-0.8,0.7-1.5
			c0-1.2-0.7-1.8-2.2-1.8c-0.7,0-1.5,0.3-2.4,0.8l-0.2-0.9c0.3-0.2,0.7-0.4,1.3-0.6c0.6-0.2,1.1-0.3,1.5-0.3c1,0,1.7,0.2,2.3,0.7
			c0.6,0.5,0.9,1.1,0.9,1.9c0,1.2-0.7,2.1-2,2.5c1.6,0.3,2.4,1.2,2.4,2.7c0,0.9-0.4,1.7-1.1,2.3
			C699.4,245.4,698.5,245.7,697.3,245.7z"/>
	</g>
	<g>
		<path d="M679.9,277.6c-1.2,0-2.2-0.3-2.9-0.8l0.3-0.9c0.3,0.2,0.7,0.4,1.2,0.5s0.9,0.2,1.3,0.2c0.9,0,1.6-0.2,2.1-0.6
			c0.5-0.4,0.7-0.9,0.7-1.6c0-0.7-0.2-1.2-0.7-1.6c-0.5-0.4-1.2-0.5-2-0.5h-1v-1h1c0.7,0,1.3-0.2,1.7-0.5c0.4-0.4,0.7-0.8,0.7-1.5
			c0-1.2-0.7-1.8-2.2-1.8c-0.7,0-1.5,0.3-2.4,0.8l-0.2-0.9c0.3-0.2,0.7-0.4,1.3-0.6c0.6-0.2,1.1-0.3,1.5-0.3c1,0,1.7,0.2,2.3,0.7
			c0.6,0.5,0.9,1.1,0.9,1.9c0,1.2-0.7,2.1-2,2.5c1.6,0.3,2.4,1.2,2.4,2.7c0,0.9-0.4,1.7-1.1,2.3S681,277.6,679.9,277.6z"/>
		<path d="M690.3,277.7v-2.6h-5v-0.9l5.1-7.7h0.9v7.6h1.9v1h-1.9v2.6H690.3z M686.5,274.2h3.9v-5.8L686.5,274.2z"/>
		<path d="M697.3,277.6c-1.2,0-2.2-0.3-2.9-0.8l0.3-0.9c0.3,0.2,0.7,0.4,1.2,0.5s0.9,0.2,1.3,0.2c0.9,0,1.6-0.2,2.1-0.6
			c0.5-0.4,0.7-0.9,0.7-1.6c0-0.7-0.2-1.2-0.7-1.6c-0.5-0.4-1.2-0.5-2-0.5h-1v-1h1c0.7,0,1.3-0.2,1.7-0.5s0.7-0.8,0.7-1.5
			c0-1.2-0.7-1.8-2.2-1.8c-0.7,0-1.5,0.3-2.4,0.8l-0.2-0.9c0.3-0.2,0.7-0.4,1.3-0.6c0.6-0.2,1.1-0.3,1.5-0.3c1,0,1.7,0.2,2.3,0.7
			s0.9,1.1,0.9,1.9c0,1.2-0.7,2.1-2,2.5c1.6,0.3,2.4,1.2,2.4,2.7c0,0.9-0.4,1.7-1.1,2.3S698.5,277.6,697.3,277.6z"/>
	</g>
	<g>
		<path d="M659.9,309.6V307h-5v-0.9l5.1-7.7h0.9v7.6h1.9v1h-1.9v2.6H659.9z M656,306.1h3.9v-5.8L656,306.1z"/>
		<path d="M667.7,309.5c-1.1,0-2-0.3-2.7-0.8s-1-1.3-1-2.1c0-0.7,0.2-1.2,0.7-1.7s1.1-0.9,1.7-1.1c-1.4-0.5-2.1-1.4-2.1-2.6
			c0-0.8,0.3-1.4,0.9-1.9s1.4-0.8,2.4-0.8c1,0,1.8,0.2,2.4,0.7c0.6,0.5,0.9,1.1,0.9,1.9c0,0.6-0.2,1.1-0.6,1.5
			c-0.4,0.4-0.9,0.8-1.6,1.1c1.7,0.6,2.6,1.5,2.6,2.8c0,0.9-0.3,1.6-1,2.2C669.7,309.2,668.8,309.5,667.7,309.5z M667.7,308.5
			c0.7,0,1.3-0.2,1.8-0.5s0.7-0.8,0.7-1.4c0-0.6-0.2-1.1-0.6-1.4c-0.4-0.3-1.1-0.7-2.2-1c-0.6,0.2-1.1,0.5-1.5,0.9
			c-0.4,0.4-0.6,0.9-0.6,1.4c0,0.6,0.2,1.1,0.7,1.4C666.4,308.4,667,308.5,667.7,308.5z M667.9,303.2c1.2-0.6,1.8-1.3,1.8-2.2
			c0-0.5-0.2-0.9-0.5-1.2c-0.4-0.3-0.9-0.5-1.5-0.5c-0.6,0-1.1,0.1-1.5,0.4c-0.4,0.3-0.6,0.7-0.6,1.2
			C665.5,302.1,666.3,302.8,667.9,303.2z"/>
		<path d="M672.5,311.4l0.6-3.1h1.3l-1.2,3.1H672.5z"/>
		<path d="M680.2,309.5c-1.1,0-2-0.3-2.7-0.8c-0.7-0.5-1-1.3-1-2.1c0-0.7,0.2-1.2,0.7-1.7s1.1-0.9,1.7-1.1c-1.4-0.5-2.1-1.4-2.1-2.6
			c0-0.8,0.3-1.4,0.9-1.9c0.6-0.5,1.4-0.8,2.4-0.8s1.8,0.2,2.4,0.7c0.6,0.5,0.9,1.1,0.9,1.9c0,0.6-0.2,1.1-0.6,1.5
			c-0.4,0.4-0.9,0.8-1.6,1.1c1.8,0.6,2.6,1.5,2.6,2.8c0,0.9-0.3,1.6-1,2.2C682.2,309.2,681.3,309.5,680.2,309.5z M680.2,308.5
			c0.7,0,1.3-0.2,1.8-0.5s0.7-0.8,0.7-1.4c0-0.6-0.2-1.1-0.6-1.4c-0.4-0.3-1.1-0.7-2.2-1c-0.6,0.2-1.1,0.5-1.5,0.9
			c-0.4,0.4-0.6,0.9-0.6,1.4c0,0.6,0.2,1.1,0.7,1.4C678.9,308.4,679.5,308.5,680.2,308.5z M680.4,303.2c1.2-0.6,1.8-1.3,1.8-2.2
			c0-0.5-0.2-0.9-0.5-1.2c-0.4-0.3-0.9-0.5-1.5-0.5c-0.6,0-1.1,0.1-1.5,0.4c-0.4,0.3-0.6,0.7-0.6,1.2
			C678.1,302.1,678.9,302.8,680.4,303.2z"/>
		<path d="M689.4,309.5c-1.2,0-2.1-0.4-2.7-1.2s-0.9-2-0.9-3.6v-0.8c0-1.8,0.4-3.2,1.1-4.1c0.7-0.9,1.7-1.3,3-1.3
			c1,0,1.8,0.2,2.5,0.6l-0.4,0.8c-0.2-0.1-0.5-0.2-0.9-0.3c-0.4-0.1-0.8-0.2-1.1-0.2c-1,0-1.7,0.3-2.2,1c-0.5,0.6-0.8,1.8-0.8,3.5
			c0.7-0.8,1.6-1.2,2.7-1.2c0.9,0,1.7,0.3,2.3,0.9c0.6,0.6,0.9,1.4,0.9,2.4c0,1-0.3,1.9-0.9,2.6S690.4,309.5,689.4,309.5z
			 M689.4,308.5c0.7,0,1.3-0.2,1.7-0.7c0.4-0.4,0.6-1.1,0.6-1.8c0-0.8-0.2-1.4-0.6-1.8c-0.4-0.4-1-0.6-1.7-0.6c-0.5,0-1,0.1-1.4,0.4
			c-0.4,0.3-0.8,0.6-1.1,1v0.1C686.9,307.4,687.7,308.5,689.4,308.5z"/>
		<path d="M697.3,309.5c-1.2,0-2.2-0.3-2.9-0.8l0.3-0.9c0.3,0.2,0.7,0.4,1.2,0.5c0.5,0.1,0.9,0.2,1.3,0.2c0.9,0,1.6-0.2,2.1-0.6
			c0.5-0.4,0.7-0.9,0.7-1.6s-0.2-1.2-0.7-1.6s-1.2-0.5-2-0.5h-1v-1h1c0.7,0,1.3-0.2,1.7-0.5s0.7-0.8,0.7-1.5c0-1.2-0.7-1.8-2.2-1.8
			c-0.7,0-1.5,0.3-2.4,0.8l-0.2-0.9c0.3-0.2,0.7-0.4,1.3-0.6c0.6-0.2,1.1-0.3,1.5-0.3c1,0,1.7,0.2,2.3,0.7c0.6,0.5,0.9,1.1,0.9,1.9
			c0,1.2-0.7,2.1-2,2.5c1.6,0.3,2.4,1.2,2.4,2.7c0,0.9-0.4,1.7-1.1,2.3C699.4,309.2,698.5,309.5,697.3,309.5z"/>
	</g>
	<g>
		<path d="M768,118.2v-9.6l-2,0.5v-0.7l2.5-1.2h0.6v11H768z"/>
		<path d="M771.1,120.2l0.6-3.1h1.3l-1.2,3.1H771.1z"/>
		<path d="M779.3,118.3c-1.2,0-2.1-0.4-2.8-1.3c-0.7-0.8-1.1-2.1-1.1-3.8v-0.9c0-1.8,0.4-3,1.1-3.8c0.7-0.8,1.6-1.2,2.8-1.2
			c1.1,0,2.1,0.4,2.7,1.2c0.7,0.8,1,2,1,3.8v1c0,1.7-0.3,3-1,3.8C781.4,117.9,780.4,118.3,779.3,118.3z M779.3,117.4
			c0.9,0,1.5-0.3,2-0.9c0.4-0.6,0.7-1.6,0.7-3v-1.2c0-2.6-0.9-4-2.6-4c-1.8,0-2.7,1.3-2.7,3.9v1.2
			C776.6,116,777.5,117.4,779.3,117.4z"/>
		<path d="M787.2,118.2v-9.6l-2,0.5v-0.7l2.5-1.2h0.6v11H787.2z"/>
		<path d="M791,118.1v-0.7l2.6-2.7c0.9-0.9,1.5-1.7,1.9-2.3c0.4-0.6,0.6-1.3,0.6-2c0-0.7-0.2-1.3-0.5-1.6c-0.4-0.4-0.9-0.5-1.7-0.5
			c-0.8,0-1.6,0.3-2.4,0.9l-0.4-0.9c1-0.7,2-1,2.9-1c1,0,1.9,0.3,2.4,0.8c0.6,0.6,0.9,1.3,0.9,2.3c0,0.8-0.2,1.6-0.7,2.3
			c-0.4,0.7-1.2,1.6-2.3,2.7l-1.8,1.8h5v1H791z"/>
	</g>
	<g>
		<path d="M761.9,150v-0.7l2.6-2.7c0.9-0.9,1.5-1.7,1.9-2.3c0.4-0.6,0.6-1.3,0.6-2c0-0.7-0.2-1.3-0.5-1.6c-0.4-0.4-0.9-0.5-1.7-0.5
			c-0.8,0-1.6,0.3-2.4,0.9l-0.4-0.9c1-0.7,2-1,2.9-1c1,0,1.9,0.3,2.4,0.8s0.9,1.3,0.9,2.3c0,0.8-0.2,1.6-0.7,2.3
			c-0.4,0.7-1.2,1.6-2.3,2.7l-1.8,1.8h5v1H761.9z"/>
		<path d="M769.6,152.1l0.6-3.1h1.3l-1.2,3.1H769.6z"/>
		<path d="M775.6,150.1v-9.6l-2,0.5v-0.7l2.5-1.2h0.6v11H775.6z"/>
		<path d="M783.5,150.2c-1.2,0-2.1-0.4-2.8-1.3c-0.7-0.8-1.1-2.1-1.1-3.8v-0.9c0-1.8,0.4-3,1.1-3.8c0.7-0.8,1.6-1.2,2.8-1.2
			c1.1,0,2.1,0.4,2.7,1.2c0.7,0.8,1,2,1,3.8v1c0,1.7-0.3,3-1,3.8C785.6,149.8,784.7,150.2,783.5,150.2z M783.5,149.2
			c0.9,0,1.5-0.3,2-0.9c0.4-0.6,0.7-1.6,0.7-3V144c0-2.6-0.9-4-2.6-4c-1.8,0-2.7,1.3-2.7,3.9v1.2
			C780.9,147.9,781.7,149.2,783.5,149.2z"/>
		<path d="M793.5,150.2c-1.2,0-2.1-0.4-2.8-1.3c-0.7-0.8-1.1-2.1-1.1-3.8v-0.9c0-1.8,0.4-3,1.1-3.8c0.7-0.8,1.6-1.2,2.8-1.2
			c1.1,0,2.1,0.4,2.7,1.2c0.7,0.8,1,2,1,3.8v1c0,1.7-0.3,3-1,3.8C795.6,149.8,794.7,150.2,793.5,150.2z M793.5,149.2
			c0.9,0,1.5-0.3,2-0.9s0.7-1.6,0.7-3V144c0-2.6-0.9-4-2.6-4c-1.8,0-2.7,1.3-2.7,3.9v1.2C790.9,147.9,791.8,149.2,793.5,149.2z"/>
	</g>
	<g>
		<path d="M784.9,182c-1.2,0-2.2-0.3-2.9-0.8l0.3-0.9c0.3,0.2,0.7,0.4,1.2,0.5s0.9,0.2,1.3,0.2c0.9,0,1.6-0.2,2.1-0.6
			c0.5-0.4,0.7-0.9,0.7-1.6s-0.2-1.2-0.7-1.6c-0.5-0.4-1.2-0.5-2-0.5h-1v-1h1c0.7,0,1.3-0.2,1.7-0.5s0.7-0.8,0.7-1.5
			c0-1.2-0.7-1.8-2.2-1.8c-0.7,0-1.5,0.3-2.4,0.8l-0.2-0.9c0.3-0.2,0.7-0.4,1.3-0.6c0.6-0.2,1.1-0.3,1.5-0.3c1,0,1.7,0.2,2.3,0.7
			s0.9,1.1,0.9,1.9c0,1.2-0.7,2.1-2,2.5c1.6,0.3,2.4,1.2,2.4,2.7c0,0.9-0.4,1.7-1.1,2.3S786.1,182,784.9,182z"/>
		<path d="M794,171c1.2,0,2.1,0.4,2.7,1.2c0.6,0.8,0.9,2,0.9,3.5v0.7c0,1.8-0.3,3.2-1,4.2s-1.7,1.5-3,1.5c-1.1,0-1.9-0.2-2.6-0.7
			l0.3-0.8c0.6,0.4,1.4,0.5,2.2,0.5c0.9,0,1.6-0.3,2.1-1c0.5-0.7,0.7-1.8,0.8-3.3c-0.7,0.8-1.6,1.2-2.7,1.2c-0.9,0-1.7-0.3-2.3-0.9
			s-1-1.4-1-2.4c0-1,0.3-1.9,0.9-2.6C792.1,171.3,793,171,794,171z M794,172c-0.7,0-1.3,0.2-1.7,0.7s-0.6,1.1-0.6,1.9
			c0,0.8,0.2,1.4,0.6,1.8c0.4,0.4,1,0.6,1.7,0.6c0.5,0,1-0.1,1.4-0.4c0.4-0.3,0.8-0.6,1.1-1v-0.3C796.5,173.1,795.7,172,794,172z"/>
	</g>
	<g>
		<path d="M765.2,213.8v-9.6l-2,0.5V204l2.5-1.2h0.6v11H765.2z"/>
		<path d="M768.3,215.8l0.6-3.1h1.3l-1.2,3.1H768.3z"/>
		<path d="M776.4,213.9c-1.2,0-2.1-0.4-2.8-1.3c-0.7-0.8-1.1-2.1-1.1-3.8v-0.9c0-1.8,0.4-3,1.1-3.8s1.6-1.2,2.8-1.2
			c1.1,0,2.1,0.4,2.7,1.2c0.7,0.8,1,2,1,3.8v1c0,1.7-0.3,3-1,3.8C778.5,213.5,777.6,213.9,776.4,213.9z M776.4,213
			c0.9,0,1.5-0.3,2-0.9c0.4-0.6,0.7-1.6,0.7-3v-1.2c0-2.6-0.9-4-2.6-4c-1.8,0-2.7,1.3-2.7,3.9v1.2C773.8,211.6,774.7,213,776.4,213z
			"/>
		<path d="M782.5,213.7V213l2.6-2.7c0.9-0.9,1.5-1.7,1.9-2.3c0.4-0.6,0.6-1.3,0.6-2c0-0.7-0.2-1.3-0.5-1.6c-0.4-0.4-0.9-0.5-1.7-0.5
			c-0.8,0-1.6,0.3-2.4,0.9l-0.4-0.9c1-0.7,2-1,2.9-1c1,0,1.9,0.3,2.4,0.8c0.6,0.6,0.9,1.3,0.9,2.3c0,0.8-0.2,1.6-0.7,2.3
			c-0.4,0.7-1.2,1.6-2.3,2.7l-1.8,1.8h5v1H782.5z"/>
		<path d="M793.7,213.9c-1.2,0-2.2-0.3-2.9-0.8l0.3-0.9c0.3,0.2,0.7,0.4,1.2,0.5c0.5,0.1,0.9,0.2,1.3,0.2c0.9,0,1.6-0.2,2.1-0.6
			s0.7-0.9,0.7-1.6c0-0.7-0.2-1.2-0.7-1.6c-0.5-0.4-1.2-0.5-2-0.5h-1v-1h1c0.7,0,1.3-0.2,1.7-0.5c0.4-0.4,0.7-0.8,0.7-1.5
			c0-1.2-0.7-1.8-2.2-1.8c-0.7,0-1.5,0.3-2.4,0.8l-0.2-0.9c0.3-0.2,0.7-0.4,1.3-0.6s1.1-0.3,1.5-0.3c1,0,1.7,0.2,2.3,0.7
			c0.6,0.5,0.9,1.1,0.9,1.9c0,1.2-0.7,2.1-2,2.5c1.6,0.3,2.4,1.2,2.4,2.7c0,0.9-0.4,1.7-1.1,2.3
			C795.8,213.6,794.8,213.9,793.7,213.9z"/>
	</g>
	<g>
		<path d="M777.5,245.9v-2.6h-5v-0.9l5.1-7.7h0.9v7.6h1.9v1h-1.9v2.6H777.5z M773.7,242.3h3.9v-5.8L773.7,242.3z"/>
		<path d="M785.4,245.8c-1.1,0-2-0.3-2.7-0.8s-1-1.3-1-2.1c0-0.7,0.2-1.2,0.7-1.7s1.1-0.9,1.7-1.1c-1.4-0.5-2.1-1.4-2.1-2.6
			c0-0.8,0.3-1.4,0.9-1.9s1.4-0.8,2.4-0.8c1,0,1.8,0.2,2.4,0.7c0.6,0.5,0.9,1.1,0.9,1.9c0,0.6-0.2,1.1-0.6,1.5
			c-0.4,0.4-0.9,0.8-1.6,1.1c1.7,0.6,2.6,1.5,2.6,2.8c0,0.9-0.3,1.6-1,2.2C787.4,245.5,786.5,245.8,785.4,245.8z M785.4,244.8
			c0.7,0,1.3-0.2,1.8-0.5s0.7-0.8,0.7-1.4c0-0.6-0.2-1.1-0.6-1.4c-0.4-0.3-1.1-0.7-2.2-1c-0.6,0.2-1.1,0.5-1.5,0.9
			c-0.4,0.4-0.6,0.9-0.6,1.4c0,0.6,0.2,1.1,0.7,1.4C784,244.6,784.6,244.8,785.4,244.8z M785.6,239.5c1.2-0.6,1.8-1.3,1.8-2.2
			c0-0.5-0.2-0.9-0.5-1.2c-0.4-0.3-0.9-0.5-1.5-0.5c-0.6,0-1.1,0.1-1.5,0.4c-0.4,0.3-0.6,0.7-0.6,1.2
			C783.2,238.3,784,239.1,785.6,239.5z"/>
		<path d="M793.7,245.7c-1.2,0-2.2-0.3-2.9-0.8l0.3-0.9c0.3,0.2,0.7,0.4,1.2,0.5c0.5,0.1,0.9,0.2,1.3,0.2c0.9,0,1.6-0.2,2.1-0.6
			c0.5-0.4,0.7-0.9,0.7-1.6s-0.2-1.2-0.7-1.6c-0.5-0.4-1.2-0.5-2-0.5h-1v-1h1c0.7,0,1.3-0.2,1.7-0.5s0.7-0.8,0.7-1.5
			c0-1.2-0.7-1.8-2.2-1.8c-0.7,0-1.5,0.3-2.4,0.8l-0.2-0.9c0.3-0.2,0.7-0.4,1.3-0.6c0.6-0.2,1.1-0.3,1.5-0.3c1,0,1.7,0.2,2.3,0.7
			c0.6,0.5,0.9,1.1,0.9,1.9c0,1.2-0.7,2.1-2,2.5c1.6,0.3,2.4,1.2,2.4,2.7c0,0.9-0.4,1.7-1.1,2.3
			C795.8,245.4,794.8,245.7,793.7,245.7z"/>
	</g>
	<g>
		<path d="M775.2,277.6c-1.2,0-2.2-0.3-3-0.8l0.2-0.9c0.3,0.2,0.7,0.4,1.2,0.5c0.5,0.2,0.9,0.2,1.4,0.2c0.9,0,1.5-0.2,2-0.7
			c0.5-0.5,0.7-1.1,0.7-1.9c0-1.6-0.9-2.4-2.7-2.4c-0.7,0-1.5,0.2-2.2,0.5l0.4-5.6h5.4v1h-4.4l-0.2,3.4c0.5-0.1,1.1-0.2,1.6-0.2
			c2.3,0,3.5,1.1,3.5,3.2c0,1-0.3,1.8-1,2.5C777.3,277.3,776.4,277.6,775.2,277.6z"/>
		<path d="M783.9,266.6c1.2,0,2.1,0.4,2.7,1.2c0.6,0.8,0.9,2,0.9,3.5v0.7c0,1.8-0.3,3.2-1,4.2c-0.7,1-1.7,1.5-3,1.5
			c-1.1,0-1.9-0.2-2.6-0.7l0.3-0.8c0.6,0.4,1.4,0.5,2.2,0.5c0.9,0,1.6-0.3,2.1-1s0.7-1.8,0.8-3.3c-0.7,0.8-1.6,1.2-2.7,1.2
			c-0.9,0-1.7-0.3-2.3-0.9s-1-1.4-1-2.4c0-1,0.3-1.9,0.9-2.6C782.1,266.9,782.9,266.6,783.9,266.6z M784,267.5
			c-0.7,0-1.3,0.2-1.7,0.7s-0.6,1.1-0.6,1.9c0,0.8,0.2,1.4,0.6,1.8c0.4,0.4,1,0.6,1.7,0.6c0.5,0,1-0.1,1.4-0.4
			c0.4-0.3,0.8-0.6,1.1-1v-0.3C786.5,268.7,785.6,267.5,784,267.5z"/>
		<path d="M793.5,277.6c-1.2,0-2.1-0.4-2.8-1.3c-0.7-0.8-1.1-2.1-1.1-3.8v-0.9c0-1.8,0.4-3,1.1-3.8c0.7-0.8,1.6-1.2,2.8-1.2
			c1.1,0,2.1,0.4,2.7,1.2c0.7,0.8,1,2,1,3.8v1c0,1.7-0.3,3-1,3.8C795.6,277.2,794.7,277.6,793.5,277.6z M793.5,276.7
			c0.9,0,1.5-0.3,2-0.9c0.4-0.6,0.7-1.6,0.7-3v-1.2c0-2.6-0.9-4-2.6-4c-1.8,0-2.7,1.3-2.7,3.9v1.2
			C790.9,275.3,791.8,276.7,793.5,276.7z"/>
	</g>
	<g>
		<path d="M765.5,309.5c-1.2,0-2.2-0.3-3-0.8l0.2-0.9c0.3,0.2,0.7,0.4,1.2,0.5c0.5,0.2,0.9,0.2,1.4,0.2c0.9,0,1.5-0.2,2-0.7
			s0.7-1.1,0.7-1.9c0-1.6-0.9-2.4-2.7-2.4c-0.7,0-1.5,0.2-2.2,0.5l0.4-5.6h5.4v1h-4.4l-0.2,3.4c0.5-0.1,1.1-0.2,1.6-0.2
			c2.3,0,3.5,1.1,3.5,3.2c0,1-0.3,1.8-1,2.5C767.5,309.2,766.6,309.5,765.5,309.5z"/>
		<path d="M770.2,311.4l0.6-3.1h1.3l-1.2,3.1H770.2z"/>
		<path d="M774.4,309.3v-0.7l2.6-2.7c0.9-0.9,1.5-1.7,1.9-2.3c0.4-0.6,0.6-1.3,0.6-2c0-0.7-0.2-1.3-0.5-1.6
			c-0.4-0.4-0.9-0.5-1.7-0.5c-0.8,0-1.6,0.3-2.4,0.9l-0.4-0.9c1-0.7,2-1,2.9-1c1,0,1.9,0.3,2.4,0.8c0.6,0.6,0.9,1.3,0.9,2.3
			c0,0.8-0.2,1.6-0.7,2.3c-0.4,0.7-1.2,1.6-2.3,2.7l-1.8,1.8h5v1H774.4z"/>
		<path d="M787.5,309.6V307h-5v-0.9l5.1-7.7h0.9v7.6h1.9v1h-1.9v2.6H787.5z M783.6,306.1h3.9v-5.8L783.6,306.1z"/>
		<path d="M792.6,309.4l4.3-9.8h-5.6v-1h6.8v0.7l-4.3,10H792.6z"/>
	</g>
	<g>
		<path d="M271.3,118.1l4-10.7h1l4,10.7h-1.1l-1.2-3.3h-4.4l-1.2,3.3H271.3z M275.7,108.8l-1.9,5.2h3.8L275.7,108.8L275.7,108.8z"/>
		<path d="M289.8,115.6l-0.7,0.8c-0.8-0.5-1.5-1.2-2.2-2c-0.7-0.8-1.2-1.6-1.4-2.4c-0.2,0.9-0.7,1.7-1.3,2.6
			c-0.7,0.8-1.4,1.5-2.3,2.2l-0.7-0.8c1-0.6,1.9-1.5,2.6-2.6c0.7-1.1,1.1-2.3,1.1-3.5v-1.6h-3.3v-0.9h7.7v0.9h-3.4v1.6
			c0,1.2,0.4,2.3,1.1,3.4C287.9,114.3,288.8,115.1,289.8,115.6z M291.6,105.9h1v14h-1V105.9z"/>
		<path d="M298.7,106.7c1,0,1.8,0.3,2.5,0.9c0.7,0.6,1,1.4,1,2.4s-0.3,1.8-1,2.4c-0.7,0.6-1.5,0.9-2.5,0.9c-1,0-1.8-0.3-2.5-0.9
			s-1-1.4-1-2.4s0.3-1.8,1-2.4C296.9,107,297.8,106.7,298.7,106.7z M298.7,107.6c-0.7,0-1.3,0.2-1.8,0.7c-0.5,0.4-0.7,1-0.7,1.7
			s0.2,1.3,0.7,1.7c0.5,0.4,1,0.7,1.8,0.7c0.7,0,1.3-0.2,1.8-0.7c0.4-0.4,0.7-1,0.7-1.7s-0.2-1.3-0.7-1.7
			C300.1,107.8,299.5,107.6,298.7,107.6z M297.2,114.9h9.3v5h-1v-4.1h-8.2V114.9z M302.6,108.7v-0.8h2.8v-1.9h1v8.3h-1V112h-2.8
			v-0.8h2.8v-2.4H302.6z"/>
	</g>
	<g>
		<path d="M272.5,149.8v-10.7h3.2c1.2,0,2,0.2,2.6,0.7c0.5,0.4,0.8,1.1,0.8,2c0,1.3-0.6,2.1-1.9,2.4v0.1c1.6,0.2,2.4,1.1,2.4,2.6
			c0,0.9-0.3,1.6-0.9,2.2c-0.6,0.5-1.5,0.8-2.6,0.8H272.5z M273.6,143.8h2c1.6,0,2.4-0.7,2.4-2c0-0.7-0.2-1.2-0.6-1.5
			c-0.4-0.3-1-0.4-1.8-0.4h-2.1V143.8z M273.6,148.9h2.5c1.7,0,2.5-0.7,2.5-2.2c0-1.4-0.9-2.1-2.7-2.1h-2.3V148.9z"/>
		<path d="M289.6,147.3l-0.7,0.8c-0.8-0.5-1.5-1.2-2.2-2s-1.2-1.6-1.4-2.4c-0.2,0.9-0.7,1.7-1.3,2.6c-0.7,0.8-1.4,1.5-2.3,2.2
			l-0.7-0.8c1-0.6,1.9-1.5,2.6-2.6s1.1-2.3,1.1-3.5V140h-3.3v-0.9h7.7v0.9h-3.4v1.6c0,1.2,0.4,2.3,1.1,3.4
			C287.7,146,288.6,146.8,289.6,147.3z M291.4,137.6h1v14h-1V137.6z"/>
		<path d="M298.6,138.4c1,0,1.8,0.3,2.5,0.9c0.7,0.6,1,1.4,1,2.4s-0.3,1.8-1,2.4s-1.5,0.9-2.5,0.9c-1,0-1.8-0.3-2.5-0.9
			c-0.7-0.6-1-1.4-1-2.4s0.3-1.8,1-2.4C296.8,138.7,297.6,138.4,298.6,138.4z M298.6,139.3c-0.7,0-1.3,0.2-1.8,0.7
			c-0.5,0.4-0.7,1-0.7,1.7s0.2,1.3,0.7,1.7s1,0.7,1.8,0.7c0.7,0,1.3-0.2,1.8-0.7c0.4-0.4,0.7-1,0.7-1.7s-0.2-1.3-0.7-1.7
			C299.9,139.5,299.3,139.3,298.6,139.3z M297,146.6h9.3v5h-1v-4.1H297V146.6z M302.5,140.4v-0.8h2.8v-1.9h1v8.3h-1v-2.2h-2.8v-0.8
			h2.8v-2.4H302.5z"/>
	</g>
	<g>
		<path d="M276.6,182.1c-1.5,0-2.6-0.5-3.4-1.4c-0.8-0.9-1.2-2.3-1.2-4v-0.3c0-1.8,0.4-3.1,1.3-4c0.9-0.9,2-1.3,3.5-1.3
			c1,0,1.9,0.2,2.6,0.6v0.9c-0.9-0.4-1.8-0.6-2.7-0.6c-1.1,0-2,0.4-2.7,1.1c-0.6,0.7-1,1.8-1,3.2v0.5c0,1.5,0.3,2.6,0.9,3.4
			s1.5,1.1,2.7,1.1c0.9,0,1.9-0.2,2.8-0.7v0.9C278.7,181.9,277.8,182.1,276.6,182.1z"/>
		<path d="M289.5,179.5l-0.7,0.8c-0.8-0.5-1.5-1.2-2.2-2c-0.7-0.8-1.2-1.6-1.4-2.4c-0.2,0.9-0.7,1.7-1.3,2.6
			c-0.7,0.8-1.4,1.5-2.3,2.2l-0.7-0.8c1-0.6,1.9-1.5,2.6-2.6s1.1-2.3,1.1-3.5v-1.6h-3.3v-0.9h7.7v0.9h-3.4v1.6
			c0,1.2,0.4,2.3,1.1,3.4C287.6,178.1,288.5,178.9,289.5,179.5z M291.3,169.8h1v14h-1V169.8z"/>
		<path d="M298.5,170.6c1,0,1.8,0.3,2.5,0.9c0.7,0.6,1,1.4,1,2.4s-0.3,1.8-1,2.4c-0.7,0.6-1.5,0.9-2.5,0.9c-1,0-1.8-0.3-2.5-0.9
			s-1-1.4-1-2.4s0.3-1.8,1-2.4S297.5,170.6,298.5,170.6z M298.5,171.5c-0.7,0-1.3,0.2-1.8,0.7c-0.5,0.4-0.7,1-0.7,1.7
			s0.2,1.3,0.7,1.7c0.5,0.4,1,0.7,1.8,0.7c0.7,0,1.3-0.2,1.8-0.7c0.4-0.4,0.7-1,0.7-1.7s-0.2-1.3-0.7-1.7
			C299.8,171.7,299.2,171.5,298.5,171.5z M296.9,178.8h9.3v5h-1v-4.1h-8.2V178.8z M302.4,172.6v-0.8h2.8v-1.9h1v8.3h-1v-2.2h-2.8
			V175h2.8v-2.4H302.4z"/>
	</g>
	<g>
		<path d="M272,213.8v-10.7h3c3.4,0,5.1,1.7,5.1,5.1v0.3c0,3.6-1.7,5.3-5.1,5.3H272z M273,212.9h2.1c1.4,0,2.3-0.3,3-1s1-1.8,1-3.3
			v-0.4c0-1.5-0.3-2.6-1-3.3c-0.7-0.7-1.7-1-3.1-1H273V212.9z"/>
		<path d="M290.1,211.3l-0.7,0.8c-0.8-0.5-1.5-1.2-2.2-2s-1.2-1.6-1.4-2.4c-0.2,0.9-0.7,1.7-1.3,2.6c-0.7,0.8-1.4,1.5-2.3,2.2
			l-0.7-0.8c1-0.6,1.9-1.5,2.6-2.6c0.7-1.1,1.1-2.3,1.1-3.5V204h-3.3v-0.9h7.7v0.9h-3.4v1.6c0,1.2,0.4,2.3,1.1,3.4
			C288.3,210,289.1,210.8,290.1,211.3z M291.9,201.6h1v14h-1V201.6z"/>
		<path d="M299.1,202.4c1,0,1.8,0.3,2.5,0.9c0.7,0.6,1,1.4,1,2.4s-0.3,1.8-1,2.4c-0.7,0.6-1.5,0.9-2.5,0.9c-1,0-1.8-0.3-2.5-0.9
			c-0.7-0.6-1-1.4-1-2.4s0.3-1.8,1-2.4C297.3,202.7,298.1,202.4,299.1,202.4z M299.1,203.3c-0.7,0-1.3,0.2-1.8,0.7
			c-0.5,0.4-0.7,1-0.7,1.7s0.2,1.3,0.7,1.7c0.5,0.4,1,0.7,1.8,0.7c0.7,0,1.3-0.2,1.8-0.7s0.7-1,0.7-1.7s-0.2-1.3-0.7-1.7
			C300.4,203.5,299.8,203.3,299.1,203.3z M297.5,210.6h9.3v5h-1v-4.1h-8.2V210.6z M303,204.4v-0.8h2.8v-1.9h1v8.3h-1v-2.2H303v-0.8
			h2.8v-2.4H303z"/>
	</g>
	<g>
		<path d="M272.8,245.8V235h6.3v0.9h-5.3v3.9h4.1v0.9h-4.1v4.2h5.3v0.9H272.8z"/>
		<path d="M289.3,243.3l-0.7,0.8c-0.8-0.5-1.5-1.2-2.2-2s-1.2-1.6-1.4-2.4c-0.2,0.9-0.7,1.7-1.3,2.6c-0.7,0.8-1.4,1.5-2.3,2.2
			l-0.7-0.8c1-0.6,1.9-1.5,2.6-2.6c0.7-1.1,1.1-2.3,1.1-3.5v-1.6h-3.3V235h7.7v0.9h-3.4v1.6c0,1.2,0.4,2.3,1.1,3.4
			C287.4,241.9,288.3,242.7,289.3,243.3z M291.1,233.6h1v14h-1V233.6z"/>
		<path d="M298.3,234.4c1,0,1.8,0.3,2.5,0.9c0.7,0.6,1,1.4,1,2.4s-0.3,1.8-1,2.4c-0.7,0.6-1.5,0.9-2.5,0.9c-1,0-1.8-0.3-2.5-0.9
			c-0.7-0.6-1-1.4-1-2.4c0-1,0.3-1.8,1-2.4C296.5,234.7,297.3,234.4,298.3,234.4z M298.3,235.2c-0.7,0-1.3,0.2-1.8,0.7
			c-0.5,0.4-0.7,1-0.7,1.7s0.2,1.3,0.7,1.7c0.5,0.4,1,0.7,1.8,0.7c0.7,0,1.3-0.2,1.8-0.7s0.7-1,0.7-1.7c0-0.7-0.2-1.3-0.7-1.7
			C299.6,235.5,299,235.2,298.3,235.2z M296.7,242.6h9.3v5h-1v-4.1h-8.2V242.6z M302.2,236.3v-0.8h2.8v-1.9h1v8.3h-1v-2.2h-2.8v-0.8
			h2.8v-2.4H302.2z"/>
	</g>
	<g>
		<path d="M273.1,278.1v-10.7h6.2v0.9h-5.1v4h4v0.9h-4v5H273.1z"/>
		<path d="M289.1,275.6l-0.7,0.8c-0.8-0.5-1.5-1.2-2.2-2c-0.7-0.8-1.2-1.6-1.4-2.4c-0.2,0.9-0.7,1.7-1.3,2.6
			c-0.7,0.8-1.4,1.5-2.3,2.2l-0.7-0.8c1-0.6,1.9-1.5,2.6-2.6c0.7-1.1,1.1-2.3,1.1-3.5v-1.6H281v-0.9h7.7v0.9h-3.4v1.6
			c0,1.2,0.4,2.3,1.1,3.4C287.2,274.3,288.1,275.1,289.1,275.6z M290.9,265.9h1v14h-1V265.9z"/>
		<path d="M298,266.7c1,0,1.8,0.3,2.5,0.9c0.7,0.6,1,1.4,1,2.4s-0.3,1.8-1,2.4s-1.5,0.9-2.5,0.9c-1,0-1.8-0.3-2.5-0.9
			c-0.7-0.6-1-1.4-1-2.4c0-1,0.3-1.8,1-2.4S297.1,266.7,298,266.7z M298,267.6c-0.7,0-1.3,0.2-1.8,0.7c-0.5,0.4-0.7,1-0.7,1.7
			s0.2,1.3,0.7,1.7c0.5,0.4,1,0.7,1.8,0.7c0.7,0,1.3-0.2,1.8-0.7c0.4-0.4,0.7-1,0.7-1.7c0-0.7-0.2-1.3-0.7-1.7
			C299.4,267.8,298.8,267.6,298,267.6z M296.5,274.9h9.3v5h-1v-4.1h-8.2V274.9z M301.9,268.7v-0.8h2.8v-1.9h1v8.3h-1V272h-2.8v-0.8
			h2.8v-2.4H301.9z"/>
	</g>
	<g>
		<path d="M284.3,300.2h-8v-0.9h8V300.2z M283.4,303.2c0,0.7-0.3,1.3-0.9,1.7c-0.6,0.4-1.3,0.6-2.3,0.6c-0.9,0-1.7-0.2-2.3-0.6
			s-0.9-1-0.9-1.7s0.3-1.3,0.9-1.7s1.3-0.6,2.3-0.6c0.9,0,1.7,0.2,2.3,0.6C283.1,302,283.4,302.5,283.4,303.2z M281.8,304.3
			c0.4-0.3,0.6-0.6,0.6-1.1c0-0.4-0.2-0.8-0.6-1c-0.4-0.3-0.9-0.4-1.5-0.4c-0.6,0-1.1,0.1-1.5,0.4s-0.6,0.6-0.6,1
			c0,0.4,0.2,0.8,0.6,1.1s0.9,0.4,1.5,0.4C280.9,304.7,281.4,304.5,281.8,304.3z M282.3,298.4h-4v-0.9h4V298.4z M287.1,311h-8.7v-5
			h1v1.5h6.7V306h1V311z M286.1,310.2v-1.7h-6.7v1.7H286.1z M289.3,302.2h-2.2v3.1h-1v-8.1h1v4.1h2.2V302.2z"/>
		<path d="M296,299c-0.1,2-0.5,3.8-1.4,5.2c-0.9,1.5-2.1,2.7-3.8,3.8l-0.7-0.8c1.4-0.8,2.6-1.9,3.4-3.2s1.3-2.7,1.3-4.2h-4.2V299
			H296z M299.4,310.5h-1v-4.9h-2.4v-0.9h2.4V302h-2.2v-0.9h2.2v-3.6h1V310.5z M302,311.2h-1v-14h1V311.2z"/>
	</g>
	<g>
		<path d="M458.9,73.6v1.6c0,0.5-0.2,0.9-0.5,1.3s-0.7,0.6-1.2,0.7v-0.6c0.3-0.1,0.5-0.3,0.7-0.5c0.2-0.2,0.3-0.5,0.3-0.9h-1v-1.6
			H458.9z"/>
		<path d="M462.5,85.2v-9.4l-2,0.4v-0.8l2.6-1.2h0.8v11H462.5z"/>
		<path d="M467.4,85.2l4.2-9.6h-5.3v-1.2h6.9v0.9l-4.1,9.9H467.4z"/>
		<path d="M482,80.7c-1.5,0.3-3.3,0.5-5.3,0.5c-0.4,0-1,0-1.7,0V74h1.4V80c2.2,0,4-0.2,5.5-0.5C481.9,80.1,482,80.4,482,80.7z
			 M486,86.6h-9.4v-4.2h1.4v3.1h8V86.6z M484.2,76.1H480V75h4.3v-2h1.4v10.1h-1.4v-4.5H480v-1.1h4.3V76.1z"/>
	</g>
	<g>
		<path d="M553.9,73.6v1.6c0,0.5-0.2,0.9-0.5,1.3c-0.3,0.4-0.7,0.6-1.2,0.7v-0.6c0.3-0.1,0.5-0.3,0.7-0.5c0.2-0.2,0.3-0.5,0.3-0.9
			h-1v-1.6H553.9z"/>
		<path d="M557.5,85.2v-9.4l-2,0.4v-0.8l2.6-1.2h0.8v11H557.5z"/>
		<path d="M565.2,85.4c-1.2,0-2.1-0.3-2.8-0.8s-1-1.3-1-2.1c0-0.7,0.2-1.2,0.7-1.7c0.5-0.5,1-0.9,1.7-1.1c-1.4-0.6-2-1.4-2-2.6
			c0-0.8,0.3-1.5,0.9-2c0.6-0.5,1.5-0.8,2.5-0.8c1,0,1.9,0.2,2.5,0.7c0.6,0.5,0.9,1.1,0.9,2c0,1-0.7,1.9-2.1,2.6
			c1.7,0.6,2.6,1.5,2.6,2.8c0,0.9-0.3,1.6-1,2.2C567.3,85.1,566.4,85.4,565.2,85.4z M565.2,84.3c0.7,0,1.3-0.2,1.7-0.5
			c0.4-0.3,0.7-0.8,0.7-1.3c0-0.6-0.2-1.1-0.6-1.4c-0.4-0.3-1.1-0.6-2.1-0.9c-0.6,0.2-1.1,0.5-1.5,0.9c-0.4,0.4-0.6,0.8-0.6,1.4
			c0,0.6,0.2,1,0.7,1.4C563.9,84.1,564.5,84.3,565.2,84.3z M565.5,79c1.2-0.5,1.7-1.2,1.7-2c0-0.5-0.2-0.9-0.5-1.1
			c-0.3-0.3-0.8-0.4-1.5-0.4c-0.6,0-1.1,0.1-1.5,0.4s-0.5,0.7-0.5,1.2C563.2,77.9,564,78.6,565.5,79z"/>
		<path d="M578.3,80.7c-1.5,0.3-3.3,0.5-5.3,0.5c-0.4,0-1,0-1.7,0V74h1.4V80c2.2,0,4-0.2,5.5-0.5C578.2,80.1,578.3,80.4,578.3,80.7z
			 M582.3,86.6h-9.4v-4.2h1.4v3.1h8V86.6z M580.5,76.1h-4.3V75h4.3v-2h1.4v10.1h-1.4v-4.5h-4.3v-1.1h4.3V76.1z"/>
	</g>
	<g>
		<path d="M649.6,73.6v1.6c0,0.5-0.2,0.9-0.5,1.3c-0.3,0.4-0.7,0.6-1.2,0.7v-0.6c0.3-0.1,0.5-0.3,0.7-0.5c0.2-0.2,0.3-0.5,0.3-0.9
			h-1v-1.6H649.6z"/>
		<path d="M653.2,85.2v-9.4l-2,0.4v-0.8l2.6-1.2h0.8v11H653.2z"/>
		<path d="M660.7,74.2c1.2,0,2.2,0.4,2.8,1.2c0.7,0.8,1,2,1,3.5v0.7c0,1.9-0.4,3.3-1.1,4.3c-0.7,1-1.8,1.4-3.1,1.4
			c-0.5,0-1-0.1-1.5-0.2c-0.5-0.1-0.9-0.3-1.1-0.5l0.4-1c0.6,0.4,1.3,0.5,2.2,0.5c0.9,0,1.6-0.3,2.1-0.9c0.5-0.6,0.7-1.6,0.8-3.1
			c-0.7,0.8-1.6,1.2-2.6,1.2c-0.9,0-1.7-0.3-2.3-0.9c-0.6-0.6-0.9-1.4-0.9-2.4c0-1.1,0.3-2,0.9-2.7
			C658.7,74.6,659.6,74.2,660.7,74.2z M660.7,75.4c-0.7,0-1.2,0.2-1.6,0.7c-0.4,0.5-0.6,1.1-0.6,1.8c0,0.8,0.2,1.4,0.6,1.8
			s0.9,0.6,1.6,0.6c0.4,0,0.9-0.1,1.3-0.4c0.4-0.3,0.8-0.6,1-0.9v-0.3c0-1-0.2-1.8-0.6-2.4C662.1,75.7,661.5,75.4,660.7,75.4z"/>
		<path d="M673.7,80.7c-1.5,0.3-3.3,0.5-5.3,0.5c-0.4,0-1,0-1.7,0V74h1.4V80c2.2,0,4-0.2,5.5-0.5C673.6,80.1,673.7,80.4,673.7,80.7z
			 M677.8,86.6h-9.4v-4.2h1.4v3.1h8V86.6z M676,76.1h-4.3V75h4.3v-2h1.4v10.1H676v-4.5h-4.3v-1.1h4.3V76.1z"/>
	</g>
	<g>
		<path d="M743.3,73.6v1.6c0,0.5-0.2,0.9-0.5,1.3c-0.3,0.4-0.7,0.6-1.2,0.7v-0.6c0.3-0.1,0.5-0.3,0.7-0.5c0.2-0.2,0.3-0.5,0.3-0.9
			h-1v-1.6H743.3z"/>
		<path d="M745.2,85.2v-0.8l2.5-2.6c0.9-0.9,1.5-1.7,2-2.3s0.6-1.3,0.6-2c0-0.7-0.2-1.2-0.5-1.6c-0.4-0.3-0.9-0.5-1.6-0.5
			c-0.7,0-1.5,0.3-2.4,0.8l-0.3-1.1c1-0.6,2-1,3-1c1.1,0,1.9,0.3,2.5,0.8c0.6,0.6,0.9,1.3,0.9,2.3c0,0.9-0.2,1.7-0.7,2.4
			c-0.5,0.7-1.2,1.6-2.3,2.7l-1.6,1.6h4.8v1.2H745.2z"/>
		<path d="M757.8,85.4c-1.2,0-2.2-0.4-2.9-1.3c-0.7-0.8-1.1-2.1-1.1-3.9v-0.8c0-1.8,0.4-3.1,1.1-3.9s1.7-1.2,2.9-1.2
			c1.2,0,2.1,0.4,2.8,1.2c0.7,0.8,1.1,2.1,1.1,3.8v0.9c0,1.7-0.4,3-1.1,3.9C759.9,85,759,85.4,757.8,85.4z M757.8,84.2
			c0.8,0,1.4-0.3,1.8-0.9c0.4-0.6,0.6-1.6,0.6-2.9v-1.1c0-2.6-0.8-3.9-2.4-3.9c-1.7,0-2.5,1.3-2.5,3.8v1.1
			C755.3,82.9,756.1,84.2,757.8,84.2z"/>
		<path d="M771.3,80.7c-1.5,0.3-3.3,0.5-5.3,0.5c-0.4,0-1,0-1.7,0V74h1.4V80c2.2,0,4-0.2,5.5-0.5C771.2,80.1,771.2,80.4,771.3,80.7z
			 M775.3,86.6h-9.4v-4.2h1.4v3.1h8V86.6z M773.5,76.1h-4.3V75h4.3v-2h1.4v10.1h-1.4v-4.5h-4.3v-1.1h4.3V76.1z"/>
	</g>
	<g>
		<path d="M362.8,73.6v1.6c0,0.5-0.2,0.9-0.5,1.3c-0.3,0.4-0.7,0.6-1.2,0.7v-0.6c0.3-0.1,0.5-0.3,0.7-0.5c0.2-0.2,0.3-0.5,0.3-0.9
			h-1v-1.6H362.8z"/>
		<path d="M366.4,85.2v-9.4l-2,0.4v-0.8l2.6-1.2h0.8v11H366.4z"/>
		<path d="M374.2,85.4c-1.2,0-2.1-0.4-2.8-1.3c-0.6-0.8-1-2-1-3.6v-0.8c0-1.9,0.4-3.2,1.1-4.1s1.8-1.4,3.1-1.4c0.5,0,1,0.1,1.4,0.2
			c0.5,0.1,0.8,0.3,1.1,0.4l-0.4,1c-0.2-0.1-0.5-0.2-0.9-0.3c-0.4-0.1-0.8-0.2-1.1-0.2c-0.9,0-1.7,0.3-2.2,0.9
			c-0.5,0.6-0.8,1.7-0.8,3.2c0.7-0.7,1.6-1.1,2.6-1.1c0.9,0,1.7,0.3,2.3,0.9c0.6,0.6,0.9,1.4,0.9,2.4c0,1.1-0.3,1.9-0.9,2.6
			C376.2,85,375.3,85.4,374.2,85.4z M374.2,84.2c0.7,0,1.2-0.2,1.6-0.6c0.4-0.4,0.6-1,0.6-1.8c0-1.5-0.7-2.3-2.1-2.3
			c-0.5,0-0.9,0.1-1.3,0.4c-0.4,0.3-0.8,0.6-1,0.9V81C371.9,83.2,372.6,84.2,374.2,84.2z"/>
		<path d="M386.9,80.7c-1.5,0.3-3.3,0.5-5.3,0.5c-0.4,0-1,0-1.7,0V74h1.4V80c2.2,0,4-0.2,5.5-0.5C386.8,80.1,386.9,80.4,386.9,80.7z
			 M390.9,86.6h-9.4v-4.2h1.4v3.1h8V86.6z M389.2,76.1h-4.3V75h4.3v-2h1.4v10.1h-1.4v-4.5h-4.3v-1.1h4.3V76.1z"/>
	</g>
	<rect x="251.2" y="62" class="st39" width="557.6" height="258"/>
	<line class="st39" x1="328.1" y1="62.2" x2="328.1" y2="320"/>
	<line class="st39" x1="251.2" y1="62" x2="251.2" y2="320"/>
	<line class="st39" x1="424.2" y1="62" x2="424.2" y2="320"/>
	<line class="st39" x1="520.4" y1="62.2" x2="520.4" y2="320"/>
	<line class="st39" x1="616.5" y1="62" x2="616.5" y2="320"/>
	<line class="st39" x1="808.8" y1="62" x2="808.8" y2="320"/>
	<line class="st39" x1="712.7" y1="62" x2="712.7" y2="320"/>
	<line class="st39" x1="251.2" y1="96.3" x2="808.8" y2="96.3"/>
	<line class="st39" x1="251.2" y1="160.2" x2="808.8" y2="160.2"/>
	<line class="st39" x1="251.2" y1="192.2" x2="808.8" y2="192.2"/>
	<line class="st39" x1="251.2" y1="128.3" x2="808.8" y2="128.3"/>
	<line class="st39" x1="251.2" y1="224.1" x2="808.8" y2="224.1"/>
	<line class="st39" x1="251.2" y1="256.1" x2="808.8" y2="256.1"/>
	<line class="st39" x1="251.2" y1="288" x2="808.8" y2="288"/>
	<line class="st39" x1="251.2" y1="320" x2="808.8" y2="320"/>
</g>
<g id="_x32_8">
</g>
<g id="_x32_7">
</g>
<g id="_x32_6">
</g>
<g id="_x32_5">
</g>
<g id="_x32_4">
</g>
<g id="_x32_3">
</g>
<g id="_x32_2">
</g>
<g id="_x32_1">
</g>
<g id="_x32_0">
</g>
<g id="_x31_9">
</g>
<g id="_x31_8">
</g>
<g id="_x31_7">
</g>
<g id="_x31_6">
</g>
<g id="_x31_5">
</g>
<g id="_x31_4">
</g>
<g id="_x31_3">
</g>
<g id="_x31_2">
</g>
<g id="_x31_1">
</g>
<g id="_x31_0">
</g>
<g id="_x39_">
</g>
<g id="_x38_">
</g>
<g id="_x37_">
</g>
<g id="_x36_">
</g>
<g id="_x35_">
</g>
<g id="_x34_">
</g>
<g id="_x33_">
</g>
<g id="_x32_">
</g>
<g id="_x31_">
</g>
<g id="레이어_28">
</g>
<g id="레이어_36">
</g>
</svg>
