<?xml version="1.0" encoding="utf-8"?>
<!-- Generator: Adobe Illustrator 22.0.1, SVG Export Plug-In . SVG Version: 6.00 Build 0)  -->
<svg version="1.1" xmlns="http://www.w3.org/2000/svg" xmlns:xlink="http://www.w3.org/1999/xlink" x="0px" y="0px"
	 viewBox="0 0 1060 330" style="enable-background:new 0 0 1060 330;" xml:space="preserve">
<style type="text/css">
	.st0{fill:#F0F0F0;}
	.st1{fill:none;stroke:#B4B4B5;stroke-width:0.25;}
	.st2{fill:none;stroke:#000000;stroke-width:0.5;stroke-linecap:square;stroke-miterlimit:10;}
	.st3{fill:#999999;stroke:#231815;stroke-width:0.5;stroke-miterlimit:10;}
	.st4{fill:none;stroke:#000000;stroke-width:0.5;stroke-miterlimit:10;}
	.st5{fill:none;stroke:#000000;stroke-width:2;stroke-linecap:round;stroke-miterlimit:10;}
	.st6{fill:#221F1F;}
	.st7{fill:#1A1A1A;}
	.st8{fill:#FFFFFF;}
	.st9{fill:#737373;}
	.st10{fill:#999999;}
	.st11{fill:#D9D9D9;}
	.st12{opacity:0.4;fill:url(#);}
	.st13{fill:url(#);}
	.st14{fill:#BAB9B6;}
	.st15{fill:#C4C3C0;}
	.st16{fill:#CECDCB;}
	.st17{fill:#D8D7D5;}
	.st18{fill:#E1E1E0;}
	.st19{fill:#EBEBEA;}
	.st20{fill:#F5F5F5;}
	.st21{opacity:0.1;fill-rule:evenodd;clip-rule:evenodd;fill:#1A1A1A;}
	.st22{opacity:0.1778;fill-rule:evenodd;clip-rule:evenodd;fill:#1A1A1A;}
	.st23{opacity:0.2556;fill-rule:evenodd;clip-rule:evenodd;fill:#1A1A1A;}
	.st24{opacity:0.3333;fill-rule:evenodd;clip-rule:evenodd;fill:#1A1A1A;}
	.st25{opacity:0.4111;fill-rule:evenodd;clip-rule:evenodd;fill:#1A1A1A;}
	.st26{opacity:0.4889;fill-rule:evenodd;clip-rule:evenodd;fill:#1A1A1A;}
	.st27{opacity:0.5667;fill-rule:evenodd;clip-rule:evenodd;fill:#1A1A1A;}
	.st28{opacity:0.6444;fill-rule:evenodd;clip-rule:evenodd;fill:#1A1A1A;}
	.st29{opacity:0.7222;fill-rule:evenodd;clip-rule:evenodd;fill:#1A1A1A;}
	.st30{opacity:0.8;fill-rule:evenodd;clip-rule:evenodd;fill:#1A1A1A;}
	.st31{fill-rule:evenodd;clip-rule:evenodd;fill:#FFFFFF;}
	.st32{fill:#040000;}
	.st33{fill:none;stroke:#FFFFFF;stroke-width:1.4173;}
	.st34{opacity:0.9;clip-path:url(#SVGID_3_);fill:url(#);}
	.st35{fill:#FFFFFF;stroke:#666666;stroke-width:0.5;}
	.st36{opacity:0.17;fill:#333333;}
	.st37{fill:#231815;}
	.st38{fill:#999999;stroke:#231815;stroke-width:0.5;}
	.st39{fill:none;stroke:#666666;stroke-width:0.5;stroke-miterlimit:10;}
	.st40{fill:#666666;}
	.st41{fill:none;}
	.st42{fill:none;stroke:#231815;stroke-width:0.5;}
	.st43{fill:none;stroke:#231815;stroke-width:0.5;stroke-linecap:square;}
	.st44{fill:#FFFFFF;stroke:#666666;stroke-width:0.5;stroke-linecap:square;}
	.st45{fill:#FFFFFF;stroke:#231815;stroke-width:0.25;stroke-miterlimit:10;}
	.st46{fill:none;stroke:#231815;stroke-width:0.75;stroke-dasharray:2,2;}
	.st47{fill:#FFFFFF;stroke:#231815;stroke-miterlimit:10;}
	.st48{fill:#B4B4B5;}
	.st49{fill:none;stroke:#B4B4B5;stroke-width:1.5;}
	.st50{fill:none;stroke:#231815;}
	.st51{fill:none;stroke:#231815;stroke-width:0.75;stroke-dasharray:2.5;}
	.st52{fill:none;stroke:#B4B4B5;stroke-width:1.5;stroke-miterlimit:10;}
	.st53{fill:#9E9E9F;}
	.st54{fill:none;stroke:#231815;stroke-miterlimit:10;}
	.st55{opacity:0.25;fill:#333333;}
	.st56{fill:none;stroke:#000000;stroke-miterlimit:10;}
	.st57{fill:#FFFFFF;stroke:#666666;stroke-width:0.5;stroke-miterlimit:10;}
	.st58{fill:#FFFFFF;stroke:#000000;stroke-width:0.5;stroke-miterlimit:10;}
	.st59{fill:#FFFFFF;stroke:#231815;stroke-width:0.5;}
</style>
<g id="레이어_3">
</g>
<g id="_x33_3">
	<rect y="0" class="st0" width="1060" height="330"/>
	<g>
		<g>
			<path d="M34,55.8c-1.8-1.9-2.6-4-2.6-6.5V49c0-2.5,0.9-4.7,2.6-6.5h0.9c-0.7,0.9-1.3,1.8-1.8,2.9s-0.7,2.3-0.7,3.5v0.4
				c0,1.2,0.2,2.4,0.7,3.5c0.5,1.1,1.1,2.1,1.8,3H34z"/>
			<path d="M43.9,49.2c-1.6,0.3-4.1,0.5-7.5,0.5v-6.4h6.2v0.9h-5.2v4.6c1.1,0,2.3,0,3.5-0.1c1.2-0.1,2.2-0.2,2.9-0.4L43.9,49.2z
				 M47.1,55.5H38v-4.2h1v3.4h8.1V55.5z M48.7,47h-2.2v5.2h-1V42h1v4.1h2.2V47z"/>
			<path d="M54.8,55.6h-1v-5c-0.4,0-1.8,0.1-4,0.1l-0.2-0.9c1.8,0,3.4,0,4.7-0.1c1.9-0.1,3.5-0.2,4.7-0.3l0.1,0.8
				c-0.9,0.1-2.3,0.2-4.4,0.3V55.6z M57.7,45.6c0,0.8-0.3,1.5-1,2c-0.7,0.5-1.5,0.8-2.6,0.8c-1,0-1.9-0.3-2.6-0.8
				c-0.7-0.5-1-1.2-1-2c0-0.9,0.3-1.6,1-2.1c0.7-0.5,1.5-0.8,2.6-0.8c1,0,1.9,0.3,2.6,0.8S57.7,44.8,57.7,45.6z M56.8,45.6
				c0-0.6-0.2-1.1-0.7-1.5c-0.5-0.4-1.1-0.5-1.8-0.5c-0.7,0-1.4,0.2-1.8,0.5s-0.7,0.8-0.7,1.5c0,0.6,0.2,1.1,0.7,1.4
				s1.1,0.5,1.8,0.5c0.7,0,1.3-0.2,1.8-0.5S56.8,46.2,56.8,45.6z M61.1,56h-1V42h1V56z"/>
			<path d="M68.8,47.1v-1.3H70v1.3H68.8z M68.8,53.3V52H70v1.3H68.8z"/>
			<path d="M83.5,49.7H77v-6.3h6.5V49.7z M82.5,48.8v-4.6h-4.4v4.6H82.5z M87.8,55.5h-9.3v-4.3h1v3.4h8.2V55.5z M89.3,47.1h-2.2v5.1
				h-1V42h1v4.2h2.2V47.1z"/>
			<path d="M105.5,48.2h-4.1v1.8h5.8v0.9H94.5v-0.9h5.8v-1.8h-4.1v-5.5h9.2v0.9h-8.2V45h7.8v0.8h-7.8v1.5h8.2V48.2z M105.6,55.5
				h-9.4v-3.7h1v2.8h8.4V55.5z"/>
			<path d="M108.1,55.8c0.7-0.9,1.3-1.8,1.8-2.9s0.7-2.3,0.7-3.5V49c0-1.2-0.2-2.4-0.7-3.5c-0.5-1.1-1.1-2.1-1.8-3h0.9
				c1.8,1.9,2.6,4,2.6,6.5v0.3c0,2.5-0.9,4.6-2.6,6.5H108.1z"/>
		</g>
	</g>
	<g>
		<g>
			<path d="M573.3,62.8c-1.8-1.9-2.6-4-2.6-6.5V56c0-2.5,0.9-4.7,2.6-6.5h0.9c-0.7,0.9-1.3,1.8-1.8,2.9c-0.5,1.1-0.7,2.3-0.7,3.5
				v0.4c0,1.2,0.2,2.4,0.7,3.5c0.5,1.1,1.1,2.1,1.8,3H573.3z"/>
			<path d="M583.2,56.2c-1.6,0.3-4.1,0.5-7.5,0.5v-6.4h6.2v0.9h-5.2v4.6c1.1,0,2.3,0,3.5-0.1c1.2-0.1,2.2-0.2,2.9-0.4L583.2,56.2z
				 M586.5,62.5h-9.2v-4.2h1v3.4h8.1V62.5z M588,54h-2.2v5.2h-1V49h1v4.1h2.2V54z"/>
			<path d="M594.1,62.6h-1v-5c-0.4,0-1.8,0.1-4,0.1l-0.2-0.9c1.8,0,3.4,0,4.7-0.1c1.9-0.1,3.5-0.2,4.7-0.3l0.1,0.8
				c-0.9,0.1-2.3,0.2-4.4,0.3V62.6z M597.1,52.6c0,0.8-0.3,1.5-1,2c-0.7,0.5-1.5,0.8-2.6,0.8s-1.9-0.3-2.6-0.8c-0.7-0.5-1-1.2-1-2
				c0-0.9,0.3-1.6,1-2.1s1.5-0.8,2.6-0.8c1,0,1.9,0.3,2.6,0.8C596.7,51.1,597.1,51.8,597.1,52.6z M596.1,52.6c0-0.6-0.2-1.1-0.7-1.5
				s-1.1-0.5-1.8-0.5s-1.4,0.2-1.8,0.5s-0.7,0.8-0.7,1.5c0,0.6,0.2,1.1,0.7,1.4s1.1,0.5,1.8,0.5c0.7,0,1.3-0.2,1.8-0.5
				S596.1,53.2,596.1,52.6z M600.4,63h-1V49h1V63z"/>
			<path d="M608.1,54.1v-1.3h1.3v1.3H608.1z M608.1,60.3V59h1.3v1.3H608.1z"/>
			<path d="M619.5,49.8c1,0,1.8,0.3,2.5,0.9c0.7,0.6,1,1.4,1,2.4s-0.3,1.8-1,2.4c-0.7,0.6-1.5,0.9-2.5,0.9c-1,0-1.8-0.3-2.5-0.9
				c-0.7-0.6-1-1.4-1-2.4s0.3-1.8,1-2.4C617.7,50.1,618.5,49.8,619.5,49.8z M619.5,50.7c-0.7,0-1.3,0.2-1.8,0.7
				c-0.5,0.4-0.7,1-0.7,1.7s0.2,1.3,0.7,1.7c0.5,0.4,1,0.7,1.8,0.7c0.7,0,1.3-0.2,1.8-0.7c0.4-0.4,0.7-1,0.7-1.7s-0.2-1.3-0.7-1.7
				C620.9,50.9,620.3,50.7,619.5,50.7z M627.2,63h-1v-4.1h-8.2V58h9.3V63z M626.2,53.5h-2.6v-0.9h2.6V49h1v8.3h-1V53.5z"/>
			<path d="M641.8,55.1c-2.1,0.4-4.6,0.5-7.4,0.4v-5.7h6.3v0.9h-5.2v3.9c2.4,0.1,4.5-0.1,6.2-0.4L641.8,55.1z M645.1,62.9h-9.2v-3.5
				h7.7v-1.6h-7.8V57h8.8v3.3h-7.7V62h8.2V62.9z M646.7,53.1h-2.2v3.2h-1V49h1v3.2h2.2V53.1z"/>
			<path d="M655.7,59.1c-1.8,0.3-4.3,0.5-7.4,0.5v-5.3h5.2v-3.1h-5.2v-0.9h6.2v4.8h-5.2v3.6c2.4,0,4.5-0.2,6.2-0.5L655.7,59.1z
				 M658.1,55.4h-2.7v-0.9h2.7V49h1v14h-1V55.4z"/>
			<path d="M661.3,62.8c0.7-0.9,1.3-1.8,1.8-2.9c0.5-1.1,0.7-2.3,0.7-3.5V56c0-1.2-0.2-2.4-0.7-3.5c-0.5-1.1-1.1-2.1-1.8-3h0.9
				c1.8,1.9,2.6,4,2.6,6.5v0.3c0,2.5-0.9,4.6-2.6,6.5H661.3z"/>
		</g>
	</g>
	<circle cx="1001.5" cy="128.2" r="4.8"/>
	<g>
		<path d="M230.1,23.2V22h8.6v1.3h-3.5c0.1,0.8,0.5,1.5,1.2,2.1c0.7,0.6,1.5,1,2.4,1.2l-0.8,1.2c-0.7-0.2-1.4-0.6-2.1-1.1
			c-0.7-0.5-1.2-1.1-1.6-1.8c-0.2,0.7-0.7,1.3-1.4,1.9c-0.7,0.6-1.5,1.1-2.4,1.4c-0.1-0.1-0.2-0.3-0.4-0.6c-0.2-0.3-0.3-0.5-0.4-0.6
			c1-0.3,1.9-0.8,2.6-1.5c0.7-0.7,1.1-1.5,1.2-2.3H230.1z M232.2,20.8v-1.3h4.4v1.3H232.2z M243.1,35.1h-10.7v-3.9h8.6v-1.3h-8.6
			v-1.3h10.2v3.8H234v1.4h9.1V35.1z M242.6,27.8H241v-2.5h-2.7V24h2.7v-4.5h1.6V27.8z"/>
		<path d="M246,20.6h7.1c-0.1,2-0.7,3.7-2,5.1c-1.3,1.4-3,2.4-5.1,3l-0.8-1.3c1.5-0.3,2.9-1,4.1-2c1.2-1,1.9-2.2,2.1-3.5H246V20.6z
			 M257.7,32.1c0,0.9-0.5,1.7-1.4,2.3s-2.2,0.8-3.9,0.8c-1.7,0-3-0.3-3.9-0.8c-0.9-0.6-1.4-1.3-1.4-2.3c0-1,0.5-1.7,1.4-2.3
			c0.9-0.5,2.2-0.8,3.9-0.8c1.7,0,3,0.3,3.9,0.8S257.7,31.1,257.7,32.1z M255.1,30.8c-0.7-0.3-1.6-0.5-2.7-0.5c-1.1,0-2,0.2-2.7,0.5
			c-0.6,0.3-1,0.8-1,1.3c0,0.6,0.3,1,1,1.3c0.6,0.3,1.5,0.5,2.7,0.5c1.1,0,2-0.2,2.7-0.5s1-0.8,1-1.3
			C256,31.5,255.7,31.1,255.1,30.8z M259.8,24.7h-2.3v4.2h-1.6v-9.4h1.6v4h2.3V24.7z"/>
		<path d="M268.7,30.3l-1,1.1c-0.6-0.4-1.2-1-1.8-1.8c-0.6-0.8-1-1.5-1.2-2.3c-0.2,0.8-0.6,1.6-1.2,2.4c-0.6,0.8-1.3,1.5-2,2l-1-1.1
			c1-0.7,1.9-1.6,2.5-2.7s0.9-2.5,0.9-4v-1.3h-3v-1.3h7.5v1.3h-2.9v1.3c0,1.5,0.3,2.7,0.9,3.8S267.8,29.7,268.7,30.3z M274.2,35.2
			h-1.5v-8h-1.7v7.3h-1.5V19.8h1.5v6.1h1.7v-6.4h1.5V35.2z"/>
		<path d="M289,35.2h-1.6v-5.7h-6.3v-1.3h14.2v1.3H289V35.2z M294.8,25.4l-0.8,1.3c-1.2-0.2-2.4-0.7-3.5-1.4
			c-1.1-0.7-1.9-1.5-2.3-2.3c-0.3,0.8-1.1,1.6-2.2,2.3c-1.1,0.7-2.3,1.2-3.6,1.4l-0.7-1.3c1.5-0.2,2.8-0.7,4-1.6s1.7-1.8,1.7-2.9v-1
			h1.7v1c0,0.7,0.3,1.4,0.9,2.1c0.6,0.7,1.3,1.2,2.2,1.7C293.1,25.1,294,25.3,294.8,25.4z"/>
		<path d="M309.7,34.9h-11.3v-3.5h9.1v-1h-9.2v-1.2h4.6V28h-6.3v-1.2H311V28h-6.3v1.2h4.6v3.4h-9.1v1.1h9.6V34.9z M310.2,24.9
			l-0.7,1.3c-1.3-0.1-2.5-0.4-3.5-0.9c-1.1-0.5-1.8-1-2.2-1.6c-0.4,0.6-1.1,1.2-2.2,1.6c-1.1,0.5-2.2,0.8-3.6,0.9l-0.7-1.3
			c1.2,0,2.3-0.2,3.3-0.6c1-0.4,1.7-0.9,2.1-1.4h-4.6v-1.2h11.2v1.2h-4.6c0.4,0.5,1.1,1,2.1,1.4C308,24.6,309.1,24.8,310.2,24.9z
			 M306.4,20.7h-5.1v-1.3h5.1V20.7z"/>
		<path d="M321.6,27.7c-0.7,0.1-1.8,0.3-3.1,0.4s-2.6,0.2-3.7,0.2h-1.9v-4.7h5.4v-1.9h-5.5v-1.3h7.1v4.4h-5.4v2.1h0.3
			c2.8,0,5-0.2,6.5-0.5L321.6,27.7z M323.3,30.1c0.9,0.5,1.4,1.2,1.4,2.2c0,0.9-0.5,1.6-1.4,2.1c-0.9,0.5-2.2,0.8-3.9,0.8
			c-1.7,0-3-0.3-3.9-0.8c-0.9-0.5-1.4-1.2-1.4-2.1c0-0.9,0.5-1.6,1.4-2.2c0.9-0.5,2.2-0.8,3.9-0.8C321.1,29.3,322.4,29.5,323.3,30.1
			z M322.1,31c-0.6-0.3-1.5-0.4-2.7-0.4c-1.1,0-2,0.1-2.7,0.4s-1,0.7-1,1.2s0.3,0.9,1,1.2s1.5,0.4,2.7,0.4c1.1,0,2-0.1,2.7-0.4
			c0.6-0.3,1-0.7,1-1.2C323,31.7,322.7,31.3,322.1,31z M326.8,25.2v1.3h-2.3V29h-1.6v-9.5h1.6v2.4h2.3v1.3h-2.3v2.1H326.8z"/>
	</g>
	<g>
		<path d="M768.5,23.2V22h8.6v1.3h-3.5c0.1,0.8,0.5,1.5,1.2,2.1c0.7,0.6,1.5,1,2.4,1.2l-0.8,1.2c-0.7-0.2-1.4-0.6-2.1-1.1
			c-0.7-0.5-1.2-1.1-1.6-1.8c-0.2,0.7-0.7,1.3-1.4,1.9c-0.7,0.6-1.5,1.1-2.4,1.4c-0.1-0.1-0.2-0.3-0.4-0.6c-0.2-0.3-0.3-0.5-0.4-0.6
			c1-0.3,1.9-0.8,2.6-1.5c0.7-0.7,1.1-1.5,1.2-2.3H768.5z M770.6,20.8v-1.3h4.4v1.3H770.6z M781.5,35.1h-10.7v-3.9h8.6v-1.3h-8.6
			v-1.3H781v3.8h-8.6v1.4h9.1V35.1z M781,27.8h-1.6v-2.5h-2.7V24h2.7v-4.5h1.6V27.8z"/>
		<path d="M784.3,20.6h7.1c-0.1,2-0.7,3.7-2,5.1c-1.3,1.4-3,2.4-5.1,3l-0.8-1.3c1.5-0.3,2.9-1,4.1-2c1.2-1,1.9-2.2,2.1-3.5h-5.3
			V20.6z M796,32.1c0,0.9-0.5,1.7-1.4,2.3s-2.2,0.8-3.9,0.8c-1.7,0-3-0.3-3.9-0.8s-1.4-1.3-1.4-2.3c0-1,0.5-1.7,1.4-2.3
			s2.2-0.8,3.9-0.8c1.7,0,3,0.3,3.9,0.8S796,31.1,796,32.1z M793.4,30.8c-0.7-0.3-1.6-0.5-2.7-0.5c-1.1,0-2,0.2-2.7,0.5
			c-0.6,0.3-1,0.8-1,1.3c0,0.6,0.3,1,1,1.3c0.6,0.3,1.5,0.5,2.7,0.5c1.1,0,2-0.2,2.7-0.5s1-0.8,1-1.3
			C794.4,31.5,794.1,31.1,793.4,30.8z M798.1,24.7h-2.3v4.2h-1.6v-9.4h1.6v4h2.3V24.7z"/>
		<path d="M807.1,30.3l-1,1.1c-0.6-0.4-1.2-1-1.8-1.8c-0.6-0.8-1-1.5-1.2-2.3c-0.2,0.8-0.6,1.6-1.2,2.4c-0.6,0.8-1.3,1.5-2,2l-1-1.1
			c1-0.7,1.9-1.6,2.5-2.7s0.9-2.5,0.9-4v-1.3h-3v-1.3h7.5v1.3h-2.9v1.3c0,1.5,0.3,2.7,0.9,3.8S806.1,29.7,807.1,30.3z M812.5,35.2
			H811v-8h-1.7v7.3h-1.5V19.8h1.5v6.1h1.7v-6.4h1.5V35.2z"/>
		<path d="M832.1,35.2h-1.6v-5.7h-6.3v-1.3h14.2v1.3h-6.3V35.2z M837.9,25.4l-0.8,1.3c-1.2-0.2-2.4-0.7-3.5-1.4
			c-1.1-0.7-1.9-1.5-2.3-2.3c-0.3,0.8-1.1,1.6-2.2,2.3c-1.1,0.7-2.3,1.2-3.6,1.4l-0.7-1.3c1.5-0.2,2.8-0.7,4-1.6
			c1.2-0.9,1.7-1.8,1.7-2.9v-1h1.7v1c0,0.7,0.3,1.4,0.9,2.1c0.6,0.7,1.3,1.2,2.2,1.7C836.2,25.1,837.1,25.3,837.9,25.4z"/>
		<path d="M852.8,34.9h-11.3v-3.5h9.1v-1h-9.2v-1.2h4.6V28h-6.3v-1.2H854V28h-6.3v1.2h4.6v3.4h-9.1v1.1h9.6V34.9z M853.3,24.9
			l-0.7,1.3c-1.3-0.1-2.5-0.4-3.5-0.9c-1.1-0.5-1.8-1-2.2-1.6c-0.4,0.6-1.1,1.2-2.2,1.6c-1.1,0.5-2.2,0.8-3.6,0.9l-0.7-1.3
			c1.2,0,2.3-0.2,3.3-0.6c1-0.4,1.7-0.9,2.1-1.4h-4.6v-1.2h11.2v1.2H848c0.4,0.5,1.1,1,2.1,1.4C851.1,24.6,852.2,24.8,853.3,24.9z
			 M849.5,20.7h-5.1v-1.3h5.1V20.7z"/>
		<path d="M862.9,24.1c0,1.1-0.3,2-1,2.7c-0.7,0.7-1.5,1.1-2.7,1.1c-1.1,0-2-0.4-2.7-1.1s-1-1.6-1-2.7c0-1.1,0.3-2,1-2.7
			c0.7-0.7,1.6-1.1,2.7-1.1s2,0.3,2.7,1S862.9,23,862.9,24.1z M861.4,24.1c0-0.7-0.2-1.3-0.6-1.7c-0.4-0.4-0.9-0.7-1.5-0.7
			s-1.1,0.2-1.5,0.7c-0.4,0.4-0.6,1-0.6,1.7c0,0.7,0.2,1.2,0.6,1.7c0.4,0.4,0.9,0.7,1.5,0.7s1.1-0.2,1.5-0.7
			C861.2,25.3,861.4,24.8,861.4,24.1z M868.7,35.2h-1.6v-4.4H858v-1.3h10.7V35.2z M868.7,28.7h-1.5v-4h-1.7v3.9H864v-8.8h1.5v3.7
			h1.7v-3.9h1.5V28.7z"/>
	</g>
	<line class="st1" x1="86.9" y1="73.5" x2="530" y2="73.5"/>
	<line class="st1" x1="605.8" y1="80.6" x2="1031.9" y2="80.6"/>
	<line class="st1" x1="605.8" y1="109.8" x2="1031.9" y2="109.8"/>
	<line class="st1" x1="606" y1="138.4" x2="1032.1" y2="138.4"/>
	<line class="st1" x1="605.8" y1="167.1" x2="1031.9" y2="167.1"/>
	<line class="st1" x1="605.8" y1="195.8" x2="1031.9" y2="195.8"/>
	<line class="st1" x1="605.8" y1="224.4" x2="1031.9" y2="224.4"/>
	<line class="st1" x1="605.8" y1="253.1" x2="1031.9" y2="253.1"/>
	<line class="st1" x1="86.9" y1="109.1" x2="530" y2="109.1"/>
	<line class="st1" x1="86.9" y1="144.8" x2="530" y2="144.8"/>
	<line class="st1" x1="86.9" y1="180.5" x2="530" y2="180.5"/>
	<line class="st1" x1="86.9" y1="216.1" x2="530" y2="216.1"/>
	<line class="st1" x1="86.9" y1="251.8" x2="530" y2="251.8"/>
	<line class="st2" x1="86.9" y1="287.5" x2="530" y2="287.5"/>
	<line class="st2" x1="86.9" y1="287.5" x2="86.9" y2="292.5"/>
	<line class="st2" x1="530" y1="287.5" x2="530" y2="292.5"/>
	<line class="st2" x1="466.7" y1="287.5" x2="466.7" y2="292.5"/>
	<line class="st2" x1="403.4" y1="287.5" x2="403.4" y2="292.5"/>
	<line class="st2" x1="340.1" y1="287.5" x2="340.1" y2="292.5"/>
	<line class="st2" x1="276.8" y1="287.5" x2="276.8" y2="292.5"/>
	<line class="st2" x1="213.5" y1="287.5" x2="213.5" y2="292.5"/>
	<line class="st2" x1="150.2" y1="287.5" x2="150.2" y2="292.5"/>
	<g>
		<path d="M68.9,292.4c-1.2,0-2.1-0.4-2.8-1.3c-0.7-0.8-1.1-2.1-1.1-3.8v-0.9c0-1.8,0.4-3,1.1-3.8s1.6-1.2,2.8-1.2
			c1.1,0,2.1,0.4,2.7,1.2c0.7,0.8,1,2,1,3.8v1c0,1.7-0.3,3-1,3.8C71,292,70,292.4,68.9,292.4z M68.9,291.4c0.9,0,1.5-0.3,2-0.9
			s0.7-1.6,0.7-3v-1.2c0-2.6-0.9-4-2.6-4c-1.8,0-2.7,1.3-2.7,3.9v1.2C66.2,290.1,67.1,291.4,68.9,291.4z"/>
	</g>
	<g>
		<path d="M36.3,256.6V256l2.6-2.7c0.9-0.9,1.5-1.7,1.9-2.3c0.4-0.6,0.6-1.3,0.6-2c0-0.7-0.2-1.3-0.5-1.6c-0.4-0.4-0.9-0.5-1.7-0.5
			c-0.8,0-1.6,0.3-2.4,0.9l-0.4-0.9c1-0.7,2-1,2.9-1c1,0,1.9,0.3,2.4,0.8c0.6,0.6,0.9,1.3,0.9,2.3c0,0.8-0.2,1.6-0.7,2.3
			s-1.2,1.6-2.3,2.7l-1.8,1.8h5v1H36.3z"/>
		<path d="M48.8,256.8c-1.2,0-2.1-0.4-2.8-1.3c-0.7-0.8-1.1-2.1-1.1-3.8v-0.9c0-1.8,0.4-3,1.1-3.8s1.6-1.2,2.8-1.2
			c1.1,0,2.1,0.4,2.7,1.2c0.7,0.8,1,2,1,3.8v1c0,1.7-0.3,3-1,3.8C50.9,256.4,50,256.8,48.8,256.8z M48.8,255.9c0.9,0,1.5-0.3,2-0.9
			s0.7-1.6,0.7-3v-1.2c0-2.6-0.9-4-2.6-4c-1.8,0-2.7,1.3-2.7,3.9v1.2C46.2,254.5,47.1,255.9,48.8,255.9z"/>
		<path d="M58.9,256.8c-1.2,0-2.1-0.4-2.8-1.3c-0.7-0.8-1.1-2.1-1.1-3.8v-0.9c0-1.8,0.4-3,1.1-3.8s1.6-1.2,2.8-1.2
			c1.1,0,2.1,0.4,2.7,1.2c0.7,0.8,1,2,1,3.8v1c0,1.7-0.3,3-1,3.8C60.9,256.4,60,256.8,58.9,256.8z M58.9,255.9c0.9,0,1.5-0.3,2-0.9
			s0.7-1.6,0.7-3v-1.2c0-2.6-0.9-4-2.6-4c-1.8,0-2.7,1.3-2.7,3.9v1.2C56.2,254.5,57.1,255.9,58.9,255.9z"/>
		<path d="M68.9,256.8c-1.2,0-2.1-0.4-2.8-1.3c-0.7-0.8-1.1-2.1-1.1-3.8v-0.9c0-1.8,0.4-3,1.1-3.8s1.6-1.2,2.8-1.2
			c1.1,0,2.1,0.4,2.7,1.2c0.7,0.8,1,2,1,3.8v1c0,1.7-0.3,3-1,3.8C71,256.4,70,256.8,68.9,256.8z M68.9,255.9c0.9,0,1.5-0.3,2-0.9
			s0.7-1.6,0.7-3v-1.2c0-2.6-0.9-4-2.6-4c-1.8,0-2.7,1.3-2.7,3.9v1.2C66.3,254.5,67.1,255.9,68.9,255.9z"/>
	</g>
	<g>
		<path d="M40.5,221.3v-2.6h-5v-0.9l5.1-7.7h0.9v7.6h1.9v1h-1.9v2.6H40.5z M36.7,217.7h3.9v-5.8L36.7,217.7z"/>
		<path d="M48.8,221.2c-1.2,0-2.1-0.4-2.8-1.3c-0.7-0.8-1.1-2.1-1.1-3.8v-0.9c0-1.8,0.4-3,1.1-3.8s1.6-1.2,2.8-1.2
			c1.1,0,2.1,0.4,2.7,1.2c0.7,0.8,1,2,1,3.8v1c0,1.7-0.3,3-1,3.8C50.9,220.7,50,221.2,48.8,221.2z M48.8,220.2c0.9,0,1.5-0.3,2-0.9
			s0.7-1.6,0.7-3V215c0-2.6-0.9-4-2.6-4c-1.8,0-2.7,1.3-2.7,3.9v1.2C46.2,218.9,47.1,220.2,48.8,220.2z"/>
		<path d="M58.9,221.2c-1.2,0-2.1-0.4-2.8-1.3c-0.7-0.8-1.1-2.1-1.1-3.8v-0.9c0-1.8,0.4-3,1.1-3.8s1.6-1.2,2.8-1.2
			c1.1,0,2.1,0.4,2.7,1.2c0.7,0.8,1,2,1,3.8v1c0,1.7-0.3,3-1,3.8C60.9,220.7,60,221.2,58.9,221.2z M58.9,220.2c0.9,0,1.5-0.3,2-0.9
			s0.7-1.6,0.7-3V215c0-2.6-0.9-4-2.6-4c-1.8,0-2.7,1.3-2.7,3.9v1.2C56.2,218.9,57.1,220.2,58.9,220.2z"/>
		<path d="M68.9,221.2c-1.2,0-2.1-0.4-2.8-1.3c-0.7-0.8-1.1-2.1-1.1-3.8v-0.9c0-1.8,0.4-3,1.1-3.8s1.6-1.2,2.8-1.2
			c1.1,0,2.1,0.4,2.7,1.2c0.7,0.8,1,2,1,3.8v1c0,1.7-0.3,3-1,3.8C71,220.7,70,221.2,68.9,221.2z M68.9,220.2c0.9,0,1.5-0.3,2-0.9
			s0.7-1.6,0.7-3V215c0-2.6-0.9-4-2.6-4c-1.8,0-2.7,1.3-2.7,3.9v1.2C66.3,218.9,67.1,220.2,68.9,220.2z"/>
	</g>
	<g>
		<path d="M39.6,185.5c-1.2,0-2.1-0.4-2.7-1.2c-0.6-0.8-0.9-2-0.9-3.6v-0.8c0-1.8,0.4-3.2,1.1-4.1s1.7-1.3,3-1.3
			c1,0,1.8,0.2,2.5,0.6l-0.4,0.8c-0.2-0.1-0.5-0.2-0.9-0.3c-0.4-0.1-0.8-0.2-1.1-0.2c-1,0-1.7,0.3-2.2,1c-0.5,0.6-0.8,1.8-0.8,3.5
			c0.7-0.8,1.6-1.2,2.7-1.2c0.9,0,1.7,0.3,2.3,0.9c0.6,0.6,0.9,1.4,0.9,2.4c0,1-0.3,1.9-0.9,2.6S40.6,185.5,39.6,185.5z M39.6,184.5
			c0.7,0,1.3-0.2,1.7-0.7c0.4-0.4,0.6-1.1,0.6-1.8c0-0.8-0.2-1.4-0.6-1.8c-0.4-0.4-1-0.6-1.7-0.6c-0.5,0-1,0.1-1.4,0.4
			c-0.4,0.3-0.8,0.6-1.1,1v0.1C37.1,183.4,37.9,184.5,39.6,184.5z"/>
		<path d="M48.8,185.5c-1.2,0-2.1-0.4-2.8-1.3c-0.7-0.8-1.1-2.1-1.1-3.8v-0.9c0-1.8,0.4-3,1.1-3.8s1.6-1.2,2.8-1.2
			c1.1,0,2.1,0.4,2.7,1.2c0.7,0.8,1,2,1,3.8v1c0,1.7-0.3,3-1,3.8C50.9,185.1,50,185.5,48.8,185.5z M48.8,184.5c0.9,0,1.5-0.3,2-0.9
			s0.7-1.6,0.7-3v-1.2c0-2.6-0.9-4-2.6-4c-1.8,0-2.7,1.3-2.7,3.9v1.2C46.2,183.2,47.1,184.5,48.8,184.5z"/>
		<path d="M58.9,185.5c-1.2,0-2.1-0.4-2.8-1.3c-0.7-0.8-1.1-2.1-1.1-3.8v-0.9c0-1.8,0.4-3,1.1-3.8s1.6-1.2,2.8-1.2
			c1.1,0,2.1,0.4,2.7,1.2c0.7,0.8,1,2,1,3.8v1c0,1.7-0.3,3-1,3.8C60.9,185.1,60,185.5,58.9,185.5z M58.9,184.5c0.9,0,1.5-0.3,2-0.9
			s0.7-1.6,0.7-3v-1.2c0-2.6-0.9-4-2.6-4c-1.8,0-2.7,1.3-2.7,3.9v1.2C56.2,183.2,57.1,184.5,58.9,184.5z"/>
		<path d="M68.9,185.5c-1.2,0-2.1-0.4-2.8-1.3c-0.7-0.8-1.1-2.1-1.1-3.8v-0.9c0-1.8,0.4-3,1.1-3.8s1.6-1.2,2.8-1.2
			c1.1,0,2.1,0.4,2.7,1.2c0.7,0.8,1,2,1,3.8v1c0,1.7-0.3,3-1,3.8C71,185.1,70,185.5,68.9,185.5z M68.9,184.5c0.9,0,1.5-0.3,2-0.9
			s0.7-1.6,0.7-3v-1.2c0-2.6-0.9-4-2.6-4c-1.8,0-2.7,1.3-2.7,3.9v1.2C66.3,183.2,67.1,184.5,68.9,184.5z"/>
	</g>
	<g>
		<path d="M39.2,149.9c-1.1,0-2-0.3-2.7-0.8c-0.7-0.5-1-1.3-1-2.1c0-0.7,0.2-1.2,0.7-1.7c0.5-0.5,1.1-0.9,1.7-1.1
			c-1.4-0.5-2.1-1.4-2.1-2.6c0-0.8,0.3-1.4,0.9-1.9c0.6-0.5,1.4-0.8,2.4-0.8s1.8,0.2,2.4,0.7c0.6,0.5,0.9,1.1,0.9,1.9
			c0,0.6-0.2,1.1-0.6,1.5c-0.4,0.4-0.9,0.8-1.6,1.1c1.7,0.6,2.6,1.5,2.6,2.8c0,0.9-0.3,1.6-1,2.2C41.2,149.6,40.3,149.9,39.2,149.9z
			 M39.2,148.9c0.7,0,1.3-0.2,1.8-0.5c0.5-0.4,0.7-0.8,0.7-1.4c0-0.6-0.2-1.1-0.6-1.4c-0.4-0.3-1.1-0.7-2.2-1
			c-0.6,0.2-1.1,0.5-1.5,0.9c-0.4,0.4-0.6,0.9-0.6,1.4c0,0.6,0.2,1.1,0.7,1.4C37.9,148.7,38.5,148.9,39.2,148.9z M39.4,143.6
			c1.2-0.6,1.8-1.3,1.8-2.2c0-0.5-0.2-0.9-0.5-1.2c-0.4-0.3-0.9-0.5-1.5-0.5c-0.6,0-1.1,0.1-1.5,0.4s-0.6,0.7-0.6,1.2
			C37.1,142.4,37.8,143.1,39.4,143.6z"/>
		<path d="M48.8,149.8c-1.2,0-2.1-0.4-2.8-1.3c-0.7-0.8-1.1-2.1-1.1-3.8v-0.9c0-1.8,0.4-3,1.1-3.8s1.6-1.2,2.8-1.2
			c1.1,0,2.1,0.4,2.7,1.2c0.7,0.8,1,2,1,3.8v1c0,1.7-0.3,3-1,3.8C50.9,149.4,50,149.8,48.8,149.8z M48.8,148.9c0.9,0,1.5-0.3,2-0.9
			s0.7-1.6,0.7-3v-1.2c0-2.6-0.9-4-2.6-4c-1.8,0-2.7,1.3-2.7,3.9v1.2C46.2,147.5,47.1,148.9,48.8,148.9z"/>
		<path d="M58.9,149.8c-1.2,0-2.1-0.4-2.8-1.3c-0.7-0.8-1.1-2.1-1.1-3.8v-0.9c0-1.8,0.4-3,1.1-3.8s1.6-1.2,2.8-1.2
			c1.1,0,2.1,0.4,2.7,1.2c0.7,0.8,1,2,1,3.8v1c0,1.7-0.3,3-1,3.8C60.9,149.4,60,149.8,58.9,149.8z M58.9,148.9c0.9,0,1.5-0.3,2-0.9
			s0.7-1.6,0.7-3v-1.2c0-2.6-0.9-4-2.6-4c-1.8,0-2.7,1.3-2.7,3.9v1.2C56.2,147.5,57.1,148.9,58.9,148.9z"/>
		<path d="M68.9,149.8c-1.2,0-2.1-0.4-2.8-1.3c-0.7-0.8-1.1-2.1-1.1-3.8v-0.9c0-1.8,0.4-3,1.1-3.8s1.6-1.2,2.8-1.2
			c1.1,0,2.1,0.4,2.7,1.2c0.7,0.8,1,2,1,3.8v1c0,1.7-0.3,3-1,3.8C71,149.4,70,149.8,68.9,149.8z M68.9,148.9c0.9,0,1.5-0.3,2-0.9
			s0.7-1.6,0.7-3v-1.2c0-2.6-0.9-4-2.6-4c-1.8,0-2.7,1.3-2.7,3.9v1.2C66.3,147.5,67.1,148.9,68.9,148.9z"/>
	</g>
	<g>
		<path d="M30.9,114.1v-9.6l-2,0.5v-0.7l2.5-1.2H32v11H30.9z"/>
		<path d="M38.8,114.2c-1.2,0-2.1-0.4-2.8-1.3c-0.7-0.8-1.1-2.1-1.1-3.8v-0.9c0-1.8,0.4-3,1.1-3.8s1.6-1.2,2.8-1.2
			c1.1,0,2.1,0.4,2.7,1.2c0.7,0.8,1,2,1,3.8v1c0,1.7-0.3,3-1,3.8C40.9,113.7,40,114.2,38.8,114.2z M38.8,113.2c0.9,0,1.5-0.3,2-0.9
			s0.7-1.6,0.7-3V108c0-2.6-0.9-4-2.6-4c-1.8,0-2.7,1.3-2.7,3.9v1.2C36.2,111.9,37,113.2,38.8,113.2z"/>
		<path d="M48.8,114.2c-1.2,0-2.1-0.4-2.8-1.3c-0.7-0.8-1.1-2.1-1.1-3.8v-0.9c0-1.8,0.4-3,1.1-3.8s1.6-1.2,2.8-1.2
			c1.1,0,2.1,0.4,2.7,1.2c0.7,0.8,1,2,1,3.8v1c0,1.7-0.3,3-1,3.8C50.9,113.7,50,114.2,48.8,114.2z M48.8,113.2c0.9,0,1.5-0.3,2-0.9
			s0.7-1.6,0.7-3V108c0-2.6-0.9-4-2.6-4c-1.8,0-2.7,1.3-2.7,3.9v1.2C46.2,111.9,47.1,113.2,48.8,113.2z"/>
		<path d="M58.9,114.2c-1.2,0-2.1-0.4-2.8-1.3c-0.7-0.8-1.1-2.1-1.1-3.8v-0.9c0-1.8,0.4-3,1.1-3.8s1.6-1.2,2.8-1.2
			c1.1,0,2.1,0.4,2.7,1.2c0.7,0.8,1,2,1,3.8v1c0,1.7-0.3,3-1,3.8C60.9,113.7,60,114.2,58.9,114.2z M58.9,113.2c0.9,0,1.5-0.3,2-0.9
			s0.7-1.6,0.7-3V108c0-2.6-0.9-4-2.6-4c-1.8,0-2.7,1.3-2.7,3.9v1.2C56.2,111.9,57.1,113.2,58.9,113.2z"/>
		<path d="M68.9,114.2c-1.2,0-2.1-0.4-2.8-1.3c-0.7-0.8-1.1-2.1-1.1-3.8v-0.9c0-1.8,0.4-3,1.1-3.8s1.6-1.2,2.8-1.2
			c1.1,0,2.1,0.4,2.7,1.2c0.7,0.8,1,2,1,3.8v1c0,1.7-0.3,3-1,3.8C71,113.7,70,114.2,68.9,114.2z M68.9,113.2c0.9,0,1.5-0.3,2-0.9
			s0.7-1.6,0.7-3V108c0-2.6-0.9-4-2.6-4c-1.8,0-2.7,1.3-2.7,3.9v1.2C66.3,111.9,67.1,113.2,68.9,113.2z"/>
	</g>
	<g>
		<path d="M32.4,78.4v-9.6l-2,0.5v-0.7l2.5-1.2h0.6v11H32.4z"/>
		<path d="M36.3,78.3v-0.7l2.6-2.7c0.9-0.9,1.5-1.7,1.9-2.3c0.4-0.6,0.6-1.3,0.6-2c0-0.7-0.2-1.3-0.5-1.6c-0.4-0.4-0.9-0.5-1.7-0.5
			c-0.8,0-1.6,0.3-2.4,0.9l-0.4-0.9c1-0.7,2-1,2.9-1c1,0,1.9,0.3,2.4,0.8c0.6,0.6,0.9,1.3,0.9,2.3c0,0.8-0.2,1.6-0.7,2.3
			s-1.2,1.6-2.3,2.7l-1.8,1.8h5v1H36.3z"/>
		<path d="M48.8,78.5c-1.2,0-2.1-0.4-2.8-1.3c-0.7-0.8-1.1-2.1-1.1-3.8v-0.9c0-1.8,0.4-3,1.1-3.8s1.6-1.2,2.8-1.2
			c1.1,0,2.1,0.4,2.7,1.2c0.7,0.8,1,2,1,3.8v1c0,1.7-0.3,3-1,3.8C50.9,78.1,50,78.5,48.8,78.5z M48.8,77.5c0.9,0,1.5-0.3,2-0.9
			s0.7-1.6,0.7-3v-1.2c0-2.6-0.9-4-2.6-4c-1.8,0-2.7,1.3-2.7,3.9v1.2C46.2,76.2,47.1,77.5,48.8,77.5z"/>
		<path d="M58.9,78.5c-1.2,0-2.1-0.4-2.8-1.3c-0.7-0.8-1.1-2.1-1.1-3.8v-0.9c0-1.8,0.4-3,1.1-3.8s1.6-1.2,2.8-1.2
			c1.1,0,2.1,0.4,2.7,1.2c0.7,0.8,1,2,1,3.8v1c0,1.7-0.3,3-1,3.8C60.9,78.1,60,78.5,58.9,78.5z M58.9,77.5c0.9,0,1.5-0.3,2-0.9
			s0.7-1.6,0.7-3v-1.2c0-2.6-0.9-4-2.6-4c-1.8,0-2.7,1.3-2.7,3.9v1.2C56.2,76.2,57.1,77.5,58.9,77.5z"/>
		<path d="M68.9,78.5c-1.2,0-2.1-0.4-2.8-1.3c-0.7-0.8-1.1-2.1-1.1-3.8v-0.9c0-1.8,0.4-3,1.1-3.8s1.6-1.2,2.8-1.2
			c1.1,0,2.1,0.4,2.7,1.2c0.7,0.8,1,2,1,3.8v1c0,1.7-0.3,3-1,3.8C71,78.1,70,78.5,68.9,78.5z M68.9,77.5c0.9,0,1.5-0.3,2-0.9
			s0.7-1.6,0.7-3v-1.2c0-2.6-0.9-4-2.6-4c-1.8,0-2.7,1.3-2.7,3.9v1.2C66.3,76.2,67.1,77.5,68.9,77.5z"/>
	</g>
	<line class="st2" x1="86.9" y1="287.5" x2="86.9" y2="73.5"/>
	<g>
		<g>
			<line class="st2" x1="81.9" y1="287.5" x2="86.9" y2="287.5"/>
			<line class="st2" x1="81.9" y1="251.8" x2="86.9" y2="251.8"/>
			<line class="st2" x1="81.9" y1="216.1" x2="86.9" y2="216.1"/>
			<line class="st2" x1="81.9" y1="180.5" x2="86.9" y2="180.5"/>
			<line class="st2" x1="81.9" y1="144.8" x2="86.9" y2="144.8"/>
			<line class="st2" x1="81.9" y1="109.1" x2="86.9" y2="109.1"/>
			<line class="st2" x1="81.9" y1="73.5" x2="86.9" y2="73.5"/>
		</g>
	</g>
	<g>
		<g>
			<rect x="478.9" y="102.9" class="st3" width="40" height="184.6"/>
		</g>
	</g>
	<g>
		<g>
			<rect x="415.5" y="123.4" class="st3" width="40" height="164.1"/>
		</g>
	</g>
	<g>
		<g>
			<rect x="352" y="176.7" class="st3" width="40" height="110.7"/>
		</g>
	</g>
	<g>
		<g>
			<rect x="288.6" y="191.9" class="st3" width="40" height="95.6"/>
		</g>
	</g>
	<g>
		<g>
			<rect x="225.1" y="201.9" class="st3" width="40" height="85.6"/>
		</g>
	</g>
	<g>
		<g>
			<rect x="161.6" y="216.1" class="st3" width="40" height="71.3"/>
		</g>
	</g>
	<g>
		<g>
			<rect x="98.2" y="248.2" class="st3" width="40" height="39.2"/>
		</g>
	</g>
	<g>
		<path d="M99,243.2v-0.7l2.6-2.7c0.9-0.9,1.5-1.7,1.9-2.3c0.4-0.6,0.6-1.3,0.6-2c0-0.7-0.2-1.3-0.5-1.6c-0.4-0.4-0.9-0.5-1.7-0.5
			c-0.8,0-1.6,0.3-2.4,0.9l-0.4-0.9c1-0.7,2-1,2.9-1c1,0,1.9,0.3,2.4,0.8c0.6,0.6,0.9,1.3,0.9,2.3c0,0.8-0.2,1.6-0.7,2.3
			s-1.2,1.6-2.3,2.7l-1.8,1.8h5v1H99z"/>
		<path d="M106.8,245.3l0.6-3.1h1.3l-1.2,3.1H106.8z"/>
		<path d="M110.9,243.2v-0.7l2.6-2.7c0.9-0.9,1.5-1.7,1.9-2.3c0.4-0.6,0.6-1.3,0.6-2c0-0.7-0.2-1.3-0.5-1.6
			c-0.4-0.4-0.9-0.5-1.7-0.5c-0.8,0-1.6,0.3-2.4,0.9l-0.4-0.9c1-0.7,2-1,2.9-1c1,0,1.9,0.3,2.4,0.8c0.6,0.6,0.9,1.3,0.9,2.3
			c0,0.8-0.2,1.6-0.7,2.3s-1.2,1.6-2.3,2.7l-1.8,1.8h5v1H110.9z"/>
		<path d="M123.5,243.4c-1.2,0-2.1-0.4-2.8-1.3c-0.7-0.8-1.1-2.1-1.1-3.8v-0.9c0-1.8,0.4-3,1.1-3.8s1.6-1.2,2.8-1.2
			c1.1,0,2.1,0.4,2.7,1.2c0.7,0.8,1,2,1,3.8v1c0,1.7-0.3,3-1,3.8C125.5,243,124.6,243.4,123.5,243.4z M123.5,242.4
			c0.9,0,1.5-0.3,2-0.9s0.7-1.6,0.7-3v-1.2c0-2.6-0.9-4-2.6-4c-1.8,0-2.7,1.3-2.7,3.9v1.2C120.8,241.1,121.7,242.4,123.5,242.4z"/>
		<path d="M133.5,243.4c-1.2,0-2.1-0.4-2.8-1.3c-0.7-0.8-1.1-2.1-1.1-3.8v-0.9c0-1.8,0.4-3,1.1-3.8s1.6-1.2,2.8-1.2
			c1.1,0,2.1,0.4,2.7,1.2c0.7,0.8,1,2,1,3.8v1c0,1.7-0.3,3-1,3.8C135.6,243,134.7,243.4,133.5,243.4z M133.5,242.4
			c0.9,0,1.5-0.3,2-0.9s0.7-1.6,0.7-3v-1.2c0-2.6-0.9-4-2.6-4c-1.8,0-2.7,1.3-2.7,3.9v1.2C130.9,241.1,131.7,242.4,133.5,242.4z"/>
	</g>
	<g>
		<path d="M101.9,298.5v-1.4h1.3v1.4c0,0.5-0.1,0.9-0.4,1.3s-0.7,0.6-1.1,0.7v-0.6c0.6-0.1,0.9-0.6,0.9-1.4H101.9z"/>
		<path d="M107.2,308.6V299l-2,0.5v-0.7l2.5-1.2h0.6v11H107.2z"/>
		<path d="M115.7,308.8v-2.6h-5v-0.9l5.1-7.7h0.9v7.6h1.9v1h-1.9v2.6H115.7z M111.8,305.3h3.9v-5.8L111.8,305.3z"/>
		<path d="M127.4,304.1c-1.9,0.3-4.3,0.5-7.1,0.5v-7.2h1v6.3c2.2,0,4.2-0.2,5.9-0.5L127.4,304.1z M131.4,309.9H122v-4h1v3.2h8.4
			V309.9z M125.4,299.1v-0.8h4.5v-1.9h1v10.1h-1v-4.8h-4.5v-0.8h4.5v-1.8H125.4z"/>
	</g>
	<g>
		<path d="M166.5,298.5v-1.4h1.3v1.4c0,0.5-0.1,0.9-0.4,1.3s-0.7,0.6-1.1,0.7v-0.6c0.6-0.1,0.9-0.6,0.9-1.4H166.5z"/>
		<path d="M171.9,308.6V299l-2,0.5v-0.7l2.5-1.2h0.6v11H171.9z"/>
		<path d="M178.2,308.7c-1.2,0-2.2-0.3-3-0.8l0.2-0.9c0.3,0.2,0.7,0.4,1.2,0.5c0.5,0.2,0.9,0.2,1.4,0.2c0.9,0,1.5-0.2,2-0.7
			c0.5-0.5,0.7-1.1,0.7-1.9c0-1.6-0.9-2.4-2.7-2.4c-0.7,0-1.5,0.2-2.2,0.5l0.4-5.6h5.4v1h-4.4l-0.2,3.4c0.5-0.1,1.1-0.2,1.6-0.2
			c2.3,0,3.5,1.1,3.5,3.2c0,1-0.3,1.8-1,2.5C180.2,308.4,179.3,308.7,178.2,308.7z"/>
		<path d="M191.1,304.1c-1.9,0.3-4.3,0.5-7.1,0.5v-7.2h1v6.3c2.2,0,4.2-0.2,5.9-0.5L191.1,304.1z M195.1,309.9h-9.4v-4h1v3.2h8.4
			V309.9z M189.1,299.1v-0.8h4.5v-1.9h1v10.1h-1v-4.8h-4.5v-0.8h4.5v-1.8H189.1z"/>
	</g>
	<g>
		<path d="M230.2,298.5v-1.4h1.3v1.4c0,0.5-0.1,0.9-0.4,1.3s-0.7,0.6-1.1,0.7v-0.6c0.6-0.1,0.9-0.6,0.9-1.4H230.2z"/>
		<path d="M235.5,308.6V299l-2,0.5v-0.7l2.5-1.2h0.6v11H235.5z"/>
		<path d="M242.9,308.7c-1.2,0-2.1-0.4-2.7-1.2c-0.6-0.8-0.9-2-0.9-3.6v-0.8c0-1.8,0.4-3.2,1.1-4.1s1.7-1.3,3-1.3
			c1,0,1.8,0.2,2.5,0.6l-0.4,0.8c-0.2-0.1-0.5-0.2-0.9-0.3c-0.4-0.1-0.8-0.2-1.1-0.2c-1,0-1.7,0.3-2.2,1c-0.5,0.6-0.8,1.8-0.8,3.5
			c0.7-0.8,1.6-1.2,2.7-1.2c0.9,0,1.7,0.3,2.3,0.9c0.6,0.6,0.9,1.4,0.9,2.4c0,1-0.3,1.9-0.9,2.6S244,308.7,242.9,308.7z
			 M242.9,307.7c0.7,0,1.3-0.2,1.7-0.7c0.4-0.4,0.6-1.1,0.6-1.8c0-0.8-0.2-1.4-0.6-1.8c-0.4-0.4-1-0.6-1.7-0.6c-0.5,0-1,0.1-1.4,0.4
			c-0.4,0.3-0.8,0.6-1.1,1v0.1C240.5,306.6,241.3,307.7,242.9,307.7z"/>
		<path d="M255.7,304.1c-1.9,0.3-4.3,0.5-7.1,0.5v-7.2h1v6.3c2.2,0,4.2-0.2,5.9-0.5L255.7,304.1z M259.6,309.9h-9.4v-4h1v3.2h8.4
			V309.9z M253.6,299.1v-0.8h4.5v-1.9h1v10.1h-1v-4.8h-4.5v-0.8h4.5v-1.8H253.6z"/>
	</g>
	<g>
		<path d="M293.9,298.5v-1.4h1.3v1.4c0,0.5-0.1,0.9-0.4,1.3s-0.7,0.6-1.1,0.7v-0.6c0.6-0.1,0.9-0.6,0.9-1.4H293.9z"/>
		<path d="M299.2,308.6V299l-2,0.5v-0.7l2.5-1.2h0.6v11H299.2z"/>
		<path d="M303.9,308.6l4.3-9.8h-5.6v-1h6.8v0.7l-4.3,10H303.9z"/>
		<path d="M318.3,304.1c-1.9,0.3-4.3,0.5-7.1,0.5v-7.2h1v6.3c2.2,0,4.2-0.2,5.9-0.5L318.3,304.1z M322.3,309.9h-9.4v-4h1v3.2h8.4
			V309.9z M316.3,299.1v-0.8h4.5v-1.9h1v10.1h-1v-4.8h-4.5v-0.8h4.5v-1.8H316.3z"/>
	</g>
	<g>
		<path d="M357.5,298.5v-1.4h1.3v1.4c0,0.5-0.1,0.9-0.4,1.3s-0.7,0.6-1.1,0.7v-0.6c0.6-0.1,0.9-0.6,0.9-1.4H357.5z"/>
		<path d="M362.9,308.6V299l-2,0.5v-0.7l2.5-1.2h0.6v11H362.9z"/>
		<path d="M370.3,308.7c-1.1,0-2-0.3-2.7-0.8c-0.7-0.5-1-1.3-1-2.1c0-0.7,0.2-1.2,0.7-1.7c0.5-0.5,1.1-0.9,1.7-1.1
			c-1.4-0.5-2.1-1.4-2.1-2.6c0-0.8,0.3-1.4,0.9-1.9c0.6-0.5,1.4-0.8,2.4-0.8s1.8,0.2,2.4,0.7c0.6,0.5,0.9,1.1,0.9,1.9
			c0,0.6-0.2,1.1-0.6,1.5c-0.4,0.4-0.9,0.8-1.6,1.1c1.7,0.6,2.6,1.5,2.6,2.8c0,0.9-0.3,1.6-1,2.2
			C372.3,308.4,371.4,308.7,370.3,308.7z M370.3,307.8c0.7,0,1.3-0.2,1.8-0.5c0.5-0.4,0.7-0.8,0.7-1.4c0-0.6-0.2-1.1-0.6-1.4
			c-0.4-0.3-1.1-0.7-2.2-1c-0.6,0.2-1.1,0.5-1.5,0.9c-0.4,0.4-0.6,0.9-0.6,1.4c0,0.6,0.2,1.1,0.7,1.4
			C369,307.6,369.6,307.8,370.3,307.8z M370.5,302.5c1.2-0.6,1.8-1.3,1.8-2.2c0-0.5-0.2-0.9-0.5-1.2c-0.4-0.3-0.9-0.5-1.5-0.5
			c-0.6,0-1.1,0.1-1.5,0.4s-0.6,0.7-0.6,1.2C368.1,301.3,368.9,302,370.5,302.5z"/>
		<path d="M383.4,304.1c-1.9,0.3-4.3,0.5-7.1,0.5v-7.2h1v6.3c2.2,0,4.2-0.2,5.9-0.5L383.4,304.1z M387.3,309.9h-9.4v-4h1v3.2h8.4
			V309.9z M381.3,299.1v-0.8h4.5v-1.9h1v10.1h-1v-4.8h-4.5v-0.8h4.5v-1.8H381.3z"/>
	</g>
	<g>
		<path d="M421.2,298.5v-1.4h1.3v1.4c0,0.5-0.1,0.9-0.4,1.3s-0.7,0.6-1.1,0.7v-0.6c0.6-0.1,0.9-0.6,0.9-1.4H421.2z"/>
		<path d="M426.5,308.6V299l-2,0.5v-0.7l2.5-1.2h0.6v11H426.5z"/>
		<path d="M433.6,297.6c1.2,0,2.1,0.4,2.7,1.2c0.6,0.8,0.9,2,0.9,3.5v0.7c0,1.8-0.3,3.2-1,4.2c-0.7,1-1.7,1.5-3,1.5
			c-1.1,0-1.9-0.2-2.6-0.7l0.3-0.8c0.6,0.4,1.4,0.5,2.2,0.5c0.9,0,1.6-0.3,2.1-1c0.5-0.7,0.7-1.8,0.8-3.3c-0.7,0.8-1.6,1.2-2.7,1.2
			c-0.9,0-1.7-0.3-2.3-0.9s-1-1.4-1-2.4c0-1,0.3-1.9,0.9-2.6C431.8,298,432.6,297.6,433.6,297.6z M433.6,298.6
			c-0.7,0-1.3,0.2-1.7,0.7c-0.4,0.5-0.6,1.1-0.6,1.9c0,0.8,0.2,1.4,0.6,1.8s1,0.6,1.7,0.6c0.5,0,1-0.1,1.4-0.4
			c0.4-0.3,0.8-0.6,1.1-1V302C436.1,299.7,435.3,298.6,433.6,298.6z"/>
		<path d="M446.7,304.1c-1.9,0.3-4.3,0.5-7.1,0.5v-7.2h1v6.3c2.2,0,4.2-0.2,5.9-0.5L446.7,304.1z M450.6,309.9h-9.4v-4h1v3.2h8.4
			V309.9z M444.6,299.1v-0.8h4.5v-1.9h1v10.1h-1v-4.8h-4.5v-0.8h4.5v-1.8H444.6z"/>
	</g>
	<g>
		<path d="M482.9,298.5v-1.4h1.3v1.4c0,0.5-0.1,0.9-0.4,1.3s-0.7,0.6-1.1,0.7v-0.6c0.6-0.1,0.9-0.6,0.9-1.4H482.9z"/>
		<path d="M486.4,308.5v-0.7l2.6-2.7c0.9-0.9,1.5-1.7,1.9-2.3c0.4-0.6,0.6-1.3,0.6-2c0-0.7-0.2-1.3-0.5-1.6
			c-0.4-0.4-0.9-0.5-1.7-0.5c-0.8,0-1.6,0.3-2.4,0.9l-0.4-0.9c1-0.7,2-1,2.9-1c1,0,1.9,0.3,2.4,0.8c0.6,0.6,0.9,1.3,0.9,2.3
			c0,0.8-0.2,1.6-0.7,2.3s-1.2,1.6-2.3,2.7l-1.8,1.8h5v1H486.4z"/>
		<path d="M498.9,308.7c-1.2,0-2.1-0.4-2.8-1.3c-0.7-0.8-1.1-2.1-1.1-3.8v-0.9c0-1.8,0.4-3,1.1-3.8s1.6-1.2,2.8-1.2
			c1.1,0,2.1,0.4,2.7,1.2c0.7,0.8,1,2,1,3.8v1c0,1.7-0.3,3-1,3.8C501,308.3,500,308.7,498.9,308.7z M498.9,307.8
			c0.9,0,1.5-0.3,2-0.9s0.7-1.6,0.7-3v-1.2c0-2.6-0.9-4-2.6-4c-1.8,0-2.7,1.3-2.7,3.9v1.2C496.3,306.4,497.1,307.8,498.9,307.8z"/>
		<path d="M512.4,304.1c-1.9,0.3-4.3,0.5-7.1,0.5v-7.2h1v6.3c2.2,0,4.2-0.2,5.9-0.5L512.4,304.1z M516.3,309.9H507v-4h1v3.2h8.4
			V309.9z M510.3,299.1v-0.8h4.5v-1.9h1v10.1h-1v-4.8h-4.5v-0.8h4.5v-1.8H510.3z"/>
	</g>
	<g>
		<path d="M618.9,297.8v-1.4h1.3v1.4c0,0.5-0.1,0.9-0.4,1.3s-0.7,0.6-1.1,0.7v-0.6c0.6-0.1,0.9-0.6,0.9-1.4H618.9z"/>
		<path d="M624.2,308v-9.6l-2,0.5v-0.7l2.5-1.2h0.6v11H624.2z"/>
		<path d="M632.7,308.2v-2.6h-5v-0.9l5.1-7.7h0.9v7.6h1.9v1h-1.9v2.6H632.7z M628.8,304.6h3.9v-5.8L628.8,304.6z"/>
		<path d="M644.4,303.4c-1.9,0.3-4.3,0.5-7.1,0.5v-7.2h1v6.3c2.2,0,4.2-0.2,5.9-0.5L644.4,303.4z M648.4,309.2H639v-4h1v3.2h8.4
			V309.2z M642.4,298.4v-0.8h4.5v-1.9h1v10.1h-1V301h-4.5v-0.8h4.5v-1.8H642.4z"/>
	</g>
	<g>
		<path d="M681.9,297.8v-1.4h1.3v1.4c0,0.5-0.1,0.9-0.4,1.3s-0.7,0.6-1.1,0.7v-0.6c0.6-0.1,0.9-0.6,0.9-1.4H681.9z"/>
		<path d="M687.2,308v-9.6l-2,0.5v-0.7l2.5-1.2h0.6v11H687.2z"/>
		<path d="M693.5,308c-1.2,0-2.2-0.3-3-0.8l0.2-0.9c0.3,0.2,0.7,0.4,1.2,0.5c0.5,0.2,0.9,0.2,1.4,0.2c0.9,0,1.5-0.2,2-0.7
			c0.5-0.5,0.7-1.1,0.7-1.9c0-1.6-0.9-2.4-2.7-2.4c-0.7,0-1.5,0.2-2.2,0.5l0.4-5.6h5.4v1h-4.4l-0.2,3.4c0.5-0.1,1.1-0.2,1.6-0.2
			c2.3,0,3.5,1.1,3.5,3.2c0,1-0.3,1.8-1,2.5C695.6,307.7,694.7,308,693.5,308z"/>
		<path d="M706.5,303.4c-1.9,0.3-4.3,0.5-7.1,0.5v-7.2h1v6.3c2.2,0,4.2-0.2,5.9-0.5L706.5,303.4z M710.4,309.2h-9.4v-4h1v3.2h8.4
			V309.2z M704.4,298.4v-0.8h4.5v-1.9h1v10.1h-1V301h-4.5v-0.8h4.5v-1.8H704.4z"/>
	</g>
	<g>
		<path d="M743.9,297.8v-1.4h1.3v1.4c0,0.5-0.1,0.9-0.4,1.3s-0.7,0.6-1.1,0.7v-0.6c0.6-0.1,0.9-0.6,0.9-1.4H743.9z"/>
		<path d="M749.2,308v-9.6l-2,0.5v-0.7l2.5-1.2h0.6v11H749.2z"/>
		<path d="M756.6,308c-1.2,0-2.1-0.4-2.7-1.2c-0.6-0.8-0.9-2-0.9-3.6v-0.8c0-1.8,0.4-3.2,1.1-4.1s1.7-1.3,3-1.3c1,0,1.8,0.2,2.5,0.6
			l-0.4,0.8c-0.2-0.1-0.5-0.2-0.9-0.3c-0.4-0.1-0.8-0.2-1.1-0.2c-1,0-1.7,0.3-2.2,1c-0.5,0.6-0.8,1.8-0.8,3.5
			c0.7-0.8,1.6-1.2,2.7-1.2c0.9,0,1.7,0.3,2.3,0.9c0.6,0.6,0.9,1.4,0.9,2.4c0,1-0.3,1.9-0.9,2.6S757.6,308,756.6,308z M756.6,307.1
			c0.7,0,1.3-0.2,1.7-0.7c0.4-0.4,0.6-1.1,0.6-1.8c0-0.8-0.2-1.4-0.6-1.8c-0.4-0.4-1-0.6-1.7-0.6c-0.5,0-1,0.1-1.4,0.4
			c-0.4,0.3-0.8,0.6-1.1,1v0.1C754.1,305.9,755,307.1,756.6,307.1z"/>
		<path d="M769.3,303.4c-1.9,0.3-4.3,0.5-7.1,0.5v-7.2h1v6.3c2.2,0,4.2-0.2,5.9-0.5L769.3,303.4z M773.3,309.2h-9.4v-4h1v3.2h8.4
			V309.2z M767.3,298.4v-0.8h4.5v-1.9h1v10.1h-1V301h-4.5v-0.8h4.5v-1.8H767.3z"/>
	</g>
	<g>
		<path d="M804.9,297.8v-1.4h1.3v1.4c0,0.5-0.1,0.9-0.4,1.3s-0.7,0.6-1.1,0.7v-0.6c0.6-0.1,0.9-0.6,0.9-1.4H804.9z"/>
		<path d="M810.2,308v-9.6l-2,0.5v-0.7l2.5-1.2h0.6v11H810.2z"/>
		<path d="M814.9,307.9l4.3-9.8h-5.6v-1h6.8v0.7l-4.3,10H814.9z"/>
		<path d="M829.3,303.4c-1.9,0.3-4.3,0.5-7.1,0.5v-7.2h1v6.3c2.2,0,4.2-0.2,5.9-0.5L829.3,303.4z M833.3,309.2h-9.4v-4h1v3.2h8.4
			V309.2z M827.3,298.4v-0.8h4.5v-1.9h1v10.1h-1V301h-4.5v-0.8h4.5v-1.8H827.3z"/>
	</g>
	<g>
		<path d="M863.9,297.8v-1.4h1.3v1.4c0,0.5-0.1,0.9-0.4,1.3s-0.7,0.6-1.1,0.7v-0.6c0.6-0.1,0.9-0.6,0.9-1.4H863.9z"/>
		<path d="M869.2,308v-9.6l-2,0.5v-0.7l2.5-1.2h0.6v11H869.2z"/>
		<path d="M876.6,308.1c-1.1,0-2-0.3-2.7-0.8c-0.7-0.5-1-1.3-1-2.1c0-0.7,0.2-1.2,0.7-1.7c0.5-0.5,1.1-0.9,1.7-1.1
			c-1.4-0.5-2.1-1.4-2.1-2.6c0-0.8,0.3-1.4,0.9-1.9c0.6-0.5,1.4-0.8,2.4-0.8s1.8,0.2,2.4,0.7c0.6,0.5,0.9,1.1,0.9,1.9
			c0,0.6-0.2,1.1-0.6,1.5c-0.4,0.4-0.9,0.8-1.6,1.1c1.7,0.6,2.6,1.5,2.6,2.8c0,0.9-0.3,1.6-1,2.2
			C878.6,307.8,877.7,308.1,876.6,308.1z M876.6,307.1c0.7,0,1.3-0.2,1.8-0.5c0.5-0.4,0.7-0.8,0.7-1.4c0-0.6-0.2-1.1-0.6-1.4
			c-0.4-0.3-1.1-0.7-2.2-1c-0.6,0.2-1.1,0.5-1.5,0.9c-0.4,0.4-0.6,0.9-0.6,1.4c0,0.6,0.2,1.1,0.7,1.4
			C875.3,306.9,875.9,307.1,876.6,307.1z M876.8,301.8c1.2-0.6,1.8-1.3,1.8-2.2c0-0.5-0.2-0.9-0.5-1.2c-0.4-0.3-0.9-0.5-1.5-0.5
			c-0.6,0-1.1,0.1-1.5,0.4s-0.6,0.7-0.6,1.2C874.5,300.6,875.2,301.4,876.8,301.8z"/>
		<path d="M889.7,303.4c-1.9,0.3-4.3,0.5-7.1,0.5v-7.2h1v6.3c2.2,0,4.2-0.2,5.9-0.5L889.7,303.4z M893.7,309.2h-9.4v-4h1v3.2h8.4
			V309.2z M887.7,298.4v-0.8h4.5v-1.9h1v10.1h-1V301h-4.5v-0.8h4.5v-1.8H887.7z"/>
	</g>
	<g>
		<path d="M924.9,297.8v-1.4h1.3v1.4c0,0.5-0.1,0.9-0.4,1.3s-0.7,0.6-1.1,0.7v-0.6c0.6-0.1,0.9-0.6,0.9-1.4H924.9z"/>
		<path d="M930.2,308v-9.6l-2,0.5v-0.7l2.5-1.2h0.6v11H930.2z"/>
		<path d="M937.3,297c1.2,0,2.1,0.4,2.7,1.2c0.6,0.8,0.9,2,0.9,3.5v0.7c0,1.8-0.3,3.2-1,4.2c-0.7,1-1.7,1.5-3,1.5
			c-1.1,0-1.9-0.2-2.6-0.7l0.3-0.8c0.6,0.4,1.4,0.5,2.2,0.5c0.9,0,1.6-0.3,2.1-1c0.5-0.7,0.7-1.8,0.8-3.3c-0.7,0.8-1.6,1.2-2.7,1.2
			c-0.9,0-1.7-0.3-2.3-0.9s-1-1.4-1-2.4c0-1,0.3-1.9,0.9-2.6C935.4,297.3,936.3,297,937.3,297z M937.3,298c-0.7,0-1.3,0.2-1.7,0.7
			c-0.4,0.5-0.6,1.1-0.6,1.9c0,0.8,0.2,1.4,0.6,1.8s1,0.6,1.7,0.6c0.5,0,1-0.1,1.4-0.4c0.4-0.3,0.8-0.6,1.1-1v-0.3
			C939.8,299.1,939,298,937.3,298z"/>
		<path d="M950.3,303.4c-1.9,0.3-4.3,0.5-7.1,0.5v-7.2h1v6.3c2.2,0,4.2-0.2,5.9-0.5L950.3,303.4z M954.3,309.2h-9.4v-4h1v3.2h8.4
			V309.2z M948.3,298.4v-0.8h4.5v-1.9h1v10.1h-1V301h-4.5v-0.8h4.5v-1.8H948.3z"/>
	</g>
	<g>
		<path d="M981.9,297.8v-1.4h1.3v1.4c0,0.5-0.1,0.9-0.4,1.3s-0.7,0.6-1.1,0.7v-0.6c0.6-0.1,0.9-0.6,0.9-1.4H981.9z"/>
		<path d="M985.4,307.9v-0.7l2.6-2.7c0.9-0.9,1.5-1.7,1.9-2.3c0.4-0.6,0.6-1.3,0.6-2c0-0.7-0.2-1.3-0.5-1.6
			c-0.4-0.4-0.9-0.5-1.7-0.5c-0.8,0-1.6,0.3-2.4,0.9l-0.4-0.9c1-0.7,2-1,2.9-1c1,0,1.9,0.3,2.4,0.8c0.6,0.6,0.9,1.3,0.9,2.3
			c0,0.8-0.2,1.6-0.7,2.3s-1.2,1.6-2.3,2.7l-1.8,1.8h5v1H985.4z"/>
		<path d="M997.9,308c-1.2,0-2.1-0.4-2.8-1.3c-0.7-0.8-1.1-2.1-1.1-3.8V302c0-1.8,0.4-3,1.1-3.8s1.6-1.2,2.8-1.2
			c1.1,0,2.1,0.4,2.7,1.2c0.7,0.8,1,2,1,3.8v1c0,1.7-0.3,3-1,3.8C1000,307.6,999,308,997.9,308z M997.9,307.1c0.9,0,1.5-0.3,2-0.9
			s0.7-1.6,0.7-3v-1.2c0-2.6-0.9-4-2.6-4c-1.8,0-2.7,1.3-2.7,3.9v1.2C995.3,305.8,996.1,307.1,997.9,307.1z"/>
		<path d="M1011.4,303.4c-1.9,0.3-4.3,0.5-7.1,0.5v-7.2h1v6.3c2.2,0,4.2-0.2,5.9-0.5L1011.4,303.4z M1015.3,309.2h-9.4v-4h1v3.2h8.4
			V309.2z M1009.3,298.4v-0.8h4.5v-1.9h1v10.1h-1V301h-4.5v-0.8h4.5v-1.8H1009.3z"/>
	</g>
	<g>
		<path d="M167.2,211.2v-2.6h-5v-0.9l5.1-7.7h0.9v7.6h1.9v1h-1.9v2.6H167.2z M163.4,207.6h3.9v-5.8L163.4,207.6z"/>
		<path d="M170.8,212.9l0.6-3.1h1.3l-1.2,3.1H170.8z"/>
		<path d="M178.9,211c-1.2,0-2.1-0.4-2.8-1.3c-0.7-0.8-1.1-2.1-1.1-3.8V205c0-1.8,0.4-3,1.1-3.8s1.6-1.2,2.8-1.2
			c1.1,0,2.1,0.4,2.7,1.2c0.7,0.8,1,2,1,3.8v1c0,1.7-0.3,3-1,3.8C181,210.6,180.1,211,178.9,211z M178.9,210.1c0.9,0,1.5-0.3,2-0.9
			s0.7-1.6,0.7-3v-1.2c0-2.6-0.9-4-2.6-4c-1.8,0-2.7,1.3-2.7,3.9v1.2C176.3,208.8,177.2,210.1,178.9,210.1z"/>
		<path d="M189,211c-1.2,0-2.1-0.4-2.8-1.3c-0.7-0.8-1.1-2.1-1.1-3.8V205c0-1.8,0.4-3,1.1-3.8s1.6-1.2,2.8-1.2
			c1.1,0,2.1,0.4,2.7,1.2c0.7,0.8,1,2,1,3.8v1c0,1.7-0.3,3-1,3.8C191,210.6,190.1,211,189,211z M189,210.1c0.9,0,1.5-0.3,2-0.9
			s0.7-1.6,0.7-3v-1.2c0-2.6-0.9-4-2.6-4c-1.8,0-2.7,1.3-2.7,3.9v1.2C186.3,208.8,187.2,210.1,189,210.1z"/>
		<path d="M199,211c-1.2,0-2.1-0.4-2.8-1.3c-0.7-0.8-1.1-2.1-1.1-3.8V205c0-1.8,0.4-3,1.1-3.8s1.6-1.2,2.8-1.2
			c1.1,0,2.1,0.4,2.7,1.2c0.7,0.8,1,2,1,3.8v1c0,1.7-0.3,3-1,3.8C201.1,210.6,200.2,211,199,211z M199,210.1c0.9,0,1.5-0.3,2-0.9
			s0.7-1.6,0.7-3v-1.2c0-2.6-0.9-4-2.6-4c-1.8,0-2.7,1.3-2.7,3.9v1.2C196.4,208.8,197.2,210.1,199,210.1z"/>
	</g>
	<g>
		<path d="M230,197v-2.6h-5v-0.9l5.1-7.7h0.9v7.6h1.9v1H231v2.6H230z M226.1,193.5h3.9v-5.8L226.1,193.5z"/>
		<path d="M233.5,198.8l0.6-3.1h1.3l-1.2,3.1H233.5z"/>
		<path d="M241.2,196.9c-1.1,0-2-0.3-2.7-0.8c-0.7-0.5-1-1.3-1-2.1c0-0.7,0.2-1.2,0.7-1.7c0.5-0.5,1.1-0.9,1.7-1.1
			c-1.4-0.5-2.1-1.4-2.1-2.6c0-0.8,0.3-1.4,0.9-1.9c0.6-0.5,1.4-0.8,2.4-0.8s1.8,0.2,2.4,0.7c0.6,0.5,0.9,1.1,0.9,1.9
			c0,0.6-0.2,1.1-0.6,1.5c-0.4,0.4-0.9,0.8-1.6,1.1c1.7,0.6,2.6,1.5,2.6,2.8c0,0.9-0.3,1.6-1,2.2
			C243.2,196.6,242.3,196.9,241.2,196.9z M241.2,195.9c0.7,0,1.3-0.2,1.8-0.5c0.5-0.4,0.7-0.8,0.7-1.4c0-0.6-0.2-1.1-0.6-1.4
			c-0.4-0.3-1.1-0.7-2.2-1c-0.6,0.2-1.1,0.5-1.5,0.9c-0.4,0.4-0.6,0.9-0.6,1.4c0,0.6,0.2,1.1,0.7,1.4
			C239.9,195.7,240.5,195.9,241.2,195.9z M241.4,190.6c1.2-0.6,1.8-1.3,1.8-2.2c0-0.5-0.2-0.9-0.5-1.2c-0.4-0.3-0.9-0.5-1.5-0.5
			c-0.6,0-1.1,0.1-1.5,0.4s-0.6,0.7-0.6,1.2C239,189.5,239.8,190.2,241.4,190.6z"/>
		<path d="M250.8,196.9c-1.2,0-2.1-0.4-2.8-1.3c-0.7-0.8-1.1-2.1-1.1-3.8v-0.9c0-1.8,0.4-3,1.1-3.8s1.6-1.2,2.8-1.2
			c1.1,0,2.1,0.4,2.7,1.2c0.7,0.8,1,2,1,3.8v1c0,1.7-0.3,3-1,3.8C252.9,196.5,252,196.9,250.8,196.9z M250.8,195.9
			c0.9,0,1.5-0.3,2-0.9s0.7-1.6,0.7-3v-1.2c0-2.6-0.9-4-2.6-4c-1.8,0-2.7,1.3-2.7,3.9v1.2C248.2,194.6,249,195.9,250.8,195.9z"/>
		<path d="M260.8,196.9c-1.2,0-2.1-0.4-2.8-1.3c-0.7-0.8-1.1-2.1-1.1-3.8v-0.9c0-1.8,0.4-3,1.1-3.8s1.6-1.2,2.8-1.2
			c1.1,0,2.1,0.4,2.7,1.2c0.7,0.8,1,2,1,3.8v1c0,1.7-0.3,3-1,3.8C262.9,196.5,262,196.9,260.8,196.9z M260.8,195.9
			c0.9,0,1.5-0.3,2-0.9s0.7-1.6,0.7-3v-1.2c0-2.6-0.9-4-2.6-4c-1.8,0-2.7,1.3-2.7,3.9v1.2C258.2,194.6,259.1,195.9,260.8,195.9z"/>
	</g>
	<g>
		<path d="M293.1,186.8c-1.2,0-2.2-0.3-3-0.8l0.2-0.9c0.3,0.2,0.7,0.4,1.2,0.5c0.5,0.2,0.9,0.2,1.4,0.2c0.9,0,1.5-0.2,2-0.7
			c0.5-0.5,0.7-1.1,0.7-1.9c0-1.6-0.9-2.4-2.7-2.4c-0.7,0-1.5,0.2-2.2,0.5l0.4-5.6h5.4v1H292l-0.2,3.4c0.5-0.1,1.1-0.2,1.6-0.2
			c2.3,0,3.5,1.1,3.5,3.2c0,1-0.3,1.8-1,2.5C295.1,186.4,294.2,186.8,293.1,186.8z"/>
		<path d="M297.8,188.6l0.6-3.1h1.3l-1.2,3.1H297.8z"/>
		<path d="M304.6,186.7c-1.2,0-2.2-0.3-2.9-0.8l0.3-0.9c0.3,0.2,0.7,0.4,1.2,0.5c0.5,0.1,0.9,0.2,1.3,0.2c0.9,0,1.6-0.2,2.1-0.6
			c0.5-0.4,0.7-0.9,0.7-1.6s-0.2-1.2-0.7-1.6c-0.5-0.4-1.2-0.5-2-0.5h-1v-1h1c0.7,0,1.3-0.2,1.7-0.5c0.4-0.4,0.7-0.8,0.7-1.5
			c0-1.2-0.7-1.8-2.2-1.8c-0.7,0-1.5,0.3-2.4,0.8l-0.2-0.9c0.3-0.2,0.7-0.4,1.3-0.6c0.6-0.2,1.1-0.3,1.5-0.3c1,0,1.7,0.2,2.3,0.7
			c0.6,0.5,0.9,1.1,0.9,1.9c0,1.2-0.7,2.1-2,2.5c1.6,0.3,2.4,1.2,2.4,2.7c0,0.9-0.4,1.7-1.1,2.3
			C306.7,186.4,305.8,186.7,304.6,186.7z"/>
		<path d="M314,186.8c-1.2,0-2.1-0.4-2.7-1.2c-0.6-0.8-0.9-2-0.9-3.6v-0.8c0-1.8,0.4-3.2,1.1-4.1s1.7-1.3,3-1.3c1,0,1.8,0.2,2.5,0.6
			l-0.4,0.8c-0.2-0.1-0.5-0.2-0.9-0.3c-0.4-0.1-0.8-0.2-1.1-0.2c-1,0-1.7,0.3-2.2,1c-0.5,0.6-0.8,1.8-0.8,3.5
			c0.7-0.8,1.6-1.2,2.7-1.2c0.9,0,1.7,0.3,2.3,0.9c0.6,0.6,0.9,1.4,0.9,2.4c0,1-0.3,1.9-0.9,2.6S315.1,186.8,314,186.8z M314,185.8
			c0.7,0,1.3-0.2,1.7-0.7c0.4-0.4,0.6-1.1,0.6-1.8c0-0.8-0.2-1.4-0.6-1.8c-0.4-0.4-1-0.6-1.7-0.6c-0.5,0-1,0.1-1.4,0.4
			c-0.4,0.3-0.8,0.6-1.1,1v0.1C311.6,184.7,312.4,185.8,314,185.8z"/>
		<path d="M323.3,186.8c-1.2,0-2.1-0.4-2.8-1.3c-0.7-0.8-1.1-2.1-1.1-3.8v-0.9c0-1.8,0.4-3,1.1-3.8s1.6-1.2,2.8-1.2
			c1.1,0,2.1,0.4,2.7,1.2c0.7,0.8,1,2,1,3.8v1c0,1.7-0.3,3-1,3.8C325.4,186.3,324.5,186.8,323.3,186.8z M323.3,185.8
			c0.9,0,1.5-0.3,2-0.9s0.7-1.6,0.7-3v-1.2c0-2.6-0.9-4-2.6-4c-1.8,0-2.7,1.3-2.7,3.9v1.2C320.7,184.5,321.6,185.8,323.3,185.8z"/>
	</g>
	<g>
		<path d="M358.1,171.7c-1.2,0-2.1-0.4-2.7-1.2c-0.6-0.8-0.9-2-0.9-3.6v-0.8c0-1.8,0.4-3.2,1.1-4.1s1.7-1.3,3-1.3
			c1,0,1.8,0.2,2.5,0.6l-0.4,0.8c-0.2-0.1-0.5-0.2-0.9-0.3c-0.4-0.1-0.8-0.2-1.1-0.2c-1,0-1.7,0.3-2.2,1c-0.5,0.6-0.8,1.8-0.8,3.5
			c0.7-0.8,1.6-1.2,2.7-1.2c0.9,0,1.7,0.3,2.3,0.9c0.6,0.6,0.9,1.4,0.9,2.4c0,1-0.3,1.9-0.9,2.6S359.1,171.7,358.1,171.7z
			 M358.1,170.7c0.7,0,1.3-0.2,1.7-0.7c0.4-0.4,0.6-1.1,0.6-1.8c0-0.8-0.2-1.4-0.6-1.8c-0.4-0.4-1-0.6-1.7-0.6c-0.5,0-1,0.1-1.4,0.4
			c-0.4,0.3-0.8,0.6-1.1,1v0.1C355.7,169.6,356.5,170.7,358.1,170.7z"/>
		<path d="M362.6,173.6l0.6-3.1h1.3l-1.2,3.1H362.6z"/>
		<path d="M366.8,171.5v-0.7l2.6-2.7c0.9-0.9,1.5-1.7,1.9-2.3c0.4-0.6,0.6-1.3,0.6-2c0-0.7-0.2-1.3-0.5-1.6
			c-0.4-0.4-0.9-0.5-1.7-0.5c-0.8,0-1.6,0.3-2.4,0.9l-0.4-0.9c1-0.7,2-1,2.9-1c1,0,1.9,0.3,2.4,0.8c0.6,0.6,0.9,1.3,0.9,2.3
			c0,0.8-0.2,1.6-0.7,2.3s-1.2,1.6-2.3,2.7l-1.8,1.8h5v1H366.8z"/>
		<path d="M377.1,171.6V162l-2,0.5v-0.7l2.5-1.2h0.6v11H377.1z"/>
		<path d="M385,171.7c-1.2,0-2.1-0.4-2.8-1.3c-0.7-0.8-1.1-2.1-1.1-3.8v-0.9c0-1.8,0.4-3,1.1-3.8s1.6-1.2,2.8-1.2
			c1.1,0,2.1,0.4,2.7,1.2c0.7,0.8,1,2,1,3.8v1c0,1.7-0.3,3-1,3.8C387.1,171.3,386.2,171.7,385,171.7z M385,170.8
			c0.9,0,1.5-0.3,2-0.9s0.7-1.6,0.7-3v-1.2c0-2.6-0.9-4-2.6-4c-1.8,0-2.7,1.3-2.7,3.9v1.2C382.4,169.4,383.2,170.8,385,170.8z"/>
	</g>
	<g>
		<path d="M419.7,107.4c1.2,0,2.1,0.4,2.7,1.2c0.6,0.8,0.9,2,0.9,3.5v0.7c0,1.8-0.3,3.2-1,4.2c-0.7,1-1.7,1.5-3,1.5
			c-1.1,0-1.9-0.2-2.6-0.7l0.3-0.8c0.6,0.4,1.4,0.5,2.2,0.5c0.9,0,1.6-0.3,2.1-1c0.5-0.7,0.7-1.8,0.8-3.3c-0.7,0.8-1.6,1.2-2.7,1.2
			c-0.9,0-1.7-0.3-2.3-0.9s-1-1.4-1-2.4c0-1,0.3-1.9,0.9-2.6C417.9,107.8,418.7,107.4,419.7,107.4z M419.7,108.4
			c-0.7,0-1.3,0.2-1.7,0.7c-0.4,0.5-0.6,1.1-0.6,1.9c0,0.8,0.2,1.4,0.6,1.8s1,0.6,1.7,0.6c0.5,0,1-0.1,1.4-0.4
			c0.4-0.3,0.8-0.6,1.1-1v-0.3C422.2,109.5,421.4,108.4,419.7,108.4z"/>
		<path d="M424.5,120.4l0.6-3.1h1.3l-1.2,3.1H424.5z"/>
		<path d="M428.7,118.3v-0.7l2.6-2.7c0.9-0.9,1.5-1.7,1.9-2.3c0.4-0.6,0.6-1.3,0.6-2c0-0.7-0.2-1.3-0.5-1.6
			c-0.4-0.4-0.9-0.5-1.7-0.5c-0.8,0-1.6,0.3-2.4,0.9l-0.4-0.9c1-0.7,2-1,2.9-1c1,0,1.9,0.3,2.4,0.8c0.6,0.6,0.9,1.3,0.9,2.3
			c0,0.8-0.2,1.6-0.7,2.3s-1.2,1.6-2.3,2.7l-1.8,1.8h5v1H428.7z"/>
		<path d="M441.2,118.5c-1.2,0-2.1-0.4-2.8-1.3c-0.7-0.8-1.1-2.1-1.1-3.8v-0.9c0-1.8,0.4-3,1.1-3.8s1.6-1.2,2.8-1.2
			c1.1,0,2.1,0.4,2.7,1.2c0.7,0.8,1,2,1,3.8v1c0,1.7-0.3,3-1,3.8C443.3,118.1,442.4,118.5,441.2,118.5z M441.2,117.5
			c0.9,0,1.5-0.3,2-0.9s0.7-1.6,0.7-3v-1.2c0-2.6-0.9-4-2.6-4c-1.8,0-2.7,1.3-2.7,3.9v1.2C438.6,116.2,439.5,117.5,441.2,117.5z"/>
		<path d="M451.3,118.5c-1.2,0-2.1-0.4-2.8-1.3c-0.7-0.8-1.1-2.1-1.1-3.8v-0.9c0-1.8,0.4-3,1.1-3.8s1.6-1.2,2.8-1.2
			c1.1,0,2.1,0.4,2.7,1.2c0.7,0.8,1,2,1,3.8v1c0,1.7-0.3,3-1,3.8C453.3,118.1,452.4,118.5,451.3,118.5z M451.3,117.5
			c0.9,0,1.5-0.3,2-0.9s0.7-1.6,0.7-3v-1.2c0-2.6-0.9-4-2.6-4c-1.8,0-2.7,1.3-2.7,3.9v1.2C448.6,116.2,449.5,117.5,451.3,117.5z"/>
	</g>
	<g>
		<path d="M478.6,97.2v-9.6l-2,0.5v-0.7l2.5-1.2h0.6v11H478.6z"/>
		<path d="M486.4,97.3c-1.2,0-2.1-0.4-2.8-1.3c-0.7-0.8-1.1-2.1-1.1-3.8v-0.9c0-1.8,0.4-3,1.1-3.8c0.7-0.8,1.6-1.2,2.8-1.2
			c1.1,0,2.1,0.4,2.7,1.2s1,2,1,3.8v1c0,1.7-0.3,3-1,3.8C488.5,96.9,487.6,97.3,486.4,97.3z M486.4,96.3c0.9,0,1.5-0.3,2-0.9
			c0.4-0.6,0.7-1.6,0.7-3v-1.2c0-2.6-0.9-4-2.6-4c-1.8,0-2.7,1.3-2.7,3.9v1.2C483.8,95,484.7,96.3,486.4,96.3z"/>
		<path d="M491.7,99.2l0.6-3.1h1.3l-1.2,3.1H491.7z"/>
		<path d="M498.5,97.2c-1.2,0-2.2-0.3-2.9-0.8l0.3-0.9c0.3,0.2,0.7,0.4,1.2,0.5c0.5,0.1,0.9,0.2,1.3,0.2c0.9,0,1.6-0.2,2.1-0.6
			c0.5-0.4,0.7-0.9,0.7-1.6s-0.2-1.2-0.7-1.6c-0.5-0.4-1.2-0.5-2-0.5h-1v-1h1c0.7,0,1.3-0.2,1.7-0.5c0.4-0.4,0.7-0.8,0.7-1.5
			c0-1.2-0.7-1.8-2.2-1.8c-0.7,0-1.5,0.3-2.4,0.8l-0.2-0.9c0.3-0.2,0.7-0.4,1.3-0.6c0.6-0.2,1.1-0.3,1.5-0.3c1,0,1.7,0.2,2.3,0.7
			c0.6,0.5,0.9,1.1,0.9,1.9c0,1.2-0.7,2.1-2,2.5c1.6,0.3,2.4,1.2,2.4,2.7c0,0.9-0.4,1.7-1.1,2.3C500.6,96.9,499.7,97.2,498.5,97.2z"
			/>
		<path d="M506.9,97.3c-1.2,0-2.2-0.3-3-0.8l0.2-0.9c0.3,0.2,0.7,0.4,1.2,0.5c0.5,0.2,0.9,0.2,1.4,0.2c0.9,0,1.5-0.2,2-0.7
			s0.7-1.1,0.7-1.9c0-1.6-0.9-2.4-2.7-2.4c-0.7,0-1.5,0.2-2.2,0.5l0.4-5.6h5.4v1h-4.4l-0.2,3.4c0.5-0.1,1.1-0.2,1.6-0.2
			c2.3,0,3.5,1.1,3.5,3.2c0,1-0.3,1.8-1,2.5C508.9,96.9,508,97.3,506.9,97.3z"/>
		<path d="M516.4,97.3c-1.2,0-2.1-0.4-2.8-1.3c-0.7-0.8-1.1-2.1-1.1-3.8v-0.9c0-1.8,0.4-3,1.1-3.8c0.7-0.8,1.6-1.2,2.8-1.2
			c1.1,0,2.1,0.4,2.7,1.2s1,2,1,3.8v1c0,1.7-0.3,3-1,3.8C518.4,96.9,517.5,97.3,516.4,97.3z M516.4,96.3c0.9,0,1.5-0.3,2-0.9
			c0.4-0.6,0.7-1.6,0.7-3v-1.2c0-2.6-0.9-4-2.6-4c-1.8,0-2.7,1.3-2.7,3.9v1.2C513.7,95,514.6,96.3,516.4,96.3z"/>
	</g>
	<line class="st4" x1="605.8" y1="281.7" x2="1031.9" y2="281.7"/>
	<line class="st4" x1="605.8" y1="281.7" x2="605.8" y2="276"/>
	<line class="st2" x1="666.6" y1="281.8" x2="666.6" y2="286.8"/>
	<line class="st2" x1="605.8" y1="281.8" x2="605.8" y2="286.8"/>
	<line class="st2" x1="727.5" y1="281.8" x2="727.5" y2="286.8"/>
	<line class="st2" x1="788.3" y1="281.8" x2="788.3" y2="286.8"/>
	<line class="st2" x1="849.2" y1="281.8" x2="849.2" y2="286.8"/>
	<line class="st2" x1="910" y1="281.8" x2="910" y2="286.8"/>
	<line class="st2" x1="970.8" y1="281.7" x2="970.8" y2="286.7"/>
	<line class="st2" x1="1031.7" y1="281.7" x2="1031.7" y2="286.7"/>
	<g>
		<path d="M593.2,286.3c-1.2,0-2.1-0.4-2.8-1.3c-0.7-0.8-1.1-2.1-1.1-3.8v-0.9c0-1.8,0.4-3,1.1-3.8s1.6-1.2,2.8-1.2
			c1.1,0,2.1,0.4,2.7,1.2c0.7,0.8,1,2,1,3.8v1c0,1.7-0.3,3-1,3.8C595.2,285.9,594.3,286.3,593.2,286.3z M593.2,285.4
			c0.9,0,1.5-0.3,2-0.9s0.7-1.6,0.7-3v-1.2c0-2.6-0.9-4-2.6-4c-1.8,0-2.7,1.3-2.7,3.9v1.2C590.5,284,591.4,285.4,593.2,285.4z"/>
	</g>
	<g>
		<path d="M575.3,257.6V248l-2,0.5v-0.7l2.5-1.2h0.6v11H575.3z"/>
		<path d="M583.2,257.7c-1.2,0-2.1-0.4-2.8-1.3c-0.7-0.8-1.1-2.1-1.1-3.8v-0.9c0-1.8,0.4-3,1.1-3.8s1.6-1.2,2.8-1.2
			c1.1,0,2.1,0.4,2.7,1.2c0.7,0.8,1,2,1,3.8v1c0,1.7-0.3,3-1,3.8C585.2,257.3,584.3,257.7,583.2,257.7z M583.2,256.7
			c0.9,0,1.5-0.3,2-0.9c0.4-0.6,0.7-1.6,0.7-3v-1.2c0-2.6-0.9-4-2.6-4c-1.8,0-2.7,1.3-2.7,3.9v1.2
			C580.5,255.4,581.4,256.7,583.2,256.7z"/>
		<path d="M593.2,257.7c-1.2,0-2.1-0.4-2.8-1.3c-0.7-0.8-1.1-2.1-1.1-3.8v-0.9c0-1.8,0.4-3,1.1-3.8s1.6-1.2,2.8-1.2
			c1.1,0,2.1,0.4,2.7,1.2c0.7,0.8,1,2,1,3.8v1c0,1.7-0.3,3-1,3.8C595.2,257.3,594.3,257.7,593.2,257.7z M593.2,256.7
			c0.9,0,1.5-0.3,2-0.9c0.4-0.6,0.7-1.6,0.7-3v-1.2c0-2.6-0.9-4-2.6-4c-1.8,0-2.7,1.3-2.7,3.9v1.2
			C590.5,255.4,591.4,256.7,593.2,256.7z"/>
	</g>
	<g>
		<path d="M570.6,228.9v-0.7l2.6-2.7c0.9-0.9,1.5-1.7,1.9-2.3c0.4-0.6,0.6-1.3,0.6-2c0-0.7-0.2-1.3-0.5-1.6
			c-0.4-0.4-0.9-0.5-1.7-0.5c-0.8,0-1.6,0.3-2.4,0.9l-0.4-0.9c1-0.7,2-1,2.9-1c1,0,1.9,0.3,2.4,0.8c0.6,0.6,0.9,1.3,0.9,2.3
			c0,0.8-0.2,1.6-0.7,2.3s-1.2,1.6-2.3,2.7l-1.8,1.8h5v1H570.6z"/>
		<path d="M583.2,229.1c-1.2,0-2.1-0.4-2.8-1.3c-0.7-0.8-1.1-2.1-1.1-3.8V223c0-1.8,0.4-3,1.1-3.8s1.6-1.2,2.8-1.2
			c1.1,0,2.1,0.4,2.7,1.2c0.7,0.8,1,2,1,3.8v1c0,1.7-0.3,3-1,3.8C585.2,228.6,584.3,229.1,583.2,229.1z M583.2,228.1
			c0.9,0,1.5-0.3,2-0.9s0.7-1.6,0.7-3v-1.2c0-2.6-0.9-4-2.6-4c-1.8,0-2.7,1.3-2.7,3.9v1.2C580.5,226.8,581.4,228.1,583.2,228.1z"/>
		<path d="M593.2,229.1c-1.2,0-2.1-0.4-2.8-1.3c-0.7-0.8-1.1-2.1-1.1-3.8V223c0-1.8,0.4-3,1.1-3.8s1.6-1.2,2.8-1.2
			c1.1,0,2.1,0.4,2.7,1.2c0.7,0.8,1,2,1,3.8v1c0,1.7-0.3,3-1,3.8C595.2,228.6,594.3,229.1,593.2,229.1z M593.2,228.1
			c0.9,0,1.5-0.3,2-0.9s0.7-1.6,0.7-3v-1.2c0-2.6-0.9-4-2.6-4c-1.8,0-2.7,1.3-2.7,3.9v1.2C590.5,226.8,591.4,228.1,593.2,228.1z"/>
	</g>
	<g>
		<path d="M624.1,209.2v-0.7l2.6-2.7c0.9-0.9,1.5-1.7,1.9-2.3c0.4-0.6,0.6-1.3,0.6-2c0-0.7-0.2-1.3-0.5-1.6
			c-0.4-0.4-0.9-0.5-1.7-0.5c-0.8,0-1.6,0.3-2.4,0.9l-0.4-0.9c1-0.7,2-1,2.9-1c1,0,1.9,0.3,2.4,0.8c0.6,0.6,0.9,1.3,0.9,2.3
			c0,0.8-0.2,1.6-0.7,2.3s-1.2,1.6-2.3,2.7l-1.8,1.8h5v1H624.1z"/>
		<path d="M632.6,209.2v-0.7l2.6-2.7c0.9-0.9,1.5-1.7,1.9-2.3c0.4-0.6,0.6-1.3,0.6-2c0-0.7-0.2-1.3-0.5-1.6
			c-0.4-0.4-0.9-0.5-1.7-0.5c-0.8,0-1.6,0.3-2.4,0.9l-0.4-0.9c1-0.7,2-1,2.9-1c1,0,1.9,0.3,2.4,0.8c0.6,0.6,0.9,1.3,0.9,2.3
			c0,0.8-0.2,1.6-0.7,2.3s-1.2,1.6-2.3,2.7l-1.8,1.8h5v1H632.6z"/>
		<path d="M645.2,209.4c-1.2,0-2.1-0.4-2.8-1.3c-0.7-0.8-1.1-2.1-1.1-3.8v-0.9c0-1.8,0.4-3,1.1-3.8s1.6-1.2,2.8-1.2
			c1.1,0,2.1,0.4,2.7,1.2c0.7,0.8,1,2,1,3.8v1c0,1.7-0.3,3-1,3.8C647.2,209,646.3,209.4,645.2,209.4z M645.2,208.4
			c0.9,0,1.5-0.3,2-0.9s0.7-1.6,0.7-3v-1.2c0-2.6-0.9-4-2.6-4c-1.8,0-2.7,1.3-2.7,3.9v1.2C642.5,207.1,643.4,208.4,645.2,208.4z"/>
	</g>
	<g>
		<path d="M684.7,175.9c-1.2,0-2.2-0.3-2.9-0.8l0.3-0.9c0.3,0.2,0.7,0.4,1.2,0.5c0.5,0.1,0.9,0.2,1.3,0.2c0.9,0,1.6-0.2,2.1-0.6
			c0.5-0.4,0.7-0.9,0.7-1.6s-0.2-1.2-0.7-1.6c-0.5-0.4-1.2-0.5-2-0.5h-1v-1h1c0.7,0,1.3-0.2,1.7-0.5c0.4-0.4,0.7-0.8,0.7-1.5
			c0-1.2-0.7-1.8-2.2-1.8c-0.7,0-1.5,0.3-2.4,0.8l-0.2-0.9c0.3-0.2,0.7-0.4,1.3-0.6c0.6-0.2,1.1-0.3,1.5-0.3c1,0,1.7,0.2,2.3,0.7
			c0.6,0.5,0.9,1.1,0.9,1.9c0,1.2-0.7,2.1-2,2.5c1.6,0.3,2.4,1.2,2.4,2.7c0,0.9-0.4,1.7-1.1,2.3
			C686.8,175.6,685.9,175.9,684.7,175.9z"/>
		<path d="M693.3,175.9c-1.2,0-2.2-0.3-2.9-0.8l0.3-0.9c0.3,0.2,0.7,0.4,1.2,0.5c0.5,0.1,0.9,0.2,1.3,0.2c0.9,0,1.6-0.2,2.1-0.6
			c0.5-0.4,0.7-0.9,0.7-1.6s-0.2-1.2-0.7-1.6c-0.5-0.4-1.2-0.5-2-0.5h-1v-1h1c0.7,0,1.3-0.2,1.7-0.5c0.4-0.4,0.7-0.8,0.7-1.5
			c0-1.2-0.7-1.8-2.2-1.8c-0.7,0-1.5,0.3-2.4,0.8l-0.2-0.9c0.3-0.2,0.7-0.4,1.3-0.6c0.6-0.2,1.1-0.3,1.5-0.3c1,0,1.7,0.2,2.3,0.7
			c0.6,0.5,0.9,1.1,0.9,1.9c0,1.2-0.7,2.1-2,2.5c1.6,0.3,2.4,1.2,2.4,2.7c0,0.9-0.4,1.7-1.1,2.3
			C695.4,175.6,694.4,175.9,693.3,175.9z"/>
		<path d="M703.2,176c-1.2,0-2.1-0.4-2.8-1.3c-0.7-0.8-1.1-2.1-1.1-3.8v-0.9c0-1.8,0.4-3,1.1-3.8s1.6-1.2,2.8-1.2
			c1.1,0,2.1,0.4,2.7,1.2c0.7,0.8,1,2,1,3.8v1c0,1.7-0.3,3-1,3.8C705.2,175.6,704.3,176,703.2,176z M703.2,175c0.9,0,1.5-0.3,2-0.9
			s0.7-1.6,0.7-3v-1.2c0-2.6-0.9-4-2.6-4c-1.8,0-2.7,1.3-2.7,3.9v1.2C700.5,173.7,701.4,175,703.2,175z"/>
	</g>
	<g>
		<path d="M749.6,126c-1.2,0-2.2-0.3-3-0.8l0.2-0.9c0.3,0.2,0.7,0.4,1.2,0.5c0.5,0.2,0.9,0.2,1.4,0.2c0.9,0,1.5-0.2,2-0.7
			c0.5-0.5,0.7-1.1,0.7-1.9c0-1.6-0.9-2.4-2.7-2.4c-0.7,0-1.5,0.2-2.2,0.5l0.4-5.6h5.4v1h-4.4l-0.2,3.4c0.5-0.1,1.1-0.2,1.6-0.2
			c2.3,0,3.5,1.1,3.5,3.2c0,1-0.3,1.8-1,2.5C751.7,125.7,750.8,126,749.6,126z"/>
		<path d="M757,125.9v-9.6l-2,0.5v-0.7l2.5-1.2h0.6v11H757z"/>
		<path d="M764.8,126c-1.2,0-2.1-0.4-2.8-1.3c-0.7-0.8-1.1-2.1-1.1-3.8V120c0-1.8,0.4-3,1.1-3.8s1.6-1.2,2.8-1.2
			c1.1,0,2.1,0.4,2.7,1.2c0.7,0.8,1,2,1,3.8v1c0,1.7-0.3,3-1,3.8C766.9,125.6,766,126,764.8,126z M764.8,125.1c0.9,0,1.5-0.3,2-0.9
			s0.7-1.6,0.7-3v-1.2c0-2.6-0.9-4-2.6-4c-1.8,0-2.7,1.3-2.7,3.9v1.2C762.2,123.7,763.1,125.1,764.8,125.1z"/>
	</g>
	<g>
		<path d="M810,94.5c-1.2,0-2.1-0.4-2.7-1.2c-0.6-0.8-0.9-2-0.9-3.6v-0.8c0-1.8,0.4-3.2,1.1-4.1s1.7-1.3,3-1.3c1,0,1.8,0.2,2.5,0.6
			l-0.4,0.8c-0.2-0.1-0.5-0.2-0.9-0.3c-0.4-0.1-0.8-0.2-1.1-0.2c-1,0-1.7,0.3-2.2,1c-0.5,0.6-0.8,1.8-0.8,3.5
			c0.7-0.8,1.6-1.2,2.7-1.2c0.9,0,1.7,0.3,2.3,0.9c0.6,0.6,0.9,1.4,0.9,2.4c0,1-0.3,1.9-0.9,2.6S811.1,94.5,810,94.5z M810,93.5
			c0.7,0,1.3-0.2,1.7-0.7c0.4-0.4,0.6-1.1,0.6-1.8c0-0.8-0.2-1.4-0.6-1.8c-0.4-0.4-1-0.6-1.7-0.6c-0.5,0-1,0.1-1.4,0.4
			c-0.4,0.3-0.8,0.6-1.1,1v0.1C807.6,92.4,808.4,93.5,810,93.5z"/>
		<path d="M815.3,94.3v-0.7l2.6-2.7c0.9-0.9,1.5-1.7,1.9-2.3c0.4-0.6,0.6-1.3,0.6-2c0-0.7-0.2-1.3-0.5-1.6c-0.4-0.4-0.9-0.5-1.7-0.5
			c-0.8,0-1.6,0.3-2.4,0.9l-0.4-0.9c1-0.7,2-1,2.9-1c1,0,1.9,0.3,2.4,0.8c0.6,0.6,0.9,1.3,0.9,2.3c0,0.8-0.2,1.6-0.7,2.3
			s-1.2,1.6-2.3,2.7l-1.8,1.8h5v1H815.3z"/>
		<path d="M827.9,94.5c-1.2,0-2.1-0.4-2.8-1.3c-0.7-0.8-1.1-2.1-1.1-3.8v-0.9c0-1.8,0.4-3,1.1-3.8s1.6-1.2,2.8-1.2
			c1.1,0,2.1,0.4,2.7,1.2c0.7,0.8,1,2,1,3.8v1c0,1.7-0.3,3-1,3.8C829.9,94.1,829,94.5,827.9,94.5z M827.9,93.6c0.9,0,1.5-0.3,2-0.9
			s0.7-1.6,0.7-3v-1.2c0-2.6-0.9-4-2.6-4c-1.8,0-2.7,1.3-2.7,3.9v1.2C825.2,92.2,826.1,93.6,827.9,93.6z"/>
	</g>
	<g>
		<path d="M870.5,121.9c-1.2,0-2.2-0.3-3-0.8l0.2-0.9c0.3,0.2,0.7,0.4,1.2,0.5c0.5,0.2,0.9,0.2,1.4,0.2c0.9,0,1.5-0.2,2-0.7
			c0.5-0.5,0.7-1.1,0.7-1.9c0-1.6-0.9-2.4-2.7-2.4c-0.7,0-1.5,0.2-2.2,0.5l0.4-5.6h5.4v1h-4.4l-0.2,3.4c0.5-0.1,1.1-0.2,1.6-0.2
			c2.3,0,3.5,1.1,3.5,3.2c0,1-0.3,1.8-1,2.5C872.5,121.6,871.6,121.9,870.5,121.9z"/>
		<path d="M876,121.7V121l2.6-2.7c0.9-0.9,1.5-1.7,1.9-2.3c0.4-0.6,0.6-1.3,0.6-2c0-0.7-0.2-1.3-0.5-1.6c-0.4-0.4-0.9-0.5-1.7-0.5
			c-0.8,0-1.6,0.3-2.4,0.9l-0.4-0.9c1-0.7,2-1,2.9-1c1,0,1.9,0.3,2.4,0.8c0.6,0.6,0.9,1.3,0.9,2.3c0,0.8-0.2,1.6-0.7,2.3
			s-1.2,1.6-2.3,2.7l-1.8,1.8h5v1H876z"/>
		<path d="M888.5,121.9c-1.2,0-2.1-0.4-2.8-1.3c-0.7-0.8-1.1-2.1-1.1-3.8v-0.9c0-1.8,0.4-3,1.1-3.8s1.6-1.2,2.8-1.2
			c1.1,0,2.1,0.4,2.7,1.2c0.7,0.8,1,2,1,3.8v1c0,1.7-0.3,3-1,3.8C890.6,121.5,889.7,121.9,888.5,121.9z M888.5,121
			c0.9,0,1.5-0.3,2-0.9s0.7-1.6,0.7-3v-1.2c0-2.6-0.9-4-2.6-4c-1.8,0-2.7,1.3-2.7,3.9v1.2C885.9,119.6,886.7,121,888.5,121z"/>
	</g>
	<g>
		<path d="M931.5,83.2c-1.2,0-2.1-0.4-2.7-1.2c-0.6-0.8-0.9-2-0.9-3.6v-0.8c0-1.8,0.4-3.2,1.1-4.1s1.7-1.3,3-1.3
			c1,0,1.8,0.2,2.5,0.6l-0.4,0.8c-0.2-0.1-0.5-0.2-0.9-0.3c-0.4-0.1-0.8-0.2-1.1-0.2c-1,0-1.7,0.3-2.2,1c-0.5,0.6-0.8,1.8-0.8,3.5
			c0.7-0.8,1.6-1.2,2.7-1.2c0.9,0,1.7,0.3,2.3,0.9c0.6,0.6,0.9,1.4,0.9,2.4c0,1-0.3,1.9-0.9,2.6S932.5,83.2,931.5,83.2z M931.5,82.2
			c0.7,0,1.3-0.2,1.7-0.7c0.4-0.4,0.6-1.1,0.6-1.8c0-0.8-0.2-1.4-0.6-1.8c-0.4-0.4-1-0.6-1.7-0.6c-0.5,0-1,0.1-1.4,0.4
			c-0.4,0.3-0.8,0.6-1.1,1v0.1C929,81.1,929.8,82.2,931.5,82.2z"/>
		<path d="M940.2,83.2c-1.2,0-2.1-0.4-2.7-1.2c-0.6-0.8-0.9-2-0.9-3.6v-0.8c0-1.8,0.4-3.2,1.1-4.1s1.7-1.3,3-1.3
			c1,0,1.8,0.2,2.5,0.6l-0.4,0.8c-0.2-0.1-0.5-0.2-0.9-0.3c-0.4-0.1-0.8-0.2-1.1-0.2c-1,0-1.7,0.3-2.2,1c-0.5,0.6-0.8,1.8-0.8,3.5
			c0.7-0.8,1.6-1.2,2.7-1.2c0.9,0,1.7,0.3,2.3,0.9c0.6,0.6,0.9,1.4,0.9,2.4c0,1-0.3,1.9-0.9,2.6S941.3,83.2,940.2,83.2z M940.2,82.2
			c0.7,0,1.3-0.2,1.7-0.7c0.4-0.4,0.6-1.1,0.6-1.8c0-0.8-0.2-1.4-0.6-1.8c-0.4-0.4-1-0.6-1.7-0.6c-0.5,0-1,0.1-1.4,0.4
			c-0.4,0.3-0.8,0.6-1.1,1v0.1C937.8,81.1,938.6,82.2,940.2,82.2z"/>
		<path d="M949.5,83.2c-1.2,0-2.1-0.4-2.8-1.3c-0.7-0.8-1.1-2.1-1.1-3.8v-0.9c0-1.8,0.4-3,1.1-3.8s1.6-1.2,2.8-1.2
			c1.1,0,2.1,0.4,2.7,1.2c0.7,0.8,1,2,1,3.8v1c0,1.7-0.3,3-1,3.8C951.6,82.7,950.7,83.2,949.5,83.2z M949.5,82.2
			c0.9,0,1.5-0.3,2-0.9s0.7-1.6,0.7-3V77c0-2.6-0.9-4-2.6-4c-1.8,0-2.7,1.3-2.7,3.9v1.2C946.9,80.9,947.7,82.2,949.5,82.2z"/>
	</g>
	<g>
		<path d="M992.5,118.1c-1.2,0-2.2-0.3-3-0.8l0.2-0.9c0.3,0.2,0.7,0.4,1.2,0.5c0.5,0.2,0.9,0.2,1.4,0.2c0.9,0,1.5-0.2,2-0.7
			c0.5-0.5,0.7-1.1,0.7-1.9c0-1.6-0.9-2.4-2.7-2.4c-0.7,0-1.5,0.2-2.2,0.5l0.4-5.6h5.4v1h-4.4l-0.2,3.4c0.5-0.1,1.1-0.2,1.6-0.2
			c2.3,0,3.5,1.1,3.5,3.2c0,1-0.3,1.8-1,2.5C994.5,117.8,993.6,118.1,992.5,118.1z"/>
		<path d="M1002.5,118.2v-2.6h-5v-0.9l5.1-7.7h0.9v7.6h1.9v1h-1.9v2.6H1002.5z M998.7,114.7h3.9v-5.8L998.7,114.7z"/>
		<path d="M1010.8,118.1c-1.2,0-2.1-0.4-2.8-1.3c-0.7-0.8-1.1-2.1-1.1-3.8v-0.9c0-1.8,0.4-3,1.1-3.8s1.6-1.2,2.8-1.2
			c1.1,0,2.1,0.4,2.7,1.2c0.7,0.8,1,2,1,3.8v1c0,1.7-0.3,3-1,3.8C1012.9,117.7,1012,118.1,1010.8,118.1z M1010.8,117.1
			c0.9,0,1.5-0.3,2-0.9s0.7-1.6,0.7-3V112c0-2.6-0.9-4-2.6-4c-1.8,0-2.7,1.3-2.7,3.9v1.2C1008.2,115.8,1009.1,117.1,1010.8,117.1z"
			/>
	</g>
	<g>
		<path d="M573.2,200.4c-1.2,0-2.2-0.3-2.9-0.8l0.3-0.9c0.3,0.2,0.7,0.4,1.2,0.5c0.5,0.1,0.9,0.2,1.3,0.2c0.9,0,1.6-0.2,2.1-0.6
			c0.5-0.4,0.7-0.9,0.7-1.6s-0.2-1.2-0.7-1.6c-0.5-0.4-1.2-0.5-2-0.5h-1v-1h1c0.7,0,1.3-0.2,1.7-0.5c0.4-0.4,0.7-0.8,0.7-1.5
			c0-1.2-0.7-1.8-2.2-1.8c-0.7,0-1.5,0.3-2.4,0.8l-0.2-0.9c0.3-0.2,0.7-0.4,1.3-0.6c0.6-0.2,1.1-0.3,1.5-0.3c1,0,1.7,0.2,2.3,0.7
			c0.6,0.5,0.9,1.1,0.9,1.9c0,1.2-0.7,2.1-2,2.5c1.6,0.3,2.4,1.2,2.4,2.7c0,0.9-0.4,1.7-1.1,2.3
			C575.3,200.1,574.4,200.4,573.2,200.4z"/>
		<path d="M583.2,200.4c-1.2,0-2.1-0.4-2.8-1.3c-0.7-0.8-1.1-2.1-1.1-3.8v-0.9c0-1.8,0.4-3,1.1-3.8s1.6-1.2,2.8-1.2
			c1.1,0,2.1,0.4,2.7,1.2c0.7,0.8,1,2,1,3.8v1c0,1.7-0.3,3-1,3.8C585.2,200,584.3,200.4,583.2,200.4z M583.2,199.5
			c0.9,0,1.5-0.3,2-0.9s0.7-1.6,0.7-3v-1.2c0-2.6-0.9-4-2.6-4c-1.8,0-2.7,1.3-2.7,3.9v1.2C580.5,198.1,581.4,199.5,583.2,199.5z"/>
		<path d="M593.2,200.4c-1.2,0-2.1-0.4-2.8-1.3c-0.7-0.8-1.1-2.1-1.1-3.8v-0.9c0-1.8,0.4-3,1.1-3.8s1.6-1.2,2.8-1.2
			c1.1,0,2.1,0.4,2.7,1.2c0.7,0.8,1,2,1,3.8v1c0,1.7-0.3,3-1,3.8C595.2,200,594.3,200.4,593.2,200.4z M593.2,199.5
			c0.9,0,1.5-0.3,2-0.9s0.7-1.6,0.7-3v-1.2c0-2.6-0.9-4-2.6-4c-1.8,0-2.7,1.3-2.7,3.9v1.2C590.5,198.1,591.4,199.5,593.2,199.5z"/>
	</g>
	<g>
		<path d="M574.8,171.9v-2.6h-5v-0.9l5.1-7.7h0.9v7.6h1.9v1h-1.9v2.6H574.8z M571,168.4h3.9v-5.8L571,168.4z"/>
		<path d="M583.2,171.8c-1.2,0-2.1-0.4-2.8-1.3c-0.7-0.8-1.1-2.1-1.1-3.8v-0.9c0-1.8,0.4-3,1.1-3.8s1.6-1.2,2.8-1.2
			c1.1,0,2.1,0.4,2.7,1.2c0.7,0.8,1,2,1,3.8v1c0,1.7-0.3,3-1,3.8C585.2,171.4,584.3,171.8,583.2,171.8z M583.2,170.9
			c0.9,0,1.5-0.3,2-0.9s0.7-1.6,0.7-3v-1.2c0-2.6-0.9-4-2.6-4c-1.8,0-2.7,1.3-2.7,3.9v1.2C580.5,169.5,581.4,170.9,583.2,170.9z"/>
		<path d="M593.2,171.8c-1.2,0-2.1-0.4-2.8-1.3c-0.7-0.8-1.1-2.1-1.1-3.8v-0.9c0-1.8,0.4-3,1.1-3.8s1.6-1.2,2.8-1.2
			c1.1,0,2.1,0.4,2.7,1.2c0.7,0.8,1,2,1,3.8v1c0,1.7-0.3,3-1,3.8C595.2,171.4,594.3,171.8,593.2,171.8z M593.2,170.9
			c0.9,0,1.5-0.3,2-0.9s0.7-1.6,0.7-3v-1.2c0-2.6-0.9-4-2.6-4c-1.8,0-2.7,1.3-2.7,3.9v1.2C590.5,169.5,591.4,170.9,593.2,170.9z"/>
	</g>
	<g>
		<path d="M573.6,143.2c-1.2,0-2.2-0.3-3-0.8l0.2-0.9c0.3,0.2,0.7,0.4,1.2,0.5c0.5,0.2,0.9,0.2,1.4,0.2c0.9,0,1.5-0.2,2-0.7
			c0.5-0.5,0.7-1.1,0.7-1.9c0-1.6-0.9-2.4-2.7-2.4c-0.7,0-1.5,0.2-2.2,0.5l0.4-5.6h5.4v1h-4.4l-0.2,3.4c0.5-0.1,1.1-0.2,1.6-0.2
			c2.3,0,3.5,1.1,3.5,3.2c0,1-0.3,1.8-1,2.5C575.7,142.9,574.8,143.2,573.6,143.2z"/>
		<path d="M583.2,143.2c-1.2,0-2.1-0.4-2.8-1.3c-0.7-0.8-1.1-2.1-1.1-3.8v-0.9c0-1.8,0.4-3,1.1-3.8s1.6-1.2,2.8-1.2
			c1.1,0,2.1,0.4,2.7,1.2c0.7,0.8,1,2,1,3.8v1c0,1.7-0.3,3-1,3.8C585.2,142.8,584.3,143.2,583.2,143.2z M583.2,142.2
			c0.9,0,1.5-0.3,2-0.9s0.7-1.6,0.7-3V137c0-2.6-0.9-4-2.6-4c-1.8,0-2.7,1.3-2.7,3.9v1.2C580.5,140.9,581.4,142.2,583.2,142.2z"/>
		<path d="M593.2,143.2c-1.2,0-2.1-0.4-2.8-1.3c-0.7-0.8-1.1-2.1-1.1-3.8v-0.9c0-1.8,0.4-3,1.1-3.8s1.6-1.2,2.8-1.2
			c1.1,0,2.1,0.4,2.7,1.2c0.7,0.8,1,2,1,3.8v1c0,1.7-0.3,3-1,3.8C595.2,142.8,594.3,143.2,593.2,143.2z M593.2,142.2
			c0.9,0,1.5-0.3,2-0.9s0.7-1.6,0.7-3V137c0-2.6-0.9-4-2.6-4c-1.8,0-2.7,1.3-2.7,3.9v1.2C590.5,140.9,591.4,142.2,593.2,142.2z"/>
	</g>
	<g>
		<path d="M573.9,114.6c-1.2,0-2.1-0.4-2.7-1.2c-0.6-0.8-0.9-2-0.9-3.6v-0.8c0-1.8,0.4-3.2,1.1-4.1s1.7-1.3,3-1.3
			c1,0,1.8,0.2,2.5,0.6l-0.4,0.8c-0.2-0.1-0.5-0.2-0.9-0.3c-0.4-0.1-0.8-0.2-1.1-0.2c-1,0-1.7,0.3-2.2,1c-0.5,0.6-0.8,1.8-0.8,3.5
			c0.7-0.8,1.6-1.2,2.7-1.2c0.9,0,1.7,0.3,2.3,0.9c0.6,0.6,0.9,1.4,0.9,2.4c0,1-0.3,1.9-0.9,2.6S574.9,114.6,573.9,114.6z
			 M573.9,113.6c0.7,0,1.3-0.2,1.7-0.7c0.4-0.4,0.6-1.1,0.6-1.8c0-0.8-0.2-1.4-0.6-1.8c-0.4-0.4-1-0.6-1.7-0.6c-0.5,0-1,0.1-1.4,0.4
			c-0.4,0.3-0.8,0.6-1.1,1v0.1C571.4,112.5,572.2,113.6,573.9,113.6z"/>
		<path d="M583.2,114.6c-1.2,0-2.1-0.4-2.8-1.3c-0.7-0.8-1.1-2.1-1.1-3.8v-0.9c0-1.8,0.4-3,1.1-3.8s1.6-1.2,2.8-1.2
			c1.1,0,2.1,0.4,2.7,1.2c0.7,0.8,1,2,1,3.8v1c0,1.7-0.3,3-1,3.8C585.2,114.1,584.3,114.6,583.2,114.6z M583.2,113.6
			c0.9,0,1.5-0.3,2-0.9s0.7-1.6,0.7-3v-1.2c0-2.6-0.9-4-2.6-4c-1.8,0-2.7,1.3-2.7,3.9v1.2C580.5,112.3,581.4,113.6,583.2,113.6z"/>
		<path d="M593.2,114.6c-1.2,0-2.1-0.4-2.8-1.3c-0.7-0.8-1.1-2.1-1.1-3.8v-0.9c0-1.8,0.4-3,1.1-3.8s1.6-1.2,2.8-1.2
			c1.1,0,2.1,0.4,2.7,1.2c0.7,0.8,1,2,1,3.8v1c0,1.7-0.3,3-1,3.8C595.2,114.1,594.3,114.6,593.2,114.6z M593.2,113.6
			c0.9,0,1.5-0.3,2-0.9s0.7-1.6,0.7-3v-1.2c0-2.6-0.9-4-2.6-4c-1.8,0-2.7,1.3-2.7,3.9v1.2C590.5,112.3,591.4,113.6,593.2,113.6z"/>
	</g>
	<g>
		<path d="M572.2,85.8l4.3-9.8h-5.6v-1h6.8v0.7l-4.3,10H572.2z"/>
		<path d="M583.2,85.9c-1.2,0-2.1-0.4-2.8-1.3c-0.7-0.8-1.1-2.1-1.1-3.8v-0.9c0-1.8,0.4-3,1.1-3.8s1.6-1.2,2.8-1.2
			c1.1,0,2.1,0.4,2.7,1.2c0.7,0.8,1,2,1,3.8v1c0,1.7-0.3,3-1,3.8C585.2,85.5,584.3,85.9,583.2,85.9z M583.2,85c0.9,0,1.5-0.3,2-0.9
			s0.7-1.6,0.7-3v-1.2c0-2.6-0.9-4-2.6-4c-1.8,0-2.7,1.3-2.7,3.9V81C580.5,83.6,581.4,85,583.2,85z"/>
		<path d="M593.2,85.9c-1.2,0-2.1-0.4-2.8-1.3c-0.7-0.8-1.1-2.1-1.1-3.8v-0.9c0-1.8,0.4-3,1.1-3.8s1.6-1.2,2.8-1.2
			c1.1,0,2.1,0.4,2.7,1.2c0.7,0.8,1,2,1,3.8v1c0,1.7-0.3,3-1,3.8C595.2,85.5,594.3,85.9,593.2,85.9z M593.2,85c0.9,0,1.5-0.3,2-0.9
			s0.7-1.6,0.7-3v-1.2c0-2.6-0.9-4-2.6-4c-1.8,0-2.7,1.3-2.7,3.9V81C590.5,83.6,591.4,85,593.2,85z"/>
	</g>
	<line class="st2" x1="605.8" y1="281.7" x2="605.8" y2="80.6"/>
	<line class="st2" x1="605.4" y1="281.7" x2="600.4" y2="281.7"/>
	<line class="st2" x1="605.4" y1="253.1" x2="600.4" y2="253.1"/>
	<line class="st2" x1="605.4" y1="224.4" x2="600.4" y2="224.4"/>
	<line class="st2" x1="605.4" y1="195.8" x2="600.4" y2="195.8"/>
	<line class="st2" x1="605.4" y1="167.1" x2="600.4" y2="167.1"/>
	<line class="st2" x1="605.4" y1="138.4" x2="600.4" y2="138.4"/>
	<line class="st2" x1="605.4" y1="109.8" x2="600.4" y2="109.8"/>
	<line class="st2" x1="605.4" y1="80.6" x2="600.4" y2="80.6"/>
	<g>
		<g>
			<g>
				<line class="st5" x1="697.1" y1="187.3" x2="636.2" y2="218.8"/>
				<line class="st5" x1="758" y1="135.8" x2="697.1" y2="187.3"/>
				<line class="st5" x1="818.8" y1="104.3" x2="758" y2="135.8"/>
				<line class="st5" x1="879.7" y1="132.9" x2="818.8" y2="104.3"/>
				<line class="st5" x1="940.6" y1="92.8" x2="879.7" y2="132.9"/>
				<line class="st5" x1="1001.5" y1="127.2" x2="940.6" y2="92.8"/>
			</g>
		</g>
	</g>
	<circle cx="879.7" cy="132.9" r="4.8"/>
	<circle cx="636.2" cy="218.8" r="4.8"/>
	<circle cx="697.1" cy="187.3" r="4.8"/>
	<circle cx="758" cy="135.9" r="4.8"/>
	<circle cx="818.8" cy="104.3" r="4.8"/>
	<circle cx="940.6" cy="92.8" r="4.8"/>
</g>
<g id="_x33_2">
</g>
<g id="_x33_1">
</g>
<g id="_x33_0">
</g>
<g id="_x32_9">
</g>
<g id="_x32_8">
</g>
<g id="_x32_7">
</g>
<g id="_x32_6">
</g>
<g id="_x32_5">
</g>
<g id="_x32_4">
</g>
<g id="_x32_3">
</g>
<g id="_x32_2">
</g>
<g id="_x32_1">
</g>
<g id="_x32_0">
</g>
<g id="_x31_9">
</g>
<g id="_x31_8">
</g>
<g id="_x31_7">
</g>
<g id="_x31_6">
</g>
<g id="_x31_5">
</g>
<g id="_x31_4">
</g>
<g id="_x31_3">
</g>
<g id="_x31_2">
</g>
<g id="_x31_1">
</g>
<g id="_x31_0">
</g>
<g id="_x39_">
</g>
<g id="_x38_">
</g>
<g id="_x37_">
</g>
<g id="_x36_">
</g>
<g id="_x35_">
</g>
<g id="_x34_">
</g>
<g id="_x33_">
</g>
<g id="_x32_">
</g>
<g id="_x31_">
</g>
<g id="레이어_28">
</g>
<g id="레이어_36">
</g>
</svg>
